<?xml version="1.0" encoding="utf-8"?>
<!-- Generator: Adobe Illustrator 16.0.4, SVG Export Plug-In . SVG Version: 6.00 Build 0)  -->
<!DOCTYPE svg PUBLIC "-//W3C//DTD SVG 1.1//EN" "http://www.w3.org/Graphics/SVG/1.1/DTD/svg11.dtd">
<svg version="1.1" id="Layer_1" xmlns="http://www.w3.org/2000/svg" xmlns:xlink="http://www.w3.org/1999/xlink" x="0px" y="0px"
	 width="48px" height="48px" viewBox="0 0 48 48" enable-background="new 0 0 48 48" xml:space="preserve">
<g>
	<path fill="#FFFFFF" d="M24,0C10.7,0,0,10.7,0,24s10.7,24,24,24s24-10.7,24-24S37.3,0,24,0"/>
	<path fill="#68C2C2" d="M24,0C10.7,0,0,10.7,0,24s10.7,24,24,24s24-10.7,24-24S37.3,0,24,0"/>
	<path fill="#C9874C" d="M35,18H13c-1.1,0-2,0.9-2,2v15c0,1.1,0.9,2,2,2h22c1.1,0,2-0.9,2-2V20C37,18.9,36.1,18,35,18"/>
	<path fill="#813D1E" d="M37,16H11c-1,0-1,1-1,1v9h28v-9C38,17,38,16,37,16"/>
	<path fill="#EBEBEC" d="M17,23h-2c-0.6,0-1,0.4-1,1v3c0,0.6,0.4,1,1,1h2c0.6,0,1-0.4,1-1v-3C18,23.4,17.6,23,17,23 M32,23h-2
		c-0.6,0-1,0.4-1,1v3c0,0.6,0.4,1,1,1h2c0.6,0,1-0.4,1-1v-3C33,23.4,32.6,23,32,23"/>
	<path fill="#904C1C" d="M15,31h2v-3h-2V31z M16,24c-0.6,0-1,0.4-1,1v1c0,0.6,0.4,1,1,1s1-0.4,1-1v-1C17,24.4,16.6,24,16,24 M30,31
		h2v-3h-2V31z M31,24c-0.6,0-1,0.4-1,1v1c0,0.6,0.4,1,1,1s1-0.4,1-1v-1C32,24.4,31.6,24,31,24"/>
	<path fill="#563318" d="M27,12h-6c-1.1,0-2,0.9-2,2v2h2v-1c0-0.6,0.4-1,1-1h4c0.6,0,1,0.4,1,1v1h2v-2C29,12.9,28.1,12,27,12"/>
</g>
</svg>
