<?xml version="1.0" encoding="utf-8"?>
<!-- Generator: Adobe Illustrator 16.0.4, SVG Export Plug-In . SVG Version: 6.00 Build 0)  -->
<!DOCTYPE svg PUBLIC "-//W3C//DTD SVG 1.1//EN" "http://www.w3.org/Graphics/SVG/1.1/DTD/svg11.dtd">
<svg version="1.1" id="Layer_1" xmlns="http://www.w3.org/2000/svg" xmlns:xlink="http://www.w3.org/1999/xlink" x="0px" y="0px"
	 width="48px" height="48.2px" viewBox="0 0 48 48.2" enable-background="new 0 0 48 48.2" xml:space="preserve">
<g>
	<g>
		<defs>
			<rect id="SVGID_1_" y="-3.7" width="48" height="55.6"/>
		</defs>
		<clipPath id="SVGID_2_">
			<use xlink:href="#SVGID_1_"  overflow="visible"/>
		</clipPath>
		<path clip-path="url(#SVGID_2_)" fill="#FFFFFF" d="M24,0.3c13.3,0,24,10.7,24,24c0,13.3-10.7,24-24,24S0,37.6,0,24.3
			C0,11.1,10.7,0.3,24,0.3"/>
		<path clip-path="url(#SVGID_2_)" fill="#EF7D45" d="M24,0.3c13.3,0,24,10.7,24,24c0,13.3-10.7,24-24,24S0,37.6,0,24.3
			C0,11.1,10.7,0.3,24,0.3"/>
		<path clip-path="url(#SVGID_2_)" fill="#F1F1F2" d="M13.1,31.7l13.2-11.8c-0.5-1.6,0.3-3.7,2.4-5.8c0.8-0.8,4.2-2.8,4.2-2.8
			l-3.3,5.3l5.3-3.3l-3.1,5.4l5.3-3.3c0,0-2.1,3.4-2.8,4.2c-2.1,2.1-4.1,3-5.7,2.5L16.7,35.3c0,0-2.1,2.1-4,0.3
			C11,33.9,13.1,31.7,13.1,31.7"/>
	</g>
	<g>
		<defs>
			<path id="SVGID_3_" d="M28.7,14.1c-2.1,2.1-3,4.2-2.4,5.8L13.1,31.7c0,0-2.1,2.1-0.4,3.9c1.8,1.8,4-0.3,4-0.3l11.8-13.2
				c1.6,0.5,3.6-0.4,5.7-2.5c0.7-0.7,2.8-4.2,2.8-4.2l-5.3,3.3l3.1-5.4l-5.3,3.3l3.3-5.3C32.9,11.3,29.5,13.3,28.7,14.1"/>
		</defs>
		<clipPath id="SVGID_4_">
			<use xlink:href="#SVGID_3_"  overflow="visible"/>
		</clipPath>
		<g opacity="0.4" clip-path="url(#SVGID_4_)">
			<g>
				<defs>
					<rect id="SVGID_5_" x="16" y="18.8" width="13.5" height="13.5"/>
				</defs>
				<clipPath id="SVGID_6_">
					<use xlink:href="#SVGID_5_"  overflow="visible"/>
				</clipPath>
				<g clip-path="url(#SVGID_6_)">
					<defs>
						<rect id="SVGID_7_" x="16" y="18.8" width="13.5" height="13.5"/>
					</defs>
					<clipPath id="SVGID_8_">
						<use xlink:href="#SVGID_7_"  overflow="visible"/>
					</clipPath>
					<polygon clip-path="url(#SVGID_8_)" fill="#3D3A37" points="22.5,18.8 29.5,25.7 23,32.3 16,25.3 					"/>
				</g>
			</g>
		</g>
	</g>
	<g>
		<defs>
			<rect id="SVGID_9_" y="-3.7" width="48" height="55.6"/>
		</defs>
		<clipPath id="SVGID_10_">
			<use xlink:href="#SVGID_9_"  overflow="visible"/>
		</clipPath>
		<path clip-path="url(#SVGID_10_)" fill="#92401A" d="M29.1,26.5l6.8,6.8c0,0,1.4,2,0,3.4c-1.3,1.3-3.4,0-3.4,0l-6.8-6.8L29.1,26.5
			z"/>
		<path clip-path="url(#SVGID_10_)" fill="#F3F3F4" d="M33.9,33.4c0.2,0.2,0.2,0.6,0,0.8c-0.2,0.2-0.6,0.2-0.8,0
			c-0.2-0.2-0.2-0.6,0-0.8C33.3,33.1,33.7,33.1,33.9,33.4 M14,11.4l15.2,15.2l-4.6,4.7c0,0-5.7-5.4-8.9-10.2
			C11.4,14.8,14,11.4,14,11.4 M29.9,29.4c0.2,0.2,0.2,0.6,0,0.8c-0.2,0.2-0.6,0.2-0.8,0c-0.2-0.2-0.2-0.6,0-0.8
			C29.3,29.2,29.7,29.2,29.9,29.4"/>
	</g>
</g>
</svg>
