<?xml version="1.0" encoding="utf-8"?>
<!-- Generator: Adobe Illustrator 16.0.4, SVG Export Plug-In . SVG Version: 6.00 Build 0)  -->
<!DOCTYPE svg PUBLIC "-//W3C//DTD SVG 1.1//EN" "http://www.w3.org/Graphics/SVG/1.1/DTD/svg11.dtd">
<svg version="1.1" id="Layer_1" xmlns="http://www.w3.org/2000/svg" xmlns:xlink="http://www.w3.org/1999/xlink" x="0px" y="0px"
	 width="48px" height="48.2px" viewBox="0 0 48 48.2" enable-background="new 0 0 48 48.2" xml:space="preserve">
<g>
	<path fill="#FFFFFF" d="M24,0.1c-13.3,0-24,10.7-24,24s10.7,24,24,24c13.3,0,24-10.7,24-24S37.3,0.1,24,0.1"/>
	<path fill="#ADCD7E" d="M24,0.1c-13.3,0-24,10.7-24,24s10.7,24,24,24c13.3,0,24-10.7,24-24S37.3,0.1,24,0.1"/>
	<path fill="#B97045" d="M37,34.3L29.5,28l-3.7,3.6l6.3,7.5c0,0,2.9,2,4.9,0C39,37.1,37,34.3,37,34.3"/>
	<path fill="#F7F7F8" d="M21,11.1c-6.1,0-11,4.9-11,10.9c0,6,4.9,10.9,11,10.9c6.1,0,11-4.9,11-10.9C31.9,16,27,11.1,21,11.1"/>
	<path fill="#8DCBEE" d="M21,14.7c-4,0-7.3,3.2-7.3,7.3c0,4,3.3,7.2,7.3,7.2c4,0,7.3-3.2,7.3-7.2C28.3,18,25,14.7,21,14.7"/>
	<g opacity="0.302">
		<g>
			<defs>
				<rect id="SVGID_1_" x="16" y="19.1" width="6" height="6"/>
			</defs>
			<clipPath id="SVGID_2_">
				<use xlink:href="#SVGID_1_"  overflow="visible"/>
			</clipPath>
			<g clip-path="url(#SVGID_2_)">
				<defs>
					<rect id="SVGID_3_" x="16" y="19.1" width="6" height="6"/>
				</defs>
				<clipPath id="SVGID_4_">
					<use xlink:href="#SVGID_3_"  overflow="visible"/>
				</clipPath>
				<path clip-path="url(#SVGID_4_)" fill="#FFFFFF" d="M19,19.1c-1.7,0-3,1.3-3,3c0,1.7,1.3,3,3,3c1.7,0,3-1.3,3-3
					C22,20.5,20.7,19.1,19,19.1"/>
			</g>
		</g>
	</g>
</g>
</svg>
