<?xml version="1.0" encoding="utf-8"?>
<!-- Generator: Adobe Illustrator 16.0.4, SVG Export Plug-In . SVG Version: 6.00 Build 0)  -->
<!DOCTYPE svg PUBLIC "-//W3C//DTD SVG 1.1//EN" "http://www.w3.org/Graphics/SVG/1.1/DTD/svg11.dtd">
<svg version="1.1" id="Layer_1" xmlns="http://www.w3.org/2000/svg" xmlns:xlink="http://www.w3.org/1999/xlink" x="0px" y="0px"
	 width="99px" height="98.967px" viewBox="-31.458 -27.468 99 98.967" enable-background="new -31.458 -27.468 99 98.967"
	 xml:space="preserve">
<circle fill="#FFFFFF" cx="18.043" cy="21.999" r="49.5"/>
<g>
	<path fill="#DDDDDD" d="M18.073,15.804c-0.998,0-1.77,0.4-2.315,1.201c-0.545,0.8-0.818,1.928-0.818,3.382v7.155
		c0,1.486,0.275,2.626,0.826,3.422c0.551,0.795,1.33,1.192,2.338,1.192c0.987,0,1.753-0.397,2.299-1.192
		c0.546-0.796,0.819-1.936,0.819-3.422v-7.155c0-1.455-0.278-2.583-0.834-3.382C19.832,16.205,19.06,15.804,18.073,15.804z"/>
	<path fill="#DDDDDD" d="M23.438-8.079H0.059c-2.154,0-3.897,1.744-3.897,3.896v52.364c0,2.15,1.744,3.895,3.897,3.895h36.045
		c2.151,0,3.896-1.744,3.896-3.895V8.482L23.438-8.079z M25.758,27.106c0,2.66-0.699,4.749-2.097,6.267
		c-1.398,1.518-3.25,2.275-5.557,2.275c-2.328,0-4.193-0.758-5.596-2.275c-1.403-1.518-2.104-3.606-2.104-6.267v-6.251
		c0-2.65,0.699-4.739,2.097-6.266c1.397-1.528,3.255-2.292,5.573-2.292c2.307,0,4.164,0.764,5.573,2.292
		c1.408,1.527,2.112,3.616,2.112,6.266V27.106z"/>
</g>
<path opacity="0.3" fill="#FFFFFF" d="M23.438-4.183v4.872v3.896c0,2.152,1.744,3.897,3.897,3.897h3.896h4.873H40L23.438-8.079
	V-4.183z"/>
<polygon opacity="0.15" points="40,21.496 40,8.482 26.361,8.482 "/>
</svg>
