<?xml version="1.0" encoding="utf-8"?>
<!-- Generator: Adobe Illustrator 16.0.4, SVG Export Plug-In . SVG Version: 6.00 Build 0)  -->
<!DOCTYPE svg PUBLIC "-//W3C//DTD SVG 1.1//EN" "http://www.w3.org/Graphics/SVG/1.1/DTD/svg11.dtd">
<svg version="1.1" id="Layer_1" xmlns="http://www.w3.org/2000/svg" xmlns:xlink="http://www.w3.org/1999/xlink" x="0px" y="0px"
	 width="110px" height="110px" viewBox="0 0 110 110" enable-background="new 0 0 110 110" xml:space="preserve">
	<circle fill="#a5dbdb" cx="55" cy="55" r="50.3"/>

<g>
	<path fill="#FFFFFF" d="M64.5,30.8H63c-0.8,0-1.6,0.5-1.9,1.3l-11.5,31L38,32.1c-0.3-0.8-1-1.3-1.9-1.3h-1.5
		c-0.7,0-1.3,0.3-1.6,0.9c-0.4,0.5-0.5,1.2-0.2,1.8l14.1,37.7c0.3,0.8,1,1.3,1.9,1.3h1.7c0.8,0,1.6-0.5,1.9-1.3l14.1-37.7
		c0.2-0.6,0.1-1.3-0.2-1.8C65.7,31.1,65.1,30.8,64.5,30.8z"/>
	<path fill="#FFFFFF" d="M71.5,40.5h-1.4c-1.1,0-2,0.9-2,2v28c0,1.1,0.9,2,2,2h1.4c1.1,0,2-0.9,2-2v-28
		C73.5,41.4,72.6,40.5,71.5,40.5z"/>
	<path fill="#FFFFFF" d="M71.5,28.1h-1.4c-1.1,0-2,0.9-2,2v3.6c0,1.1,0.9,2,2,2h1.4c1.1,0,2-0.9,2-2v-3.6
		C73.5,29,72.6,28.1,71.5,28.1z"/>
</g>
</svg>
