<?xml version="1.0" encoding="utf-8"?>
<!-- Generator: Adobe Illustrator 16.0.4, SVG Export Plug-In . SVG Version: 6.00 Build 0)  -->
<!DOCTYPE svg PUBLIC "-//W3C//DTD SVG 1.1//EN" "http://www.w3.org/Graphics/SVG/1.1/DTD/svg11.dtd">
<svg version="1.1" id="Layer_1" xmlns="http://www.w3.org/2000/svg" xmlns:xlink="http://www.w3.org/1999/xlink" x="0px" y="0px"
	 width="110px" height="110px" viewBox="0 0 110 110" enable-background="new 0 0 110 110" xml:space="preserve">
<circle fill="#A5DBDB" cx="55" cy="55" r="45"/>
<g>
	<path fill="#FFFFFF" d="M51.779,65.825H35.408V35.139c0-0.983-0.805-1.789-1.79-1.789h-1.252c-0.984,0-1.789,0.806-1.789,1.789
		v33.729c0,0.983,0.805,1.789,1.789,1.789h19.503c0.984,0,1.79-0.806,1.79-1.789v-1.253C53.568,66.63,52.763,65.825,51.779,65.825z"
		/>
	<path fill="#FFFFFF" d="M78.261,36.481c-2.236-2.058-5.368-3.131-9.305-3.131H58.489c-0.984,0-1.789,0.806-1.789,1.789v33.729
		c0,0.983,0.805,1.789,1.789,1.789h1.252c0.984,0,1.789-0.806,1.789-1.789V56.163h7.516c3.936,0,7.067-1.074,9.304-3.131
		s3.4-4.92,3.4-8.32C81.66,41.401,80.497,38.539,78.261,36.481z M68.956,51.332h-7.515V38.181h7.515
		c2.684,0,4.742,0.626,5.994,1.878c1.253,1.252,1.879,2.773,1.879,4.742c0,1.879-0.626,3.399-1.879,4.652
		C73.698,50.706,71.729,51.332,68.956,51.332z"/>
</g>
</svg>
