<?xml version="1.0" encoding="utf-8"?>
<!-- Generator: Adobe Illustrator 16.0.4, SVG Export Plug-In . SVG Version: 6.00 Build 0)  -->
<!DOCTYPE svg PUBLIC "-//W3C//DTD SVG 1.1//EN" "http://www.w3.org/Graphics/SVG/1.1/DTD/svg11.dtd">
<svg version="1.1" id="Layer_1" xmlns="http://www.w3.org/2000/svg" xmlns:xlink="http://www.w3.org/1999/xlink" x="0px" y="0px"
	 width="61.7px" height="61.7px" viewBox="0 0 61.7 61.7" enable-background="new 0 0 61.7 61.7" xml:space="preserve">
<g>
	<g>
		<g>
			<g>
				<path fill="#FEC03F" d="M22.6,14v23.2c0,2.1,1.3,3.8,2.9,3.8V10.3C23.9,10.3,22.6,12,22.6,14z"/>
				<path fill="#F48252" d="M25.5,10.3V41c1.6,0,2.9-1.7,2.9-3.8V14C28.5,12,27.1,10.3,25.5,10.3z"/>
			</g>
			<g>
				<g>
					<path fill="#ED4052" d="M25.6,13.5C25.6,13.5,25.5,13.5,25.6,13.5L25.5,14c0.8,0.3,1.6,0.3,1.6,0.3S26.5,13.8,25.6,13.5z"/>
					<path fill="#ED4052" d="M25.6,17.5C25.6,17.5,25.5,17.5,25.6,17.5L25.5,18c0.8,0.3,1.6,0.3,1.6,0.3S26.5,17.8,25.6,17.5z"/>
					<path fill="#ED4052" d="M27.1,22.2c0,0-0.6-0.5-1.5-0.8c0,0-0.1,0-0.1,0v0.5C26.4,22.2,27.1,22.2,27.1,22.2z"/>
					<path fill="#ED4052" d="M27.1,26.2c0,0-0.6-0.5-1.5-0.8c0,0-0.1,0-0.1,0v0.5C26.4,26.2,27.1,26.2,27.1,26.2z"/>
					<path fill="#ED4052" d="M27.1,30.1c0,0-0.6-0.5-1.5-0.8c0,0-0.1,0-0.1,0v0.5C26.4,30.1,27.1,30.1,27.1,30.1z"/>
					<path fill="#ED4052" d="M27.1,34.1c0,0-0.6-0.5-1.5-0.8c0,0-0.1,0-0.1,0v0.5C26.4,34.1,27.1,34.1,27.1,34.1z"/>
					<path fill="#ED4052" d="M27.1,38c0,0-0.6-0.5-1.5-0.8c0,0-0.1,0-0.1,0v0.5C26.4,38,27.1,38,27.1,38z"/>
				</g>
				<g>
					<path fill="#F48252" d="M23.9,13.2c0,0,0.6,0.5,1.5,0.8c0,0,0.1,0,0.1,0v-0.5C24.7,13.2,23.9,13.2,23.9,13.2z"/>
					<path fill="#F48252" d="M23.9,17.2c0,0,0.6,0.5,1.5,0.8c0,0,0.1,0,0.1,0v-0.5C24.7,17.2,23.9,17.2,23.9,17.2z"/>
					<path fill="#F48252" d="M25.4,21.9C25.5,21.9,25.5,21.9,25.4,21.9l0.1-0.5c-0.8-0.3-1.6-0.3-1.6-0.3S24.6,21.6,25.4,21.9z"/>
					<path fill="#F48252" d="M25.4,25.9C25.5,25.9,25.5,25.9,25.4,25.9l0.1-0.5c-0.8-0.3-1.6-0.3-1.6-0.3S24.6,25.6,25.4,25.9z"/>
					<path fill="#F48252" d="M25.4,29.8C25.5,29.8,25.5,29.8,25.4,29.8l0.1-0.5c-0.8-0.3-1.6-0.3-1.6-0.3S24.6,29.5,25.4,29.8z"/>
					<path fill="#F48252" d="M25.4,33.8C25.5,33.8,25.5,33.8,25.4,33.8l0.1-0.5C24.7,33,23.9,33,23.9,33S24.6,33.5,25.4,33.8z"/>
					<path fill="#F48252" d="M25.4,37.7C25.5,37.7,25.5,37.7,25.4,37.7l0.1-0.5C24.7,37,23.9,37,23.9,37S24.6,37.4,25.4,37.7z"/>
				</g>
			</g>
		</g>
		<g>
			<g>
				<rect x="34.4" y="18" fill="#8CC669" width="0.6" height="12.7"/>
				<rect x="35" y="18" fill="#51B763" width="0.6" height="12.7"/>
			</g>
			<g>
				<path fill="#51B763" d="M32.8,26.5c0-2.1,0-6.7,0-6.7h-0.6v6.7c0,0.2,0,0.4,0,0.6c0,0.9-0.1,2.1,0.7,2.9
					c0.5,0.5,1.2,0.7,2.1,0.7v-0.6C32.3,30.1,32.8,27.8,32.8,26.5z"/>
				<path fill="#51B763" d="M33.7,29.1c-0.4-0.4-0.3-1.3-0.3-2c0-0.2,0-0.4,0-0.6v-6.7h-0.6c0,0,0,4.6,0,6.7c0,1.4-0.5,3.6,2.1,3.6
					v-0.6C34.4,29.5,34,29.3,33.7,29.1z"/>
			</g>
			<g>
				<path fill="#008F66" d="M34,27.3c0.4,0.4,1,0.3,1,0.3s0-0.6-0.3-1c-0.4-0.4-1-0.3-1-0.3S33.7,26.9,34,27.3z"/>
				<path fill="#008F66" d="M34,27.3c0.4,0.4,1,0.3,1,0.3l-1.3-1.3C33.7,26.3,33.7,26.9,34,27.3z"/>
			</g>
			<g>
				<path fill="#51B763" d="M35,13.8c0,0-0.5,0.8-0.7,1.2c-0.5-0.1-0.7,0-0.7,0s0.3,0.7,0.6,1c-0.4,0-1.1,0.1-1.1,0.1
					s0.5,0.8,0.7,1.1c-0.5,0.1-1.2,0.4-1.2,0.4c1.2,1,2.3,1.2,2.3,1.2V13.8z"/>
				<path fill="#008F66" d="M35,13.8c0,0,0.5,0.8,0.7,1.2c0.5-0.1,0.7,0,0.7,0s-0.3,0.7-0.6,1c0.5,0,1.1,0.1,1.1,0.1
					s-0.5,0.8-0.8,1.1c0.5,0.1,1.2,0.4,1.2,0.4c-1.2,1-2.3,1.2-2.3,1.2V13.8z"/>
			</g>
			<g>
				<path fill="#008F66" d="M37.8,27c0-0.2,0-0.4,0-0.6v-6.7h-0.6c0,0,0,4.6,0,6.7c0,1.4,0.5,3.6-2.1,3.6v0.6c0.9,0,1.7-0.3,2.1-0.7
					C37.9,29.2,37.8,28,37.8,27z"/>
				<path fill="#008F66" d="M37.1,26.5c0-2.1,0-6.7,0-6.7h-0.6v6.7c0,0.2,0,0.4,0,0.6c0,0.7,0.1,1.6-0.3,2c-0.2,0.2-0.6,0.4-1.2,0.4
					v0.6C37.7,30.1,37.1,27.8,37.1,26.5z"/>
			</g>
			<g>
				<path fill="#008F66" d="M37.1,15.9c0,0,0.5,0.8,0.7,1.2c0.5-0.1,0.7,0,0.7,0s-0.3,0.7-0.6,1c0.4,0,1.1,0.1,1.1,0.1
					s-0.5,0.8-0.7,1.1c0.5,0.1,1.2,0.4,1.2,0.4c-1.2,1-2.3,1.2-2.3,1.2V15.9z"/>
				<path fill="#51B763" d="M37.1,15.9c0,0-0.5,0.8-0.7,1.2c-0.5-0.1-0.7,0-0.7,0s0.3,0.7,0.6,1c-0.5,0-1.1,0.1-1.1,0.1
					s0.5,0.8,0.8,1.1c-0.5,0.1-1.2,0.4-1.2,0.4c1.2,1,2.3,1.2,2.3,1.2V15.9z"/>
			</g>
			<g>
				<path fill="#008F66" d="M32.8,15.9c0,0-0.5,0.8-0.7,1.2c-0.5-0.1-0.7,0-0.7,0s0.3,0.7,0.6,1c-0.5,0-1.1,0.1-1.1,0.1
					s0.5,0.8,0.8,1.1c-0.5,0.1-1.2,0.4-1.2,0.4c1.2,1,2.3,1.2,2.3,1.2V15.9z"/>
				<path fill="#008F66" d="M32.8,15.9c0,0,0.5,0.8,0.7,1.2c0.5-0.1,0.7,0,0.7,0s-0.3,0.7-0.6,1c0.4,0,1.1,0.1,1.1,0.1
					S34.2,19,34,19.3c0.5,0.1,1.2,0.4,1.2,0.4c-1.2,1-2.3,1.2-2.3,1.2V15.9z"/>
			</g>
			<g>
				<path fill="#008F66" d="M31.5,25c0.5,0.5,1.3,0.5,1.3,0.5s0-0.9-0.5-1.3c-0.5-0.5-1.3-0.5-1.3-0.5S31,24.5,31.5,25z"/>
				<path fill="#008F66" d="M31.5,25c0.5,0.5,1.3,0.5,1.3,0.5L31,23.6C31,23.6,31,24.5,31.5,25z"/>
			</g>
			<g>
				<path fill="#8CC669" d="M38.5,27.1c-0.5,0.5-1.3,0.5-1.3,0.5s0-0.9,0.5-1.3c0.5-0.5,1.3-0.5,1.3-0.5S39,26.7,38.5,27.1z"/>
				<path fill="#8CC669" d="M38.5,27.1c-0.5,0.5-1.3,0.5-1.3,0.5l1.8-1.8C39,25.8,39,26.7,38.5,27.1z"/>
			</g>
			<g>
				<path fill="#008F66" d="M33.8,22.6c-0.4,0.4-1,0.3-1,0.3s0-0.6,0.3-1c0.4-0.4,1-0.3,1-0.3S34.2,22.2,33.8,22.6z"/>
				<path fill="#008F66" d="M33.8,22.6c-0.4,0.4-1,0.3-1,0.3l1.3-1.3C34.1,21.6,34.2,22.2,33.8,22.6z"/>
			</g>
			<g>
				<path fill="#008F66" d="M36.3,23.6c-0.5,0.5-1.3,0.5-1.3,0.5s0-0.9,0.5-1.3c0.5-0.5,1.3-0.5,1.3-0.5S36.8,23.1,36.3,23.6z"/>
				<path fill="#8CC669" d="M36.3,23.6c-0.5,0.5-1.3,0.5-1.3,0.5l1.8-1.8C36.8,22.3,36.8,23.1,36.3,23.6z"/>
			</g>
			<g>
				<path fill="#51B763" d="M36.2,25.6c0.4,0.4,1,0.3,1,0.3s0-0.6-0.3-1c-0.4-0.4-1-0.3-1-0.3S35.8,25.3,36.2,25.6z"/>
				<path fill="#51B763" d="M36.2,25.6c0.4,0.4,1,0.3,1,0.3l-1.3-1.3C35.8,24.7,35.8,25.3,36.2,25.6z"/>
			</g>
			<g>
				<path fill="#51B763" d="M38.1,23.4c-0.4,0.4-1,0.3-1,0.3s0-0.6,0.3-1c0.4-0.4,1-0.3,1-0.3S38.5,23,38.1,23.4z"/>
				<path fill="#51B763" d="M38.1,23.4c-0.4,0.4-1,0.3-1,0.3l1.3-1.3C38.4,22.4,38.5,23,38.1,23.4z"/>
			</g>
			<g>
				<path fill="#51B763" d="M31.9,28.1c0.4,0.4,1,0.3,1,0.3s0-0.6-0.3-1c-0.4-0.4-1-0.3-1-0.3S31.5,27.8,31.9,28.1z"/>
				<path fill="#51B763" d="M31.9,28.1c0.4,0.4,1,0.3,1,0.3l-1.3-1.3C31.5,27.2,31.5,27.8,31.9,28.1z"/>
			</g>
		</g>
		<g>
			<rect x="30" y="16.2" fill="#3F302D" width="1.4" height="1.6"/>
			<path fill="#EDE8DA" d="M31.3,21H30v-3.2h0.9c0,0-0.1,1.7,0.3,3C31.3,20.8,31.3,20.9,31.3,21z"/>
			<path fill="#008DC5" d="M33.7,25.8H30V21h1.3C31.9,22.2,33.7,22.6,33.7,25.8z"/>
			<path fill="#3F302D" d="M33.2,33.8H30v-8h3.7c0,0.9-0.2,2-0.5,3.5C32.8,30.6,32.9,32.2,33.2,33.8z"/>
			<path fill="#C7235D" d="M33.1,40.1c-0.6,0.8-3.1,0.7-3.1,0.7v-7h3.2C33.5,36.3,34.2,38.8,33.1,40.1z"/>
			<rect x="28.6" y="16.2" fill="#5D3719" width="1.4" height="1.6"/>
			<path fill="#FFFFFF" d="M30,17.8V21h-1.3c0-0.1,0.1-0.1,0.1-0.2c0.4-1.3,0.3-3,0.3-3H30z"/>
			<path fill="#00B9B5" d="M30,21v4.8h-3.7c0-3.2,1.7-3.5,2.3-4.8H30z"/>
			<path fill="#5D3719" d="M30,25.8v8h-3.2c0.2-1.6,0.4-3.1,0-4.5c-0.4-1.5-0.5-2.6-0.5-3.5H30z"/>
			<path fill="#ED4052" d="M30,33.8v7c0,0-2.5,0.2-3.1-0.7c-1-1.3-0.4-3.8,0-6.3H30z"/>
			<circle fill="#8CC669" cx="28.4" cy="27.6" r="1.1"/>
			<circle fill="#51B763" cx="31.6" cy="28.1" r="0.9"/>
			<circle fill="#51B763" cx="30" cy="30.8" r="1"/>
			<path fill="#8CC669" d="M30,29.8C30,29.8,30,29.8,30,29.8c-0.6,0-1,0.4-1,1c0,0.5,0.4,1,1,1c0,0,0,0,0,0V29.8z"/>
		</g>
		<g>
			<g>
				<g>
					
						<rect x="22.4" y="18.4" transform="matrix(-0.9654 -0.2607 0.2607 -0.9654 38.8666 46.2904)" fill="#008F66" width="0.3" height="4.4"/>
					
						<rect x="20" y="20.3" transform="matrix(0.2613 -0.9653 0.9653 0.2613 -3.3705 36.5743)" fill="#008F66" width="4.4" height="0.3"/>
				</g>
				<g>
					
						<rect x="20.3" y="18.9" transform="matrix(0.7183 -0.6957 0.6957 0.7183 -8.9274 20.1589)" fill="#51B763" width="0.3" height="4.4"/>
					
						<rect x="18.4" y="20.7" transform="matrix(0.6961 0.718 -0.718 0.6961 21.2766 -8.4739)" fill="#51B763" width="4.4" height="0.3"/>
				</g>
				<g>
					
						<rect x="19.3" y="20.2" transform="matrix(-3.387880e-02 -0.9994 0.9994 -3.387880e-02 2.0763 42.6233)" fill="#008F66" width="4.7" height="0.3"/>
					
						<rect x="21.8" y="17.9" transform="matrix(0.9994 -3.546155e-02 3.546155e-02 0.9994 -0.706 0.7909)" fill="#008F66" width="0.3" height="4.7"/>
				</g>
				<g>
					
						<rect x="18.4" y="20.4" transform="matrix(-0.4541 -0.891 0.891 -0.4541 11.879 48.4703)" fill="#51B763" width="4.7" height="0.3"/>
					
						<rect x="20.9" y="18.1" transform="matrix(0.8905 -0.4549 0.4549 0.8905 -7.0019 11.8204)" fill="#51B763" width="0.3" height="4.7"/>
				</g>
				<g>
					
						<rect x="18.8" y="20.2" transform="matrix(-0.2502 -0.9682 0.9682 -0.2502 6.7514 46.0252)" fill="#51B763" width="4.7" height="0.3"/>
					
						<rect x="21.3" y="18" transform="matrix(0.9686 -0.2486 0.2486 0.9686 -4.3777 5.9807)" fill="#008F66" width="0.3" height="4.7"/>
				</g>
			</g>
			<g>
				<g>
					<path fill="#ED4052" d="M24.8,33.9l-3.1-12.1c1.2-0.3,2.1-0.6,3,1.3C25.9,25.6,24.8,33.9,24.8,33.9z"/>
					<path fill="#F48252" d="M24.8,33.9l-3.1-12.1c-1.2,0.3-2.1,0.5-2,2.6C19.9,27.1,24.8,33.9,24.8,33.9z"/>
				</g>
				<g>
					<g>
						<path fill="#C7235D" d="M23.7,25.1c-0.2,0.1-0.7,0.2-1.2,0.3c-0.1,0-0.1,0.1-0.1,0.1c0,0.1,0.1,0.1,0.1,0.1
							c0.3,0,0.5-0.1,0.7-0.1c0.2-0.1,0.4-0.1,0.6-0.2c0.1,0,0.1-0.1,0.1-0.2C23.8,25.1,23.7,25,23.7,25.1z"/>
						<path fill="#C7235D" d="M24.7,28.5c-0.3,0.2-0.5,0.2-0.8,0.2l-0.1,0c-0.1,0-0.1,0.1-0.1,0.1c0,0.1,0.1,0.1,0.1,0.1l0.1,0
							c0.2,0,0.3,0,0.5-0.1c0.1,0,0.3-0.1,0.5-0.2c0.1,0,0.1-0.1,0.1-0.2C24.8,28.4,24.7,28.4,24.7,28.5z"/>
						<path fill="#C7235D" d="M23.7,22.8c-0.1,0-0.2,0.1-0.2,0.1c-0.2,0.1-0.2,0.1-0.4,0.1c-0.1,0-0.1,0-0.2,0.1
							c0,0.1,0,0.1,0.1,0.2c0.1,0,0.2,0,0.3,0c0.1,0,0.1-0.1,0.2-0.1c0.1,0,0.1-0.1,0.2-0.1c0.1,0,0.1-0.1,0.1-0.2
							C23.9,22.8,23.8,22.8,23.7,22.8z"/>
					</g>
					<g>
						<path fill="#ED4052" d="M21.2,24.5c-0.1,0.1-0.3,0.1-0.5,0.1c-0.1,0-0.3,0.1-0.5,0.1c-0.1,0-0.1,0.1-0.1,0.2s0.1,0.1,0.2,0.1
							c0.2,0,0.3-0.1,0.5-0.1c0.1,0,0.2,0,0.3-0.1c0.1,0,0.2-0.1,0.3-0.1c0.1,0,0.1-0.1,0.1-0.2C21.3,24.5,21.2,24.4,21.2,24.5z"/>
						<path fill="#ED4052" d="M22.6,25.4c0,0-0.1,0-0.1,0c-0.1,0-0.1,0.1-0.1,0.1c0,0.1,0.1,0.1,0.1,0.1c0.1,0,0.1,0,0.2,0
							L22.6,25.4z"/>
						<path fill="#ED4052" d="M22.5,27.4c-0.2,0.1-0.4,0.2-0.9,0.2c-0.1,0-0.1,0.1-0.1,0.1c0,0.1,0.1,0.1,0.1,0.1
							c0.3,0,0.5-0.1,0.6-0.1c0.2,0,0.3-0.1,0.4-0.2c0.1,0,0.1-0.1,0.1-0.2C22.6,27.4,22.5,27.4,22.5,27.4z"/>
						<path fill="#ED4052" d="M23,31.2c0.1,0,0.1,0,0.2,0c0.1,0,0.2,0,0.2,0c0.1,0,0.2-0.1,0.3-0.1c0.1,0,0.1-0.1,0-0.2
							s-0.1-0.1-0.2,0c-0.1,0.1-0.2,0.1-0.4,0.1c-0.1,0-0.2,0-0.3,0c0,0,0,0-0.1,0C22.9,31.1,22.9,31.1,23,31.2z"/>
					</g>
				</g>
			</g>
		</g>
		<g>
			<path fill="#C7235D" d="M39.1,23.8c0,0,2.5-2.6,3.6,0c1.2,3-1.7,6.7-3.6,4.9V23.8z"/>
			<path fill="#ED4052" d="M39.1,23.8c0,0-2.5-2.6-3.6,0c-1.2,3,1.7,6.7,3.6,4.9V23.8z"/>
			<path fill="#3F302D" d="M39.1,23.8c0,0,0-0.2,0-0.6s0.1-0.8,0.3-1.3c0.1-0.1,0.1-0.2,0.2-0.3c0.1-0.1,0.1-0.2,0.2-0.3
				c0.1-0.1,0.2-0.2,0.3-0.2c0.1-0.1,0.2-0.1,0.3-0.2c0.1,0,0.2-0.1,0.2-0.1c0.1,0,0.1-0.1,0.2-0.1c0.1,0,0.2-0.1,0.2-0.1l0.1,0.9
				c0,0,0,0-0.1,0c0,0-0.1,0-0.1,0c-0.1,0-0.1,0-0.2,0c-0.1,0-0.1,0-0.2,0.1c-0.1,0-0.1,0.1-0.2,0.1c-0.1,0-0.1,0.1-0.2,0.2
				c-0.1,0.1-0.1,0.1-0.2,0.2c-0.3,0.3-0.5,0.7-0.6,1C39.1,23.6,39.1,23.8,39.1,23.8z"/>
		</g>
		<g>
			<polygon fill="#FEC03F" points="38.7,27.9 38.7,51.4 19.9,51.4 19.9,26.1 22,27.9 24.1,26.1 26.1,27.9 28.2,26.1 30.3,27.9 
				32.4,26.1 34.5,27.9 36.6,26.1 			"/>
			<polygon fill="#F48252" points="42.9,27.9 42.9,51.4 38.7,51.4 38.7,27.9 40.8,26.1 			"/>
		</g>
	</g>
</g>
</svg>
