<svg xmlns="http://www.w3.org/2000/svg" width="110" height="110" viewBox="0 0 110 110"><circle fill="#a5dbdb" cx="55" cy="55" r="50.3"/><g fill="#FFF"><path d="M52.5 30.8h-1.4c-1.1 0-2 .9-2 2v28.8L28.5 31.7c-.4-.5-1-.9-1.6-.9h-1.4c-1.1 0-2 .9-2 2v37.7c0 1.1.9 2 2 2h1.4c1.1 0 2-.9 2-2V41.6l20.7 30c.4.5 1 .9 1.6.9h1.4c1.1 0 2-.9 2-2V32.8c-.1-1.1-1-2-2.1-2zM90.7 69.5l-14-37.4c-.3-.8-1-1.3-1.9-1.3h-1.7c-.8 0-1.6.5-1.9 1.3l-14 37.7c-.2.6-.1 1.3.2 1.8.4.5 1 .9 1.6.9h1.5c.8 0 1.6-.5 1.9-1.3l3.7-10h15.6l3.7 10c.3.8 1 1.3 1.9 1.3h1.5c1.1 0 2-.9 2-2 .1-.4 0-.7-.1-1zM68.2 55.8L74 40.4l5.8 15.5H68.2z"/></g></svg>