<?xml version="1.0" encoding="utf-8"?>
<!-- Generator: Adobe Illustrator 16.0.4, SVG Export Plug-In . SVG Version: 6.00 Build 0)  -->
<!DOCTYPE svg PUBLIC "-//W3C//DTD SVG 1.1//EN" "http://www.w3.org/Graphics/SVG/1.1/DTD/svg11.dtd">
<svg version="1.1" id="Layer_1" xmlns="http://www.w3.org/2000/svg" xmlns:xlink="http://www.w3.org/1999/xlink" x="0px" y="0px"
	 width="110px" height="110px" viewBox="0 0 110 110" enable-background="new 0 0 110 110" xml:space="preserve">
<circle fill="#A5DBDB" cx="55" cy="55" r="45"/>
<g>
	<path fill="#FFFFFF" d="M56.521,34.155c-0.358-0.447-0.896-0.806-1.432-0.806h-1.342c-0.716,0-1.432,0.447-1.7,1.163L41.76,62.246
		L31.471,34.513c-0.269-0.716-0.895-1.163-1.7-1.163h-1.342c-0.626,0-1.163,0.269-1.431,0.806c-0.358,0.447-0.447,1.073-0.179,1.61
		l12.615,33.728c0.268,0.716,0.895,1.163,1.7,1.163h1.342c0.715,0,1.432-0.447,1.7-1.163l12.614-33.728
		C56.969,35.229,56.878,34.603,56.521,34.155z"/>
	<path fill="#FFFFFF" d="M83.271,67.973l-12.525-33.46c-0.269-0.716-0.895-1.163-1.699-1.163h-1.521c-0.716,0-1.432,0.447-1.7,1.163
		L53.211,68.24c-0.179,0.537-0.09,1.163,0.179,1.61c0.358,0.447,0.895,0.806,1.431,0.806h1.342c0.715,0,1.432-0.447,1.7-1.163
		l3.31-8.946h13.956l3.311,8.946c0.269,0.716,0.895,1.163,1.699,1.163h1.342l0,0c0.985,0,1.79-0.806,1.79-1.789
		C83.449,68.509,83.36,68.24,83.271,67.973z M63.141,55.716l5.189-13.867l5.189,13.867H63.141z"/>
</g>
</svg>
