<?xml version="1.0" encoding="utf-8"?>
<!-- Generator: Adobe Illustrator 16.0.4, SVG Export Plug-In . SVG Version: 6.00 Build 0)  -->
<!DOCTYPE svg PUBLIC "-//W3C//DTD SVG 1.1//EN" "http://www.w3.org/Graphics/SVG/1.1/DTD/svg11.dtd">
<svg version="1.1" id="Layer_1" xmlns="http://www.w3.org/2000/svg" xmlns:xlink="http://www.w3.org/1999/xlink" x="0px" y="0px"
	 width="110px" height="110px" viewBox="0 0 110 110" enable-background="new 0 0 110 110" xml:space="preserve">
<g id="label_1_">
	<circle fill="#6E5296" cx="55" cy="55" r="50.3"/>
</g>
<path fill-rule="evenodd" clip-rule="evenodd" fill="#FFFFFF" d="M57.5,61.4c0,5.9-0.1,11.2,0.1,16.6c0,0.7,1,1.4,1.8,2.6
	c-1.2,2.4-2.6,5.3-4,8.2c-0.2,0-0.4,0-0.6,0C53.4,86,52,83.1,50.5,80c2.2-0.4,2.2-1.8,2.1-3.2c0-4.8,0-9.7,0-14.9
	c-0.8,0.4-1.3,0.7-1.8,1c-4.2,2.8-8.4,5.6-12.7,8.3c-1.2,0.7-1.9,1.5-0.9,3.2c-3.6,0.6-6.9,1.2-10.2,1.8c-0.1-0.2-0.3-0.3-0.4-0.5
	c1.7-2.7,3.4-5.4,5.2-8.3c0.7,0.4,1.2,0.8,1.9,1.2C39.3,64.8,45,61.1,51,57.2c-2.5-1.7-4.8-3.2-7.1-4.7c-2.8-1.8-5.6-3.7-8.4-5.6
	c-1.1-0.8-2.1-1.5-3.4,0.3c-1.9-3-3.7-5.8-5.4-8.6c0.1-0.2,0.3-0.3,0.4-0.5c3.3,0.6,6.6,1.2,10.1,1.8c-0.2,0.9-0.3,1.5-0.5,2.1
	c5.2,3.5,10.4,6.9,16,10.6c0-1.9,0-3.4,0-5c0-4.5,0-9,0-13.5c0-1.3,0.1-2.7-2.2-2.8c1.6-3.2,2.9-6.1,4.7-9.6
	c1.7,3.5,3.1,6.3,4.6,9.4c-2.2,0.4-2.2,1.8-2.2,3.4c0.1,5.9,0,11.8,0,18.1c1.3-0.9,2.4-1.5,3.4-2.2c3.6-2.4,7.3-4.8,10.9-7.2
	c1.1-0.7,2.4-1.3,1-3.2c3.6-0.6,7-1.2,10.3-1.8c0.1,0.2,0.3,0.3,0.4,0.5c-1.7,2.7-3.4,5.5-5.2,8.4c-1.7-1.8-2.9-0.6-4.1,0.2
	c-4.8,3.2-9.6,6.4-14.7,9.7c2.2,1.5,4.2,2.8,6.2,4.1c2.7,1.8,5.5,3.6,8.2,5.4c1,0.7,2,1.7,3.1-0.6c2,3.2,3.8,6,5.5,8.8
	c-0.1,0.2-0.2,0.3-0.4,0.5c-3.3-0.6-6.6-1.1-10.2-1.8c1-1.7,0.2-2.4-1-3.2C66.6,67.5,62.3,64.6,57.5,61.4z"/>
</svg>
