<svg xmlns="http://www.w3.org/2000/svg" width="110" height="110" viewBox="0 0 110 110"><circle fill="#a5dbdb" cx="55" cy="55" r="50.3"/><g fill="#FFF"><path d="M64.5 30.8H63c-.8 0-1.6.5-1.9 1.3l-11.5 31-11.6-31c-.3-.8-1-1.3-1.9-1.3h-1.5c-.7 0-1.3.3-1.6.9-.4.5-.5 1.2-.2 1.8l14.1 37.7c.3.8 1 1.3 1.9 1.3h1.7c.8 0 1.6-.5 1.9-1.3l14.1-37.7c.2-.6.1-1.3-.2-1.8-.6-.6-1.2-.9-1.8-.9zM71.5 40.5h-1.4c-1.1 0-2 .9-2 2v28c0 1.1.9 2 2 2h1.4c1.1 0 2-.9 2-2v-28c0-1.1-.9-2-2-2zM71.5 28.1h-1.4c-1.1 0-2 .9-2 2v3.6c0 1.1.9 2 2 2h1.4c1.1 0 2-.9 2-2v-3.6c0-1.1-.9-2-2-2z"/></g></svg>