<?xml version="1.0" encoding="utf-8"?>
<!-- Generator: Adobe Illustrator 16.0.4, SVG Export Plug-In . SVG Version: 6.00 Build 0)  -->
<!DOCTYPE svg PUBLIC "-//W3C//DTD SVG 1.1//EN" "http://www.w3.org/Graphics/SVG/1.1/DTD/svg11.dtd">
<svg version="1.1" id="Layer_1" xmlns="http://www.w3.org/2000/svg" xmlns:xlink="http://www.w3.org/1999/xlink" x="0px" y="0px"
	 width="61.7px" height="61.7px" viewBox="0 0 61.7 61.7" enable-background="new 0 0 61.7 61.7" xml:space="preserve">
<g>
	<g>
		<g>
			<rect x="38.6" y="45.3" fill="#3F302D" width="5.6" height="6.2"/>
			<rect x="17.5" y="45.3" fill="#5D3719" width="5.6" height="6.2"/>
		</g>
		<g>
			<g>
				<path fill="#3F302D" d="M50.7,28.1h-2.5c-0.3,0-0.6-0.3-0.6-0.6v-6.9c0-0.3,0.3-0.6,0.6-0.6h2.5c0.3,0,0.6,0.3,0.6,0.6v6.9
					C51.3,27.9,51,28.1,50.7,28.1z"/>
				<g>
					<polygon fill="#3F302D" points="49.7,20.4 49.2,20.4 49.2,17.3 45.4,15.4 45.7,14.9 49.7,16.9 					"/>
				</g>
			</g>
			<g>
				<path fill="#5D3719" d="M11,28.1h2.5c0.3,0,0.6-0.3,0.6-0.6v-6.9c0-0.3-0.3-0.6-0.6-0.6H11c-0.3,0-0.6,0.3-0.6,0.6v6.9
					C10.4,27.9,10.7,28.1,11,28.1z"/>
				<g>
					<polygon fill="#5D3719" points="12.5,20.4 12,20.4 12,16.9 16,14.9 16.3,15.4 12.5,17.3 					"/>
				</g>
			</g>
		</g>
		<g>
			<path fill="#F48252" d="M40.1,47.7h-9.3V10.3h9.3c3.1,0,5.7,2.6,5.7,5.7v26C45.8,45.2,43.3,47.7,40.1,47.7z"/>
			<path fill="#FEC03F" d="M21.6,47.7h9.3V10.3h-9.3c-3.1,0-5.7,2.6-5.7,5.7v26C15.9,45.2,18.4,47.7,21.6,47.7z"/>
		</g>
		<g>
			<path fill="#EDE8DA" d="M43.3,44l-5,1c-0.3,0.1-0.5-0.1-0.4-0.4l0.6-2.4c0.1-0.3,0.4-0.6,0.7-0.7l5-1.3c0.3-0.1,0.5,0.1,0.4,0.4
				L44,43.3C43.9,43.6,43.6,43.9,43.3,44z"/>
			<path fill="#FFFFFF" d="M18.4,44l5,1c0.3,0.1,0.5-0.1,0.4-0.4L23.3,42c-0.1-0.3-0.4-0.6-0.7-0.7l-5-1.3c-0.3-0.1-0.5,0.1-0.4,0.4
				l0.5,2.8C17.8,43.6,18.1,43.9,18.4,44z"/>
		</g>
		<path fill="#C7235D" d="M35.1,14.4h-4.2v-2.3h4.2c0.9,0,1.7,0.5,1.7,1.1C36.8,13.9,36,14.4,35.1,14.4z"/>
		<path fill="#ED4052" d="M26.6,14.4h4.2v-2.3h-4.2c-0.9,0-1.7,0.5-1.7,1.1C24.9,13.9,25.7,14.4,26.6,14.4z"/>
		<g>
			<polygon fill="#3F302D" points="36.2,47.7 30.9,47.7 30.9,45.5 35.1,45.5 			"/>
			<polygon fill="#5D3719" points="25.5,47.7 30.9,47.7 30.9,45.5 26.6,45.5 			"/>
		</g>
		<g>
			<g>
				<g>
					<rect x="30.9" y="43.2" fill="#3F302D" width="5" height="0.6"/>
				</g>
				<g>
					<rect x="30.9" y="41.5" fill="#3F302D" width="5.6" height="0.6"/>
				</g>
			</g>
			<g>
				<g>
					<rect x="25.9" y="43.2" fill="#5D3719" width="5" height="0.6"/>
				</g>
				<g>
					<rect x="25.3" y="41.5" fill="#5D3719" width="5.6" height="0.6"/>
				</g>
			</g>
		</g>
		<g>
			<g>
				<path fill="#3F302D" d="M43.8,18.5H30.9V16H41C42.4,16,43.6,17.1,43.8,18.5z"/>
				<path fill="#5D3719" d="M17.9,18.5h12.9V16H20.7C19.3,16,18.1,17.1,17.9,18.5z"/>
			</g>
			<g>
				<path fill="#00B9B5" d="M43.8,18.5H30.9H17.9c0,0.1,0,0.2,0,0.4v12.7c4.8,3.6,21.1,3.6,25.9,0V18.8
					C43.8,18.7,43.8,18.6,43.8,18.5z"/>
				<path fill="#008DC5" d="M43.8,18.5H30.9v15.8c5.3,0,10.5-0.9,13-2.7V18.8C43.8,18.7,43.8,18.6,43.8,18.5z"/>
			</g>
			<g>
				<path fill="#5D3719" d="M17.9,31.6v2.3c4.8,3.6,21.1,3.6,25.9,0v-2.3C39,35.1,22.7,35.1,17.9,31.6z"/>
				<path fill="#3F302D" d="M30.9,36.5c5.3,0,10.5-0.9,13-2.7v-2.3c-2.4,1.8-7.7,2.7-13,2.7V36.5z"/>
			</g>
		</g>
	</g>
</g>
</svg>
