<svg xmlns="http://www.w3.org/2000/svg" width="110" height="110" viewBox="0 0 110 110"><circle fill="#a5dbdb" cx="55" cy="55" r="50.3"/><g fill="#FFF"><path d="M44.5 32.1c-.3-.8-1-1.3-1.9-1.3H41c-.8 0-1.6.5-1.9 1.3L25 69.8c-.2.6-.1 1.3.2 1.8.4.5 1 .9 1.6.9h1.5c.8 0 1.6-.5 1.9-1.3l3.7-10h15.6l3.7 10c.3.8 1 1.3 1.9 1.3h1.5c1.1 0 2-.9 2-2 0-.3-.1-.7-.2-1L44.5 32.1zM36 55.8l5.8-15.5 5.8 15.5H36zM79.4 56.8c-1.9-1.4-4.4-2.5-7.9-3.3-4-.9-5.4-1.8-5.9-2.2-.7-.7-1.1-1.4-1.1-2.3 0-.6.1-1.4 1.3-2.4 1-.8 2.5-1.2 4.7-1.2 2.1 0 3.8.5 5 1.5 1.1.9 1.6 1.9 1.6 3.1 0 1.1.9 2 2 2h1.2c.9 0 1.6-.6 1.9-1.4l.1-.2c.1-.2.1-.4.1-.6.1-2.9-1-5.5-3.3-7.3-2.1-1.7-5-2.6-8.6-2.6-3.3 0-6 .8-8.1 2.5-2.1 1.7-3.3 4-3.3 6.6 0 3.5 1.7 5.5 3 6.6 1.7 1.3 4.4 2.3 8 3.1 3.5.8 5 1.7 5.7 2.3.9.8 1.3 1.7 1.3 2.6 0 .6-.2 1.5-1.5 2.6-1.1.9-2.8 1.4-4.9 1.4-2 0-3.8-.4-5.3-1.2-1.2-.7-1.7-1.6-1.8-3.2-.1-1.1-.9-1.9-2-1.9h-1.1c-.9 0-1.6.6-1.9 1.4l-.1.2c-.1.2-.1.3-.1.5-.2 2.7 1 5.2 3.4 7C64 72.1 67 73 70.7 73c3.4 0 6.2-.8 8.3-2.5 2.3-1.7 3.5-4.1 3.5-6.9.1-2.8-1-5.1-3.1-6.8z"/></g></svg>