<?xml version="1.0" encoding="utf-8"?>
<!-- Generator: Adobe Illustrator 16.0.4, SVG Export Plug-In . SVG Version: 6.00 Build 0)  -->
<!DOCTYPE svg PUBLIC "-//W3C//DTD SVG 1.1//EN" "http://www.w3.org/Graphics/SVG/1.1/DTD/svg11.dtd">
<svg version="1.1" id="Layer_1" xmlns="http://www.w3.org/2000/svg" xmlns:xlink="http://www.w3.org/1999/xlink" x="0px" y="0px"
	 width="110px" height="110px" viewBox="0 0 110 110" enable-background="new 0 0 110 110" xml:space="preserve">
<g id="label_1_">
	<circle fill="#239776" cx="55" cy="55" r="50.3"/>
</g>
<g>
	<g>
		<g>
			<path fill="#FEC03F" d="M94.952,65.068c0,7.884-9.664,14.371-21.491,14.371c-11.824,0-21.49-6.487-21.49-14.371
				c0-7.883,9.666-14.369,21.49-14.369C85.415,50.7,94.952,57.057,94.952,65.068z"/>
			<g>
				<path fill="#F48252" d="M94.952,65.068c0,7.884-9.664,14.371-21.491,14.371V50.7C85.415,50.7,94.952,57.057,94.952,65.068z"/>
				<polygon fill="#F48252" points="87.958,74.479 90.118,83.507 81.854,76.896 				"/>
			</g>
			<g>
				<path fill="#7F2F8E" d="M66.85,67.612c0-1.272,0.889-2.29,2.16-2.29c1.272,0,2.164,0.892,2.164,2.29
					c0,1.271-0.766,2.289-2.164,2.289C67.738,69.901,66.85,68.884,66.85,67.612z"/>
				<path fill="#4F3C8D" d="M73.97,67.612c0-1.272,0.89-2.29,2.161-2.29s2.036,0.892,2.163,2.29c0,1.271-0.892,2.289-2.163,2.289
					S73.97,68.884,73.97,67.612z"/>
				<path fill="#4F3C8D" d="M81.217,67.612c0-1.272,0.893-2.29,2.164-2.29s2.16,0.892,2.16,2.29c0,1.271-0.763,2.289-2.16,2.289
					C81.982,69.901,81.217,68.884,81.217,67.612z"/>
			</g>
		</g>
		<g>
			<g>
				<ellipse fill="#FFFFFF" cx="44.469" cy="49.047" rx="27.721" ry="20.854"/>
				<polygon fill="#FFFFFF" points="24.377,60.364 21.326,73.717 29.591,66.594 				"/>
			</g>
			<path fill="#EDE8DA" d="M72.316,49.047c0,11.571-12.461,20.854-27.72,20.854V28.192C59.855,28.192,72.316,37.475,72.316,49.047z"
				/>
			<g>
				<path fill="#7F2F8E" d="M42.18,54.261l-0.127-0.891c-0.254-1.907,0.381-4.069,2.162-6.231c1.653-1.907,2.543-3.306,2.543-4.832
					c0-1.781-1.145-3.053-3.434-3.053c-1.272,0-2.671,0.382-3.561,1.145l-0.89-2.289c1.144-0.89,3.179-1.399,5.086-1.399
					c4.069,0,5.977,2.543,5.977,5.214c0,2.416-1.399,4.197-3.052,6.23c-1.525,1.908-2.161,3.434-2.034,5.214v0.891H42.18z
					 M41.417,59.22c0-1.271,0.891-2.29,2.162-2.29s2.162,0.892,2.162,2.29c0,1.271-0.763,2.161-2.162,2.161
					C42.18,61.507,41.417,60.491,41.417,59.22z"/>
			</g>
			<g>
				<path fill="#4F3C8D" d="M44.469,36.585v2.669c1.526,0.382,2.29,1.399,2.29,2.925c0,1.525-0.891,2.924-2.29,4.705v7.376h0.509
					V53.37c-0.127-1.78,0.509-3.433,2.035-5.214c1.653-2.034,3.052-3.814,3.052-6.23C50.064,39.255,48.284,36.839,44.469,36.585z"/>
				<path fill="#4F3C8D" d="M45.613,59.22c0-0.892-0.509-1.654-1.145-2.034v3.941C45.232,60.871,45.613,60.109,45.613,59.22z"/>
			</g>
		</g>
	</g>
</g>
</svg>
