<svg xmlns="http://www.w3.org/2000/svg" width="110" height="110" viewBox="0 0 110 110"><circle fill="#a5dbdb" cx="55" cy="55" r="50.3"/><g fill="#FFF"><path d="M55.7 49.3c0-5.3-1.7-9.8-5.1-13.3-3.4-3.5-7.6-5.3-12.5-5.3H26.9c-1.1 0-2 .9-2 2v37.7c0 1.1.9 2 2 2h11.2c4.9 0 9.1-1.8 12.4-5.2 3.4-3.5 5.1-7.9 5.1-13.3v-4.6zM38.1 67.1h-7.8V36.2h7.8c3.4 0 6.2 1.2 8.6 3.7 2.4 2.5 3.6 5.6 3.6 9.4V54c0 3.9-1.2 6.9-3.6 9.4-2.4 2.5-5.2 3.7-8.6 3.7zM89.2 69.5l-14-37.4c-.3-.8-1-1.3-1.9-1.3h-1.7c-.8 0-1.6.5-1.9 1.3L55.6 69.8c-.2.6-.1 1.3.2 1.8.4.5 1 .9 1.6.9H59c.8 0 1.6-.5 1.9-1.3l3.7-10h15.6l3.7 10c.3.8 1 1.3 1.9 1.3h1.5c1.1 0 2-.9 2-2 .1-.4 0-.7-.1-1zM66.6 55.8l5.8-15.5 5.8 15.5H66.6z"/></g></svg>