<?xml version="1.0" encoding="utf-8"?>
<!-- Generator: Adobe Illustrator 16.0.4, SVG Export Plug-In . SVG Version: 6.00 Build 0)  -->
<!DOCTYPE svg PUBLIC "-//W3C//DTD SVG 1.1//EN" "http://www.w3.org/Graphics/SVG/1.1/DTD/svg11.dtd">
<svg version="1.1" id="Layer_1" xmlns="http://www.w3.org/2000/svg" xmlns:xlink="http://www.w3.org/1999/xlink" x="0px" y="0px"
	 width="61.7px" height="61.7px" viewBox="0 0 61.7 61.7" enable-background="new 0 0 61.7 61.7" xml:space="preserve">
<g>
	<g>
		<g>
			<path fill="#ED4052" d="M30.9,20.5v28c-7.5-5.5-13.2-10-16.4-15.4C6.4,19.8,23.5,8,30.9,20.5z"/>
		</g>
		<g>
			<path fill="#C7235D" d="M30.9,20.5v28c7.5-5.5,13.2-10,16.4-15.4C55.4,19.8,38.3,8,30.9,20.5z"/>
		</g>
		<g>
			<polygon fill="#FFFFFF" points="27.7,30 25.3,30 23.3,32.1 23.3,25.8 19.7,30 10.3,30 10.3,31 20.2,31 22.2,28.5 22.2,34.6 
				25.8,31 28.3,31 30.9,26.5 30.9,41.3 30.9,41.3 30.9,24.4 			"/>
			<polygon fill="#EDE8DA" points="48.8,30 42.1,30 40.7,31.9 40.7,25.4 37.7,30 34.4,30 31.9,36.2 31.9,22.6 30.9,24.4 30.9,41.3 
				35.1,31 38.3,31 39.7,28.9 39.7,34.9 42.6,31 48.4,31 51.4,31 51.4,30 			"/>
		</g>
	</g>
</g>
</svg>
