<?xml version="1.0" encoding="utf-8"?>
<!-- Generator: Adobe Illustrator 16.0.4, SVG Export Plug-In . SVG Version: 6.00 Build 0)  -->
<!DOCTYPE svg PUBLIC "-//W3C//DTD SVG 1.1//EN" "http://www.w3.org/Graphics/SVG/1.1/DTD/svg11.dtd">
<svg version="1.1" id="Layer_1" xmlns="http://www.w3.org/2000/svg" xmlns:xlink="http://www.w3.org/1999/xlink" x="0px" y="0px"
	 width="110px" height="110px" viewBox="0 0 110 110" enable-background="new 0 0 110 110" xml:space="preserve">
	<circle fill="#a5dbdb" cx="55" cy="55" r="50.3"/>

<g>
	<path fill="#FFFFFF" d="M33.4,39.1c1.9-2.3,4.2-3.4,7.3-3.4c3.1,0,5.6,0.8,7.3,2.3c1.7,1.5,2.5,3.5,2.5,6.4c0,1.1,0.9,2,2,2h1.2
		c0.9,0,1.6-0.6,1.9-1.4l0.1-0.2c0.1-0.2,0.1-0.4,0.1-0.6c0.1-4.4-1.3-7.9-4.2-10.3c-2.8-2.4-6.4-3.6-10.8-3.6
		c-4.7,0-8.6,1.8-11.5,5.3c-2.8,3.4-4.2,7.9-4.2,13.2v5.6c0,5.4,1.4,9.9,4.2,13.3C32.1,71.2,36,73,40.7,73c4.4,0,8-1.2,10.8-3.5
		c2.9-2.4,4.3-5.9,4.2-10.4c0-0.2,0-0.4-0.1-0.6l-0.1-0.2c-0.3-0.8-1-1.4-1.9-1.4h-1.2c-1.1,0-2,0.9-2,2c0,3-0.8,5.1-2.5,6.5
		c-1.7,1.5-4.2,2.2-7.3,2.2c-3.1,0-5.5-1.1-7.3-3.4c-1.9-2.4-2.9-5.7-2.9-9.7v-5.7C30.5,44.8,31.4,41.5,33.4,39.1z"/>
	<path fill="#FFFFFF" d="M82.5,44.6c-2.7-3-6.1-4.6-10.4-4.6c-4.2,0-7.7,1.5-10.3,4.6c-2.6,3-3.9,6.8-3.9,11.4V57
		c0,4.6,1.3,8.4,3.9,11.4c2.7,3,6.2,4.6,10.4,4.6c4.2,0,7.7-1.5,10.3-4.6c2.6-3,3.9-6.8,3.9-11.4v-1.1
		C86.4,51.4,85.1,47.5,82.5,44.6z M78.5,64.7c-1.6,2-3.6,2.9-6.3,2.9c-2.7,0-4.8-1-6.4-2.9c-1.7-2.1-2.5-4.6-2.5-7.7v-1.1
		c0-3,0.8-5.5,2.5-7.6c1.6-2,3.6-3,6.3-3c2.7,0,4.7,1,6.3,3c1.7,2.1,2.5,4.6,2.5,7.6V57C81,60.1,80.2,62.6,78.5,64.7z"/>
</g>
</svg>
