<?xml version="1.0" encoding="utf-8"?>
<!-- Generator: Adobe Illustrator 16.0.4, SVG Export Plug-In . SVG Version: 6.00 Build 0)  -->
<!DOCTYPE svg PUBLIC "-//W3C//DTD SVG 1.1//EN" "http://www.w3.org/Graphics/SVG/1.1/DTD/svg11.dtd">
<svg version="1.1" id="Layer_1" xmlns="http://www.w3.org/2000/svg" xmlns:xlink="http://www.w3.org/1999/xlink" x="0px" y="0px"
	 width="61.7px" height="61.7px" viewBox="0 0 61.7 61.7" enable-background="new 0 0 61.7 61.7" xml:space="preserve">
<g>
	<g>
		<g>
			<path fill="#3F302D" d="M18.5,30.5v8.8c3.7,3.7,9,4.2,12.3,4.2v-13H18.5z"/>
			<path fill="#3F302D" d="M30.9,30.5v13c3.3,0,8.7-0.5,12.3-4.2v-8.8H30.9z"/>
			<path opacity="0.3" d="M30.9,30.5v13c3.3,0,8.7-0.5,12.3-4.2v-8.8H30.9z"/>
		</g>
		<polygon points="30.9,38.6 43.2,32.6 43.2,30.5 30.9,30.5 18.5,30.5 18.5,32.6 		"/>
		<g>
			<polygon fill="#5D3719" points="30.9,17.7 30.9,37.5 10.3,27.6 			"/>
			<polygon fill="#3F302D" points="51.4,27.6 30.9,37.5 30.9,17.7 			"/>
		</g>
		<g>
			<polygon fill="#FEC03F" points="41.5,38.7 40.8,38.7 40.8,32.8 30.8,28 30.9,27.2 41.5,32.3 			"/>
		</g>
		<g>
			<g>
				<polygon fill="#FEC03F" points="43.2,44.1 41.2,44.1 41.2,38.7 				"/>
				<polygon fill="#FEC03F" points="39.1,44.1 41.2,44.1 41.2,38.7 				"/>
			</g>
			<g>
				<path fill="#FEC03F" d="M42.6,38.3c0,0.8-0.7,1.5-1.5,1.5c-0.8,0-1.5-0.7-1.5-1.5c0-0.8,0.7-1.5,1.5-1.5
					C42,36.9,42.6,37.5,42.6,38.3z"/>
				<path fill="#FEC03F" d="M41.2,39.8c-0.8,0-1.5-0.7-1.5-1.5c0-0.8,0.7-1.5,1.5-1.5V39.8z"/>
			</g>
		</g>
	</g>
</g>
</svg>
