<?xml version="1.0" encoding="utf-8"?>
<!-- Generator: Adobe Illustrator 16.0.4, SVG Export Plug-In . SVG Version: 6.00 Build 0)  -->
<!DOCTYPE svg PUBLIC "-//W3C//DTD SVG 1.1//EN" "http://www.w3.org/Graphics/SVG/1.1/DTD/svg11.dtd">
<svg version="1.1" id="Layer_1" xmlns="http://www.w3.org/2000/svg" xmlns:xlink="http://www.w3.org/1999/xlink" x="0px" y="0px"
	 width="500px" height="500px" viewBox="0 0 500 500" enable-background="new 0 0 500 500" xml:space="preserve">
<path fill="#33B5BA" d="M250,2.5C113.5,2.5,2.5,113.5,2.5,250s111,247.5,247.5,247.5s247.5-111,247.5-247.5S386.5,2.5,250,2.5
	L250,2.5z"/>
<g>
	<path fill="#FFFFFF" d="M257.2,91.4c26.9,0,48.4,6.5,64.2,19.4c15.9,12.9,23.8,30.2,23.8,51.8c0,14.4-3.3,26.8-9.8,37.3
		c-6.5,10.5-19,22.2-37.3,35.3c-12.6,9.3-20.5,16.3-23.8,21.2c-3.3,4.8-5,11.2-5,19v11.8h-52v-14.5c0-12.6,2.7-23.5,8-32.8
		c5.4-9.3,15.2-19.2,29.4-29.6c13.7-9.8,22.8-17.8,27.2-23.9c4.4-6.1,6.6-13,6.6-20.6c0-8.5-3.1-15-9.4-19.4
		c-6.3-4.4-15-6.7-26.3-6.7c-19.6,0-42,6.4-67.1,19.2l-21.4-43C193.6,99.5,224.5,91.4,257.2,91.4 M245.6,320.9
		c10.9,0,19.3,2.9,25.2,8.6c5.9,5.8,8.9,14,8.9,24.7c0,10.3-3,18.5-9,24.4c-6,5.9-14.4,8.9-25.1,8.9c-11,0-19.5-2.9-25.5-8.7
		c-6-5.8-9-14-9-24.6c0-11,2.9-19.3,8.8-24.9C225.8,323.7,234.4,320.9,245.6,320.9 M257.2,81.8c-34.2,0-67,8.7-97.5,25.7
		c-4.5,2.5-6.2,8.1-3.9,12.6l21.4,43c1.1,2.3,3.1,4,5.6,4.8c1,0.3,2,0.5,3,0.5c1.5,0,3-0.4,4.4-1c23.6-12.1,44.7-18.2,62.7-18.2
		c9.2,0,16.2,1.7,20.7,4.9c2.5,1.8,5.4,4.7,5.4,11.6c0,5.6-1.6,10.5-4.8,15c-2.6,3.6-9,10.3-24.9,21.7c0,0-0.1,0-0.1,0.1
		c-15.5,11.4-26,22-32.1,32.6c-6.2,10.7-9.3,23.3-9.3,37.5v14.5c0,5.3,4.3,9.6,9.6,9.6h52c5.3,0,9.6-4.3,9.6-9.6v-11.8
		c0-5.8,1.1-10.4,3.3-13.6c1.5-2.2,6.4-7.6,21.6-18.9c19.5-13.9,32.5-26.3,39.8-38c7.5-12,11.3-26.2,11.3-42.3
		c0-24.5-9.2-44.4-27.4-59.2C309.9,89,286.3,81.8,257.2,81.8L257.2,81.8z M245.6,311.3c-13.7,0-24.6,3.7-32.3,11.1
		c-7.8,7.5-11.8,18.2-11.8,31.8c0,13.2,4,23.8,11.9,31.5c7.8,7.6,18.7,11.4,32.2,11.4c13.3,0,24-3.9,31.8-11.7
		c7.9-7.8,11.9-18.3,11.9-31.2c0-13.4-4-24-11.8-31.6C269.7,315.1,259,311.3,245.6,311.3L245.6,311.3z"/>
</g>
</svg>
