<svg xmlns="http://www.w3.org/2000/svg" width="110" height="110" viewBox="0 0 110 110"><circle fill="#a5dbdb" cx="55" cy="55" r="50.3"/><g fill="#FFF"><path d="M32.1 39.1c1.9-2.3 4.2-3.4 7.3-3.4 3.1 0 5.6.8 7.3 2.3 1.7 1.5 2.5 3.5 2.5 6.4 0 1.1.9 2 2 2h1.2c.9 0 1.6-.6 1.9-1.4l.1-.2c.1-.2.1-.4.1-.6.1-4.4-1.3-7.9-4.2-10.3-2.8-2.4-6.4-3.6-10.8-3.6-4.7 0-8.6 1.8-11.5 5.3-2.8 3.4-4.2 7.9-4.2 13.2v5.6c0 5.4 1.4 9.9 4.2 13.3 2.9 3.5 6.7 5.3 11.5 5.3 4.4 0 8-1.2 10.8-3.5 2.9-2.4 4.3-5.9 4.2-10.4 0-.2 0-.4-.1-.6l-.1-.2c-.3-.8-1-1.4-1.9-1.4h-1.2c-1.1 0-2 .9-2 2 0 3-.8 5.1-2.5 6.5-1.7 1.5-4.2 2.2-7.3 2.2-3.1 0-5.5-1.1-7.3-3.4-1.9-2.4-2.9-5.7-2.9-9.7v-5.7c-.1-4 .9-7.3 2.9-9.7zM88.9 69.5l-14-37.4c-.3-.8-1-1.3-1.9-1.3h-1.7c-.8 0-1.6.5-1.9 1.3L55.3 69.8c-.2.6-.1 1.3.2 1.8.4.5 1 .9 1.6.9h1.5c.8 0 1.6-.5 1.9-1.3l3.7-10H80l3.7 10c.3.8 1 1.3 1.9 1.3h1.5c1.1 0 2-.9 2-2 0-.4-.1-.7-.2-1zM66.4 55.8l5.8-15.5L78 55.8H66.4z"/></g></svg>