<?xml version="1.0" encoding="utf-8"?>
<!-- Generator: Adobe Illustrator 16.0.4, SVG Export Plug-In . SVG Version: 6.00 Build 0)  -->
<!DOCTYPE svg PUBLIC "-//W3C//DTD SVG 1.1//EN" "http://www.w3.org/Graphics/SVG/1.1/DTD/svg11.dtd">
<svg version="1.1" id="Layer_1" xmlns="http://www.w3.org/2000/svg" xmlns:xlink="http://www.w3.org/1999/xlink" x="0px" y="0px"
	 width="61.7px" height="61.7px" viewBox="0 0 61.7 61.7" enable-background="new 0 0 61.7 61.7" xml:space="preserve">
<g>
	<g>
		<g>
			<g>
				<g>
					<rect x="21.5" y="10.3" fill="#EDE8DA" width="9.8" height="39.3"/>
					<rect x="11.7" y="10.3" fill="#FFFFFF" width="9.8" height="39.3"/>
				</g>
				<g>
					<rect x="19.5" y="41.6" fill="#5D3719" width="2" height="8"/>
					<rect x="21.5" y="41.6" fill="#3F302D" width="2" height="8"/>
				</g>
				<g>
					<rect x="25.6" y="32.2" fill="#008DC5" width="3" height="5"/>
					<rect x="21.5" y="32.2" fill="#008DC5" width="1.5" height="5"/>
					<rect x="25.6" y="41.6" fill="#008DC5" width="3" height="5"/>
					<rect x="25.6" y="22.7" fill="#008DC5" width="3" height="5"/>
					<rect x="21.5" y="22.7" fill="#008DC5" width="1.5" height="5"/>
					<rect x="25.6" y="13.3" fill="#008DC5" width="3" height="5"/>
					<rect x="21.5" y="13.3" fill="#008DC5" width="1.5" height="5"/>
				</g>
				<g>
					<rect x="20" y="32.2" fill="#00B9B5" width="1.5" height="5"/>
					<rect x="14.4" y="32.2" fill="#00B9B5" width="3" height="5"/>
					<rect x="14.4" y="41.6" fill="#00B9B5" width="3" height="5"/>
					<rect x="20" y="22.7" fill="#00B9B5" width="1.5" height="5"/>
					<rect x="14.4" y="22.7" fill="#00B9B5" width="3" height="5"/>
					<rect x="20" y="13.3" fill="#00B9B5" width="1.5" height="5"/>
					<rect x="14.4" y="13.3" fill="#00B9B5" width="3" height="5"/>
				</g>
			</g>
			<g>
				<rect x="11" y="10.3" fill="#C7235D" width="21" height="1.8"/>
				<rect x="11" y="10.3" fill="#ED4052" width="10.5" height="1.8"/>
			</g>
		</g>
		<g>
			<g>
				<g>
					<rect x="39.2" y="36.8" fill="#F48252" width="10.7" height="12.8"/>
					<rect x="28.5" y="36.8" fill="#FEC03F" width="10.7" height="12.8"/>
				</g>
				<g>
					<rect x="40.6" y="41" fill="#008DC5" width="6.3" height="4.9"/>
					<path fill="#3F302D" d="M40.2,40.5v5.8h7.2v-5.8H40.2z M46.4,45.4h-5.4v-4h5.4V45.4z"/>
				</g>
				<g>
					<g>
						<rect x="32.4" y="40.5" fill="#00B9B5" width="4.4" height="9"/>
					</g>
					<g>
						<g>
							<path fill="#5D3719" d="M35.9,41.5v7.2h-2.6v-7.2H35.9L35.9,41.5z M36.8,40.5h-4.4v9h4.4V40.5L36.8,40.5z"/>
						</g>
						<g>
							<rect x="32.7" y="43.3" fill="#5D3719" width="3.8" height="0.9"/>
						</g>
					</g>
				</g>
			</g>
			<g>
				<rect x="39.2" y="30.8" fill="#3F302D" width="7.8" height="2.4"/>
				<rect x="31.3" y="30.8" fill="#5D3719" width="7.8" height="2.4"/>
			</g>
			<g>
				<polygon fill="none" points="32.8,36.8 32.8,36.8 34.5,33.2 32.9,36.4 				"/>
				<polygon fill="none" points="32.8,36.8 32.8,36.8 32.8,36.8 				"/>
				<polygon fill="#ED4052" points="45.5,36.8 43.8,33.2 40.7,33.2 41.3,36.8 				"/>
				<path fill="#C7235D" d="M45.5,36.8h-4.2l0,0v1c0,0,0,0,0,0.1c0.1,1.1,1,2.1,2.1,2.1c1.2,0,2.1-1,2.1-2.2L45.5,36.8L45.5,36.8z"
					/>
				<polygon fill="#FFFFFF" points="41.3,36.8 40.7,33.2 39.2,33.2 39.2,36.8 				"/>
				<path fill="#EDE8DA" d="M41.3,36.8L41.3,36.8l-2.1,0v0h0v0.4V40c1.2,0,2.1-0.9,2.1-2.1c0,0,0-0.1,0-0.1V36.8z"/>
				<polygon fill="#EDE8DA" points="41.3,36.8 40.7,33.2 41.3,36.8 				"/>
				<path fill="#EDE8DA" d="M41.3,36.8L41.3,36.8L41.3,36.8L41.3,36.8l0,1c0,0,0,0.1,0,0.1c0,0,0,0,0-0.1V36.8z"/>
				<path fill="#EDE8DA" d="M49.8,36.8h-4.3l0,0v1c0,1.2,0.9,2.2,2.1,2.2c1.2,0,2.1-1,2.2-2.2L49.8,36.8L49.8,36.8L49.8,36.8z"/>
				<polygon fill="#FFFFFF" points="49.8,36.8 47,33.2 43.8,33.2 45.5,36.8 				"/>
				<path fill="#C7235D" d="M37,36.8L37,36.8l-4.2,0l0,0v1c0,1.2,1,2.2,2.1,2.2c1.1,0,2-0.9,2.1-2.1c0,0,0,0,0-0.1V36.8z"/>
				<polygon fill="#ED4052" points="37,36.8 37.6,33.2 34.5,33.2 32.8,36.8 				"/>
				<path fill="#EDE8DA" d="M32.8,36.8h-4.3l0,0h0l0,1c0,1.2,1,2.2,2.2,2.2s2.1-1,2.1-2.2L32.8,36.8L32.8,36.8z"/>
				<polygon fill="#FFFFFF" points="32.9,36.4 34.5,33.2 31.3,33.2 28.5,36.8 32.8,36.8 				"/>
				<polygon fill="#FFFFFF" points="39.2,36.8 39.2,33.2 37.6,33.2 37,36.8 				"/>
				<path fill="#EDE8DA" d="M37,36.8L37,36.8l0,1.1c0,0,0,0.1,0,0.1c0,1.2,1,2.1,2.1,2.1v-2.9v-0.4h0v0H37z"/>
				<polygon fill="#FFFFFF" points="37,36.8 37.6,33.2 37,36.8 				"/>
				<path fill="#FFFFFF" d="M37,36.8L37,36.8L37,36.8L37,36.8l0,1.1c0,0,0,0,0,0.1c0,0,0-0.1,0-0.1V36.8z"/>
			</g>
		</g>
		<g>
			<rect x="11" y="49.6" fill="#C7235D" width="39.7" height="1.8"/>
			<rect x="11" y="49.6" fill="#F48252" width="17.5" height="1.8"/>
			<rect x="11" y="49.6" fill="#FEC03F" width="10.5" height="1.8"/>
			<rect x="27.3" y="49.6" fill="#ED4052" width="11.8" height="1.8"/>
		</g>
	</g>
</g>
</svg>
