<?xml version="1.0" encoding="utf-8"?>
<!-- Generator: Adobe Illustrator 16.0.4, SVG Export Plug-In . SVG Version: 6.00 Build 0)  -->
<!DOCTYPE svg PUBLIC "-//W3C//DTD SVG 1.1//EN" "http://www.w3.org/Graphics/SVG/1.1/DTD/svg11.dtd">
<svg version="1.1" id="Layer_1" xmlns="http://www.w3.org/2000/svg" xmlns:xlink="http://www.w3.org/1999/xlink" x="0px" y="0px"
	 width="110px" height="110px" viewBox="0 0 110 110" enable-background="new 0 0 110 110" xml:space="preserve">
<g id="label_1_" opacity="0.4">
	<circle fill="#FFFFFF" cx="55" cy="55" r="50.3"/>
</g>
<g>
	<path fill="#FFFFFF" d="M32.1,39.1c1.9-2.3,4.2-3.4,7.3-3.4c3.1,0,5.6,0.8,7.3,2.3c1.7,1.5,2.5,3.5,2.5,6.4c0,1.1,0.9,2,2,2h1.2
		c0.9,0,1.6-0.6,1.9-1.4l0.1-0.2c0.1-0.2,0.1-0.4,0.1-0.6c0.1-4.4-1.3-7.9-4.2-10.3c-2.8-2.4-6.4-3.6-10.8-3.6
		c-4.7,0-8.6,1.8-11.5,5.3c-2.8,3.4-4.2,7.9-4.2,13.2v5.6c0,5.4,1.4,9.9,4.2,13.3c2.9,3.5,6.7,5.3,11.5,5.3c4.4,0,8-1.2,10.8-3.5
		c2.9-2.4,4.3-5.9,4.2-10.4c0-0.2,0-0.4-0.1-0.6l-0.1-0.2c-0.3-0.8-1-1.4-1.9-1.4h-1.2c-1.1,0-2,0.9-2,2c0,3-0.8,5.1-2.5,6.5
		c-1.7,1.5-4.2,2.2-7.3,2.2c-3.1,0-5.5-1.1-7.3-3.4c-1.9-2.4-2.9-5.7-2.9-9.7v-5.7C29.1,44.8,30.1,41.5,32.1,39.1z"/>
	<path fill="#FFFFFF" d="M88.9,69.5l-14-37.4c-0.3-0.8-1-1.3-1.9-1.3h-1.7c-0.8,0-1.6,0.5-1.9,1.3L55.3,69.8
		c-0.2,0.6-0.1,1.3,0.2,1.8c0.4,0.5,1,0.9,1.6,0.9h1.5c0.8,0,1.6-0.5,1.9-1.3l3.7-10H80l3.7,10c0.3,0.8,1,1.3,1.9,1.3h1.5
		c0,0,0,0,0,0c1.1,0,2-0.9,2-2C89.1,70.1,89,69.8,88.9,69.5z M66.4,55.8l5.8-15.5L78,55.8H66.4z"/>
</g>
</svg>
