<?xml version="1.0" encoding="utf-8"?>
<!-- Generator: Adobe Illustrator 16.0.4, SVG Export Plug-In . SVG Version: 6.00 Build 0)  -->
<!DOCTYPE svg PUBLIC "-//W3C//DTD SVG 1.1//EN" "http://www.w3.org/Graphics/SVG/1.1/DTD/svg11.dtd">
<svg version="1.1" id="Layer_1" xmlns="http://www.w3.org/2000/svg" xmlns:xlink="http://www.w3.org/1999/xlink" x="0px" y="0px"
	 width="61.7px" height="61.7px" viewBox="0 0 61.7 61.7" enable-background="new 0 0 61.7 61.7" xml:space="preserve">
<g>
	<g>
		<g>
			<g>
				<path fill="#B06A3D" d="M36.3,10.5c0.5,0.8-0.7,4.5-0.7,4.5l-3.7-1.2l0.6-7.1l1.7,2.3C34.2,9.1,35.9,9.9,36.3,10.5z"/>
				<g>
					<polygon fill="#5D3719" points="24,14.1 24,21.7 26,21.7 26,16.1 30.8,16.1 30.8,14.1 					"/>
					<polygon fill="#3F302D" points="30.8,14.1 30.8,16.1 35.7,16.1 35.7,21.7 37.7,21.7 37.7,14.1 					"/>
				</g>
				<g>
					<rect x="10.3" y="20.7" fill="#3F302D" width="20.6" height="12.3"/>
					<rect x="30.8" y="20.7" fill="#3F302D" width="20.6" height="12.3"/>
					<rect x="30.8" y="33.1" fill="#5D3719" width="20.6" height="15.3"/>
					<rect x="10.3" y="33.1" fill="#5D3719" width="20.6" height="15.3"/>
				</g>
				<rect x="30.8" y="20.7" opacity="0.3" width="20.6" height="27.7"/>
				<g>
					<polygon fill="#FEC03F" points="27.7,31.7 27.7,34.6 30.8,36.3 30.8,31.7 					"/>
					<polygon fill="#F48252" points="30.8,31.7 30.8,36.3 34,34.6 34,31.7 					"/>
				</g>
			</g>
			<g>
				<g>
					<g>
						<path fill="#B06A3D" d="M30.6,6.6l-2.9,0.1v1.7c0,0-0.5,1.4-0.8,1.9c-0.5,1-0.1,4.6-0.1,5.7c0,1.4,0.9,2.5,1.9,1.4
							c0,1.1,1.5,1.5,2,0.5c0,0,0,0.1,0.1,0.1V6.6L30.6,6.6z"/>
						<path fill="#89552E" d="M34.6,10C34.5,9.2,34,9,34,8.5c0-1.3,0-1.9,0.1-2l-3.2,0V18c0.6,1.3,1.9,0.8,2.1-0.1
							c1.3,1.3,2,0.1,2-1C34.9,13.9,34.9,12.2,34.6,10z"/>
					</g>
					<g>
						<rect x="26.7" y="-13.4" fill="#00B9B5" width="4.2" height="20.5"/>
						<rect x="30.9" y="-13.4" fill="#008DC5" width="4.2" height="20.5"/>
					</g>
				</g>
			</g>
		</g>
	</g>
</g>
</svg>
