<?xml version="1.0" encoding="utf-8"?>
<!-- Generator: Adobe Illustrator 16.0.4, SVG Export Plug-In . SVG Version: 6.00 Build 0)  -->
<!DOCTYPE svg PUBLIC "-//W3C//DTD SVG 1.1//EN" "http://www.w3.org/Graphics/SVG/1.1/DTD/svg11.dtd">
<svg version="1.1" id="Layer_1" xmlns="http://www.w3.org/2000/svg" xmlns:xlink="http://www.w3.org/1999/xlink" x="0px" y="0px"
	 width="61.7px" height="61.7px" viewBox="0 0 61.7 61.7" enable-background="new 0 0 61.7 61.7" xml:space="preserve">
<g>
	<g>
		<rect x="18.3" y="11.5" fill="#5D3719" width="3.4" height="8.4"/>
		<g>
			<rect x="30.9" y="45.4" fill="#F48252" width="18.1" height="3.6"/>
			<polygon fill="#EDE8DA" points="46.9,25.5 46.9,45.4 30.9,45.4 30.9,12.4 			"/>
			<polygon fill="#C7235D" points="30.9,8.6 30.9,10.3 30.9,12.4 46.9,25.5 51.4,25.5 			"/>
			<rect x="12.8" y="45.4" fill="#FEC03F" width="18.1" height="3.6"/>
			<polygon fill="#FFFFFF" points="30.9,12.4 30.9,45.4 14.8,45.4 14.8,25.5 			"/>
			<polygon fill="#ED4052" points="10.3,25.5 14.8,25.5 30.9,12.4 30.9,10.3 30.9,8.6 			"/>
		</g>
		<g>
			<rect x="20.3" y="29.9" fill="#5D3719" width="6.9" height="15.5"/>
			<g>
				<g>
					<path fill="#3F302D" d="M26.2,31v13.3h-4.8V31H26.2L26.2,31z M27.3,29.9h-6.9v15.5h6.9V29.9L27.3,29.9z"/>
				</g>
				<g>
					<rect x="20.6" y="37.1" fill="#3F302D" width="6.3" height="1.1"/>
				</g>
			</g>
			<circle fill="#FEC03F" cx="21.9" cy="37.5" r="0.7"/>
		</g>
		<g>
			<g>
				<g>
					<rect x="35" y="30.5" fill="#008DC5" width="3" height="4.1"/>
					<rect x="35" y="34.6" fill="#008DC5" width="3" height="4.1"/>
				</g>
				<g>
					<rect x="38" y="34.6" fill="#008DC5" width="3" height="4.1"/>
					<rect x="38" y="30.5" fill="#008DC5" width="3" height="4.1"/>
				</g>
			</g>
			<g>
				<path fill="#3F302D" d="M38.5,29.9H38v9.2h0.5h3v-4.1V34v-4.1H38.5z M40.4,38.1h-1.9v-3h1.9V38.1z M40.4,34h-1.9v-3h1.9V34z"/>
				<path fill="#3F302D" d="M37.4,29.9h-3V34v1.1v4.1h3H38v-9.2H37.4z M37.4,38.1h-1.9v-3h1.9V38.1z M37.4,34h-1.9v-3h1.9V34z"/>
			</g>
		</g>
	</g>
</g>
</svg>
