<?xml version="1.0" encoding="utf-8"?>
<!-- Generator: Adobe Illustrator 16.0.4, SVG Export Plug-In . SVG Version: 6.00 Build 0)  -->
<!DOCTYPE svg PUBLIC "-//W3C//DTD SVG 1.1//EN" "http://www.w3.org/Graphics/SVG/1.1/DTD/svg11.dtd">
<svg version="1.1" id="Layer_1" xmlns="http://www.w3.org/2000/svg" xmlns:xlink="http://www.w3.org/1999/xlink" x="0px" y="0px"
	 width="110px" height="110px" viewBox="0 0 110 110" enable-background="new 0 0 110 110" xml:space="preserve">
<circle fill="#A5DBDB" cx="55" cy="55" r="45"/>
<g>
	<path fill="#FFFFFF" d="M63.499,33.35h-1.342c-0.716,0-1.432,0.447-1.7,1.163L50.169,62.246L39.791,34.513
		c-0.268-0.716-0.895-1.163-1.7-1.163H36.75c-0.626,0-1.163,0.269-1.432,0.806c-0.357,0.447-0.447,1.073-0.179,1.61l12.615,33.728
		c0.269,0.716,0.895,1.163,1.7,1.163h1.521c0.715,0,1.432-0.447,1.7-1.163l12.614-33.728c0.18-0.537,0.089-1.163-0.179-1.61
		C64.573,33.618,64.035,33.35,63.499,33.35z"/>
	<path fill="#FFFFFF" d="M69.762,42.028h-1.253c-0.983,0-1.789,0.805-1.789,1.789v25.05c0,0.983,0.806,1.789,1.789,1.789h1.253
		c0.983,0,1.789-0.806,1.789-1.789v-25.05C71.551,42.833,70.745,42.028,69.762,42.028z"/>
	<path fill="#FFFFFF" d="M69.762,30.935h-1.253c-0.983,0-1.789,0.805-1.789,1.789v3.221c0,0.984,0.806,1.79,1.789,1.79h1.253
		c0.983,0,1.789-0.806,1.789-1.79v-3.221C71.551,31.739,70.745,30.935,69.762,30.935z"/>
</g>
</svg>
