<?xml version="1.0" encoding="utf-8"?>
<!-- Generator: Adobe Illustrator 16.0.4, SVG Export Plug-In . SVG Version: 6.00 Build 0)  -->
<!DOCTYPE svg PUBLIC "-//W3C//DTD SVG 1.1//EN" "http://www.w3.org/Graphics/SVG/1.1/DTD/svg11.dtd">
<svg version="1.1" id="Layer_1" xmlns="http://www.w3.org/2000/svg" xmlns:xlink="http://www.w3.org/1999/xlink" x="0px" y="0px"
	 width="110px" height="110px" viewBox="0 0 110 110" enable-background="new 0 0 110 110" xml:space="preserve">
<g id="label_1_" opacity="0.4">
	<circle fill="#FFFFFF" cx="55" cy="55" r="50.3"/>
</g>
<g>
	<path fill="#FFFFFF" d="M52.5,30.8h-1.4c-1.1,0-2,0.9-2,2v28.8L28.5,31.7c-0.4-0.5-1-0.9-1.6-0.9h-1.4c-1.1,0-2,0.9-2,2v37.7
		c0,1.1,0.9,2,2,2h1.4c1.1,0,2-0.9,2-2V41.6l20.7,30c0.4,0.5,1,0.9,1.6,0.9h1.4c1.1,0,2-0.9,2-2V32.8C54.5,31.7,53.6,30.8,52.5,30.8
		z"/>
	<path fill="#FFFFFF" d="M90.7,69.5l-14-37.4c-0.3-0.8-1-1.3-1.9-1.3h-1.7c-0.8,0-1.6,0.5-1.9,1.3L57.2,69.8
		c-0.2,0.6-0.1,1.3,0.2,1.8c0.4,0.5,1,0.9,1.6,0.9h1.5c0.8,0,1.6-0.5,1.9-1.3l3.7-10h15.6l3.7,10c0.3,0.8,1,1.3,1.9,1.3h1.5
		c0,0,0,0,0,0c1.1,0,2-0.9,2-2C90.9,70.1,90.8,69.8,90.7,69.5z M68.2,55.8L74,40.4l5.8,15.5H68.2z"/>
</g>
</svg>
