<?xml version="1.0" encoding="utf-8"?>
<!-- Generator: Adobe Illustrator 16.0.4, SVG Export Plug-In . SVG Version: 6.00 Build 0)  -->
<!DOCTYPE svg PUBLIC "-//W3C//DTD SVG 1.1//EN" "http://www.w3.org/Graphics/SVG/1.1/DTD/svg11.dtd">
<svg version="1.1" id="Layer_1" xmlns="http://www.w3.org/2000/svg" xmlns:xlink="http://www.w3.org/1999/xlink" x="0px" y="0px"
	 width="28px" height="34.75px" viewBox="-9.555 7.1 28 34.75" enable-background="new -9.555 7.1 28 34.75" xml:space="preserve">
<path fill="#333333" d="M17.501,33.93l-7.5-6.299l-3.701,3.6l6.301,7.5c0,0,2.9,2,4.9,0S17.501,33.93,17.501,33.93"/>
<path opacity="0.3" fill="#FFFFFF" d="M1.501,14.33c-4.001,0-7.3,3.2-7.3,7.3c0,4,3.299,7.2,7.3,7.2c4,0,7.299-3.199,7.299-7.2
	C8.8,17.63,5.501,14.33,1.501,14.33"/>
<path fill="#FFFFFF" d="M1.501,10.68C-4.6,10.68-9.5,15.58-9.5,21.58c0,6,4.9,10.9,11.001,10.9c6.1,0,11-4.899,11-10.9
	C12.401,15.58,7.501,10.68,1.501,10.68z M1.501,28.78c-4.001,0-7.3-3.199-7.3-7.2c0-4.1,3.299-7.3,7.3-7.3c4,0,7.299,3.3,7.299,7.3
	C8.8,25.581,5.501,28.78,1.501,28.78z"/>
<g opacity="0.4">
	<path fill="#FFFFFF" d="M-0.5,18.73c-1.7,0-3,1.3-3,3c0,1.7,1.3,3,3,3c1.7,0,3-1.301,3-3C2.501,20.13,1.2,18.73-0.5,18.73"/>
</g>
</svg>
