<?xml version="1.0" encoding="utf-8"?>
<!-- Generator: Adobe Illustrator 16.0.4, SVG Export Plug-In . SVG Version: 6.00 Build 0)  -->
<!DOCTYPE svg PUBLIC "-//W3C//DTD SVG 1.1//EN" "http://www.w3.org/Graphics/SVG/1.1/DTD/svg11.dtd">
<svg version="1.1" id="Layer_1" xmlns="http://www.w3.org/2000/svg" xmlns:xlink="http://www.w3.org/1999/xlink" x="0px" y="0px"
	 width="110px" height="110px" viewBox="0 0 110 110" enable-background="new 0 0 110 110" xml:space="preserve">
<circle fill="#A5DBDB" cx="55" cy="55" r="45"/>
<g>
	<path fill="#FFFFFF" d="M55.626,49.9c0-4.741-1.521-8.767-4.562-11.898c-3.042-3.131-6.799-4.741-11.183-4.741h-10.02
		c-0.984,0-1.79,0.805-1.79,1.789v33.728c0,0.984,0.805,1.79,1.79,1.79h10.02c4.383,0,8.141-1.611,11.093-4.652
		c3.042-3.132,4.562-7.068,4.562-11.899V49.9H55.626z M39.881,65.825h-6.979V38.181h6.979c3.042,0,5.546,1.073,7.694,3.31
		c2.147,2.237,3.22,5.01,3.22,8.41v4.205c0,3.489-1.073,6.173-3.22,8.41C45.427,64.752,42.922,65.825,39.881,65.825z"/>
	<path fill="#FFFFFF" d="M85.597,67.973l-12.524-33.46c-0.269-0.716-0.896-1.163-1.7-1.163h-1.521c-0.716,0-1.431,0.447-1.699,1.163
		L55.536,68.24c-0.178,0.537-0.089,1.163,0.18,1.61c0.358,0.447,0.895,0.806,1.432,0.806h1.431c0.716,0,1.432-0.447,1.7-1.163
		l3.31-8.946h13.957l3.311,8.946c0.268,0.716,0.895,1.163,1.699,1.163h1.342l0,0c0.984,0,1.789-0.806,1.789-1.789
		C85.775,68.509,85.686,68.24,85.597,67.973z M65.377,55.716l5.19-13.867l5.188,13.867H65.377z"/>
</g>
</svg>
