<?xml version="1.0" encoding="utf-8"?>
<!-- Generator: Adobe Illustrator 16.0.4, SVG Export Plug-In . SVG Version: 6.00 Build 0)  -->
<!DOCTYPE svg PUBLIC "-//W3C//DTD SVG 1.1//EN" "http://www.w3.org/Graphics/SVG/1.1/DTD/svg11.dtd">
<svg version="1.1" id="Layer_1" xmlns="http://www.w3.org/2000/svg" xmlns:xlink="http://www.w3.org/1999/xlink" x="0px" y="0px"
	 width="110px" height="110px" viewBox="0 0 110 110" enable-background="new 0 0 110 110" xml:space="preserve">
<g id="label_1_" opacity="0.4">
	<circle fill="#FFFFFF" cx="55" cy="55" r="50.3"/>
</g>
<g>
	<path fill="#FFFFFF" d="M56.7,31.7c-0.4-0.5-1-0.9-1.6-0.9h-1.5c-0.8,0-1.6,0.5-1.9,1.3l-11.5,31l-11.5-31c-0.3-0.8-1-1.3-1.9-1.3
		h-1.5c-0.7,0-1.3,0.3-1.6,0.9c-0.4,0.5-0.5,1.2-0.2,1.8l14.1,37.7c0.3,0.8,1,1.3,1.9,1.3H41c0.8,0,1.6-0.5,1.9-1.3L57,33.5
		C57.2,32.9,57.1,32.2,56.7,31.7z"/>
	<path fill="#FFFFFF" d="M86.6,69.5l-14-37.4c-0.3-0.8-1-1.3-1.9-1.3H69c-0.8,0-1.6,0.5-1.9,1.3L53,69.8c-0.2,0.6-0.1,1.3,0.2,1.8
		c0.4,0.5,1,0.9,1.6,0.9h1.5c0.8,0,1.6-0.5,1.9-1.3l3.7-10h15.6l3.7,10c0.3,0.8,1,1.3,1.9,1.3h1.5c0,0,0,0,0,0c1.1,0,2-0.9,2-2
		C86.8,70.1,86.7,69.8,86.6,69.5z M64.1,55.8l5.8-15.5l5.8,15.5H64.1z"/>
</g>
</svg>
