<?xml version="1.0" encoding="utf-8"?>
<!-- Generator: Adobe Illustrator 16.0.4, SVG Export Plug-In . SVG Version: 6.00 Build 0)  -->
<!DOCTYPE svg PUBLIC "-//W3C//DTD SVG 1.1//EN" "http://www.w3.org/Graphics/SVG/1.1/DTD/svg11.dtd">
<svg version="1.1" id="Layer_1" xmlns="http://www.w3.org/2000/svg" xmlns:xlink="http://www.w3.org/1999/xlink" x="0px" y="0px"
	 width="110px" height="110px" viewBox="0 0 110 110" enable-background="new 0 0 110 110" xml:space="preserve">
<circle fill="#A5DBDB" cx="55" cy="55" r="45"/>
<g>
	<path fill="#FFFFFF" d="M34.513,40.775c1.7-2.058,3.757-3.042,6.531-3.042s5.01,0.715,6.531,2.057
		c1.521,1.342,2.237,3.131,2.237,5.726c0,0.984,0.805,1.79,1.789,1.79h1.073c0.805,0,1.432-0.537,1.7-1.252l0.089-0.179
		c0.09-0.179,0.09-0.358,0.09-0.537c0.089-3.937-1.163-7.068-3.758-9.215c-2.505-2.147-5.726-3.221-9.662-3.221
		c-4.205,0-7.694,1.61-10.289,4.742c-2.505,3.042-3.757,7.068-3.757,11.809v5.01c0,4.831,1.252,8.857,3.757,11.899
		c2.594,3.131,5.994,4.741,10.289,4.741c3.936,0,7.157-1.074,9.662-3.131c2.595-2.147,3.847-5.279,3.758-9.305
		c0-0.179,0-0.357-0.09-0.537l-0.089-0.179c-0.268-0.716-0.895-1.252-1.7-1.252h-1.073c-0.984,0-1.789,0.805-1.789,1.789
		c0,2.684-0.716,4.562-2.237,5.815c-1.521,1.342-3.758,1.968-6.531,1.968s-4.92-0.984-6.531-3.042c-1.7-2.147-2.594-5.1-2.594-8.678
		v-5.1C31.829,45.875,32.724,42.922,34.513,40.775z"/>
	<path fill="#FFFFFF" d="M85.328,67.973l-12.524-33.46c-0.27-0.716-0.895-1.163-1.7-1.163h-1.521c-0.715,0-1.431,0.447-1.699,1.163
		L55.268,68.24c-0.179,0.537-0.089,1.163,0.179,1.61c0.358,0.447,0.895,0.806,1.431,0.806h1.343c0.716,0,1.432-0.447,1.7-1.163
		l3.31-8.946h14.136l3.31,8.946c0.269,0.716,0.896,1.163,1.7,1.163h1.342l0,0c0.984,0,1.789-0.806,1.789-1.789
		C85.507,68.509,85.418,68.24,85.328,67.973z M65.199,55.716l5.188-13.867l5.188,13.867H65.199z"/>
</g>
</svg>
