<?xml version="1.0" encoding="utf-8"?>
<!-- Generator: Adobe Illustrator 16.0.4, SVG Export Plug-In . SVG Version: 6.00 Build 0)  -->
<!DOCTYPE svg PUBLIC "-//W3C//DTD SVG 1.1//EN" "http://www.w3.org/Graphics/SVG/1.1/DTD/svg11.dtd">
<svg version="1.1" id="Layer_1" xmlns="http://www.w3.org/2000/svg" xmlns:xlink="http://www.w3.org/1999/xlink" x="0px" y="0px"
	 width="110px" height="110px" viewBox="0 0 110 110" enable-background="new 0 0 110 110" xml:space="preserve">
<circle fill="#A5DBDB" cx="55" cy="55" r="45"/>
<g>
	<path fill="#FFFFFF" d="M45.606,34.513c-0.269-0.716-0.895-1.163-1.7-1.163h-1.432c-0.715,0-1.432,0.447-1.7,1.163L28.161,68.24
		c-0.179,0.537-0.09,1.163,0.179,1.61c0.358,0.447,0.895,0.806,1.431,0.806h1.342c0.716,0,1.431-0.447,1.7-1.163l3.31-8.946H50.08
		l3.31,8.946c0.269,0.716,0.895,1.163,1.7,1.163h1.341l0,0c0.985,0,1.79-0.806,1.79-1.789c0-0.269-0.09-0.627-0.179-0.895
		L45.606,34.513z M38.002,55.716l5.188-13.867l5.189,13.867H38.002z"/>
	<path fill="#FFFFFF" d="M76.829,56.61c-1.7-1.252-3.937-2.237-7.067-2.952c-3.579-0.805-4.832-1.61-5.279-1.969
		c-0.625-0.626-0.983-1.252-0.983-2.057c0-0.537,0.089-1.252,1.163-2.147c0.895-0.716,2.236-1.074,4.205-1.074
		c1.878,0,3.399,0.447,4.473,1.342c0.984,0.805,1.432,1.7,1.432,2.773c0,0.984,0.805,1.789,1.789,1.789h1.073
		c0.806,0,1.433-0.537,1.7-1.252l0.09-0.179c0.09-0.179,0.09-0.358,0.09-0.537c0.089-2.594-0.895-4.92-2.953-6.531
		c-1.879-1.521-4.474-2.326-7.693-2.326c-2.952,0-5.368,0.716-7.246,2.237c-1.88,1.521-2.953,3.579-2.953,5.905
		c0,3.131,1.521,4.92,2.684,5.904c1.521,1.164,3.937,2.059,7.157,2.774c3.131,0.715,4.473,1.521,5.1,2.058
		c0.806,0.715,1.163,1.521,1.163,2.325c0,0.537-0.179,1.342-1.343,2.327c-0.983,0.805-2.504,1.252-4.383,1.252
		c-1.789,0-3.399-0.357-4.741-1.073c-1.074-0.626-1.521-1.432-1.611-2.863c-0.089-0.984-0.805-1.7-1.789-1.7h-0.983
		c-0.806,0-1.432,0.537-1.7,1.253l-0.09,0.18c-0.089,0.178-0.089,0.268-0.089,0.447c-0.179,2.414,0.895,4.651,3.041,6.262
		c1.969,1.521,4.652,2.326,7.963,2.326c3.041,0,5.547-0.716,7.426-2.236c2.057-1.521,3.131-3.668,3.131-6.174
		C79.691,60.188,78.708,58.131,76.829,56.61z"/>
</g>
</svg>
