<svg xmlns="http://www.w3.org/2000/svg" width="110" height="110" viewBox="0 0 110 110"><circle fill="#a5dbdb" cx="55" cy="55" r="50.3"/><g fill="#FFF"><path d="M56.7 31.7c-.4-.5-1-.9-1.6-.9h-1.5c-.8 0-1.6.5-1.9 1.3l-11.5 31-11.5-31c-.3-.8-1-1.3-1.9-1.3h-1.5c-.7 0-1.3.3-1.6.9-.4.5-.5 1.2-.2 1.8l14.1 37.7c.3.8 1 1.3 1.9 1.3H41c.8 0 1.6-.5 1.9-1.3L57 33.5c.2-.6.1-1.3-.3-1.8zM86.6 69.5l-14-37.4c-.3-.8-1-1.3-1.9-1.3H69c-.8 0-1.6.5-1.9 1.3L53 69.8c-.2.6-.1 1.3.2 1.8.4.5 1 .9 1.6.9h1.5c.8 0 1.6-.5 1.9-1.3l3.7-10h15.6l3.7 10c.3.8 1 1.3 1.9 1.3h1.5c1.1 0 2-.9 2-2 .2-.4.1-.7 0-1zM64.1 55.8l5.8-15.5 5.8 15.5H64.1z"/></g></svg>