<?xml version="1.0" encoding="utf-8"?>
<!-- Generator: Adobe Illustrator 16.0.4, SVG Export Plug-In . SVG Version: 6.00 Build 0)  -->
<!DOCTYPE svg PUBLIC "-//W3C//DTD SVG 1.1//EN" "http://www.w3.org/Graphics/SVG/1.1/DTD/svg11.dtd">
<svg version="1.1" id="Layer_1" xmlns="http://www.w3.org/2000/svg" xmlns:xlink="http://www.w3.org/1999/xlink" x="0px" y="0px"
	 width="110px" height="110px" viewBox="0 0 110 110" enable-background="new 0 0 110 110" xml:space="preserve">
<g id="label_1_">
	<circle fill="#AC6AA1" cx="55" cy="55" r="55"/>
</g>
<path fill="#FFFFFF" d="M43.8,44.9c0-0.4,0.3-0.6,0.6-0.6h31.1c-1.6-14.6-14-26-29-26c-16.1,0-29.2,13.1-29.2,29.2
	c0,15.2,11.6,27.7,26.5,29.1V44.9z"/>
<path fill="#FFFFFF" d="M87.9,87.4c0,0.4-0.3,0.6-0.6,0.6H51.7c-0.4,0-0.6-0.3-0.6-0.6V51.8c0-0.4,0.3-0.6,0.6-0.6h35.6
	c0.4,0,0.6,0.3,0.6,0.6V87.4z"/>
</svg>
