<?xml version="1.0" encoding="utf-8"?>
<!-- Generator: Adobe Illustrator 16.0.4, SVG Export Plug-In . SVG Version: 6.00 Build 0)  -->
<!DOCTYPE svg PUBLIC "-//W3C//DTD SVG 1.1//EN" "http://www.w3.org/Graphics/SVG/1.1/DTD/svg11.dtd">
<svg version="1.1" id="Layer_1" xmlns="http://www.w3.org/2000/svg" xmlns:xlink="http://www.w3.org/1999/xlink" x="0px" y="0px"
	 width="110px" height="110px" viewBox="0 0 110 110" enable-background="new 0 0 110 110" xml:space="preserve">
<g id="label_1_" opacity="0.4">
	<circle fill="#FFFFFF" cx="55" cy="55" r="50.3"/>
</g>
<g>
	<path fill="#FFFFFF" d="M55.7,49.3c0-5.3-1.7-9.8-5.1-13.3c-3.4-3.5-7.6-5.3-12.5-5.3H26.9c-1.1,0-2,0.9-2,2v37.7c0,1.1,0.9,2,2,2
		h11.2c4.9,0,9.1-1.8,12.4-5.2c3.4-3.5,5.1-7.9,5.1-13.3V49.3z M38.1,67.1h-7.8V36.2h7.8c3.4,0,6.2,1.2,8.6,3.7
		c2.4,2.5,3.6,5.6,3.6,9.4V54c0,3.9-1.2,6.9-3.6,9.4C44.3,65.9,41.5,67.1,38.1,67.1z"/>
	<path fill="#FFFFFF" d="M89.2,69.5l-14-37.4c-0.3-0.8-1-1.3-1.9-1.3h-1.7c-0.8,0-1.6,0.5-1.9,1.3L55.6,69.8
		c-0.2,0.6-0.1,1.3,0.2,1.8c0.4,0.5,1,0.9,1.6,0.9H59c0.8,0,1.6-0.5,1.9-1.3l3.7-10h15.6l3.7,10c0.3,0.8,1,1.3,1.9,1.3h1.5
		c0,0,0,0,0,0c1.1,0,2-0.9,2-2C89.4,70.1,89.3,69.8,89.2,69.5z M66.6,55.8l5.8-15.5l5.8,15.5H66.6z"/>
</g>
</svg>
