<?xml version="1.0" encoding="utf-8"?>
<!-- Generator: Adobe Illustrator 16.0.4, SVG Export Plug-In . SVG Version: 6.00 Build 0)  -->
<!DOCTYPE svg PUBLIC "-//W3C//DTD SVG 1.1//EN" "http://www.w3.org/Graphics/SVG/1.1/DTD/svg11.dtd">
<svg version="1.1" id="Layer_1" xmlns="http://www.w3.org/2000/svg" xmlns:xlink="http://www.w3.org/1999/xlink" x="0px" y="0px"
	 width="110px" height="110px" viewBox="0 0 110 110" enable-background="new 0 0 110 110" xml:space="preserve">
<g id="label_1_" opacity="0.4">
	<circle fill="#FFFFFF" cx="55" cy="55" r="50.3"/>
</g>
<g>
	<path fill="#FFFFFF" d="M51.4,67.1H33.1V32.8c0-1.1-0.9-2-2-2h-1.4c-1.1,0-2,0.9-2,2v37.7c0,1.1,0.9,2,2,2h21.8c1.1,0,2-0.9,2-2
		v-1.4C53.4,68,52.5,67.1,51.4,67.1z"/>
	<path fill="#FFFFFF" d="M81,34.3c-2.5-2.3-6-3.5-10.4-3.5H58.9c-1.1,0-2,0.9-2,2v37.7c0,1.1,0.9,2,2,2h1.4c1.1,0,2-0.9,2-2V56.3
		h8.4c4.4,0,7.9-1.2,10.4-3.5c2.5-2.3,3.8-5.5,3.8-9.3C84.8,39.8,83.5,36.6,81,34.3z M70.6,50.9h-8.4V36.2h8.4c3,0,5.3,0.7,6.7,2.1
		c1.4,1.4,2.1,3.1,2.1,5.3c0,2.1-0.7,3.8-2.1,5.2C75.9,50.2,73.7,50.9,70.6,50.9z"/>
</g>
</svg>
