<?xml version="1.0" encoding="utf-8"?>
<!-- Generator: Adobe Illustrator 16.0.4, SVG Export Plug-In . SVG Version: 6.00 Build 0)  -->
<!DOCTYPE svg PUBLIC "-//W3C//DTD SVG 1.1//EN" "http://www.w3.org/Graphics/SVG/1.1/DTD/svg11.dtd">
<svg version="1.1" id="Layer_1" xmlns="http://www.w3.org/2000/svg" xmlns:xlink="http://www.w3.org/1999/xlink" x="0px" y="0px"
	 width="61.7px" height="61.7px" viewBox="0 0 61.7 61.7" enable-background="new 0 0 61.7 61.7" xml:space="preserve">
<g>
	<g>
		<defs>
			<circle id="SVGID_1_" cx="30.9" cy="30.9" r="20.6"/>
		</defs>
		<use xlink:href="#SVGID_1_"  overflow="visible" fill="#434345"/>
		<clipPath id="SVGID_2_">
			<use xlink:href="#SVGID_1_"  overflow="visible"/>
		</clipPath>
		<g clip-path="url(#SVGID_2_)">
			<polygon fill="#FFFFFF" points="27.2,36.4 24,41.6 27.4,46.8 34.3,47 38.1,41.7 34.9,36.6 			"/>
			<polygon fill="#FFFFFF" points="27.5,59.3 23.2,53.8 27.4,47.3 34.3,47.4 37.8,53.2 34.1,59.2 			"/>
			<polygon fill="#FFFFFF" points="37.9,28.7 35.3,36.3 38.4,41.2 44.7,40.1 47.2,32.2 43.8,26.6 			"/>
			<polygon fill="#FFFFFF" points="37.6,28 43.5,25.9 44.2,19.7 37.7,14.6 31.3,17.4 31.3,23.2 			"/>
			<polygon points="45.2,19.9 44.4,25.9 48,31.8 56.8,30.8 57.4,20.2 50.2,15.9 			"/>
			<polygon points="44.9,41.1 38.5,42.1 34.9,47.2 37.6,52.7 44,52.1 47.7,46.4 			"/>
			<polygon fill="#FFFFFF" points="56.9,31.6 48,32.4 45.3,40.1 48.4,46.4 56.6,45.3 59.2,39.5 			"/>
			<polygon fill="#434345" points="23.9,13.4 31,16.6 37.1,13.8 36.8,6.2 29.6,2.7 24.1,7.2 			"/>
			<polygon fill="#FFFFFF" points="37.9,14 44.8,19.3 50.6,15.6 50.8,8 44.5,4.9 37.6,6.1 			"/>
			<polygon fill="#FFFFFF" points="24.8,28.9 26.7,35.9 23.7,41.2 17.6,40.1 14.9,31.5 18.5,26.6 			"/>
			<polygon fill="#FFFFFF" points="24.9,28.1 18.8,25.9 18.1,19.7 24.4,14.6 30.8,17.4 30.7,23.3 			"/>
			<polygon fill="#434345" points="17.1,19.9 17.9,25.9 14.3,31.8 5.5,30.8 5,20.2 12.2,15.9 			"/>
			<polygon fill="#434345" points="17.3,40.7 23.6,42.1 27.2,47.2 24.5,52.7 18.1,52.1 14.5,46.4 			"/>
			<polygon fill="#FFFFFF" points="5,30.5 14.3,31.8 17.3,40.7 14.4,46.8 5.8,45.3 3.2,39.5 			"/>
			<polygon fill="#FFFFFF" points="24.4,13.8 17.5,19.3 11.8,15.6 11.5,8 17.8,4.9 24.7,6.1 			"/>
		</g>
		<g clip-path="url(#SVGID_2_)">
			<path fill="none" d="M36.6,50.6c-0.1,0-0.2,0-0.2,0.1l1.2,2L36.6,50.6z"/>
			<polygon points="37.6,52.7 37.6,52.7 37.5,52.7 			"/>
			<path d="M48,32.4l3.4-0.3c0-0.2,0-0.5,0-0.7L48,31.8l-3.6-5.9l0.8-6l1.9-1.6c-0.1-0.1-0.2-0.3-0.3-0.4l-2.1,1.3L37.9,14l-0.1-2.4
				c-0.3-0.1-0.5-0.2-0.8-0.3l0.1,2.6L31,16.6l-0.2-0.1v20l4,0.1l3.2,5.1L34.3,47l-3.5-0.1v0.5l3.5,0.1l2,3.3c0.1,0,0.2,0,0.2-0.1
				l-1.6-3.5l3.6-5.1l6.3-1l1.6,3.1c0.2-0.2,0.3-0.4,0.5-0.6l-1.7-3.4L48,32.4z M31.3,23.2l-0.1-5.8l6.4-2.8l6.6,5.1l-0.7,6.2
				L37.6,28L31.3,23.2z M44.7,40.1l-6.3,1.1l-3.1-5l2.6-7.6l5.8-2.1l3.4,5.6L44.7,40.1z"/>
			<polygon fill="#EDE8DA" points="38.1,41.7 34.9,36.6 30.9,36.5 30.9,46.9 34.3,47 			"/>
			<path fill="#EDE8DA" d="M36.3,50.7l-2-3.3l-3.5-0.1v4.1C32.7,51.4,34.6,51.1,36.3,50.7z"/>
			<polygon fill="#EDE8DA" points="43.8,26.6 37.9,28.7 35.3,36.3 38.4,41.2 44.7,40.1 47.2,32.2 			"/>
			<polygon fill="#EDE8DA" points="43.5,25.9 44.2,19.7 37.7,14.6 31.3,17.4 31.3,23.2 37.6,28 			"/>
			<path d="M44.4,25.9l3.6,5.9l3.4-0.4c0-0.2,0-0.4,0-0.6c0-4.7-1.6-9-4.3-12.5l-1.9,1.6L44.4,25.9z"/>
			<path d="M38.5,42.1l-3.6,5.1l1.6,3.5c3.9-1.1,7.4-3.4,9.9-6.4l-1.6-3.1L38.5,42.1z"/>
			<path fill="#EDE8DA" d="M48,32.4l-2.6,7.7l1.7,3.4c2.5-3.2,4.1-7.1,4.3-11.5L48,32.4z"/>
			<path d="M37.1,13.8L37,11.2c-1.9-0.6-4-0.9-6.2-0.9v6.3l0.2,0.1L37.1,13.8z"/>
			<path fill="#EDE8DA" d="M44.8,19.3l2.1-1.3c-2.3-2.9-5.5-5.1-9.1-6.4l0.1,2.4L44.8,19.3z"/>
		</g>
	</g>
</g>
</svg>
