<?xml version="1.0" encoding="utf-8"?>
<!-- Generator: Adobe Illustrator 16.0.4, SVG Export Plug-In . SVG Version: 6.00 Build 0)  -->
<!DOCTYPE svg PUBLIC "-//W3C//DTD SVG 1.1//EN" "http://www.w3.org/Graphics/SVG/1.1/DTD/svg11.dtd">
<svg version="1.1" id="Layer_1" xmlns="http://www.w3.org/2000/svg" xmlns:xlink="http://www.w3.org/1999/xlink" x="0px" y="0px"
	 width="110px" height="110px" viewBox="0 0 110 110" enable-background="new 0 0 110 110" xml:space="preserve">
<circle fill="#A5DBDB" cx="55" cy="55" r="45"/>
<g>
	<path fill="#FFFFFF" d="M52.763,33.35h-1.252c-0.984,0-1.79,0.806-1.79,1.789v25.766l-18.43-26.749
		c-0.357-0.447-0.895-0.806-1.431-0.806h-1.252c-0.984,0-1.79,0.806-1.79,1.789v33.729c0,0.983,0.805,1.789,1.79,1.789h1.252
		c0.984,0,1.789-0.806,1.789-1.789V43.012l18.519,26.838c0.358,0.447,0.895,0.806,1.432,0.806h1.252
		c0.984,0,1.789-0.806,1.789-1.789V35.139C54.553,34.155,53.748,33.35,52.763,33.35z"/>
	<path fill="#FFFFFF" d="M86.938,67.973l-12.524-33.46c-0.269-0.716-0.895-1.163-1.7-1.163h-1.521c-0.716,0-1.431,0.447-1.699,1.163
		L56.969,68.24c-0.18,0.537-0.091,1.163,0.179,1.61c0.357,0.447,0.895,0.806,1.431,0.806h1.343c0.715,0,1.431-0.447,1.7-1.163
		l3.309-8.946h13.957l3.311,8.946c0.269,0.716,0.895,1.163,1.699,1.163h1.342l0,0c0.984,0,1.789-0.806,1.789-1.789
		C87.118,68.509,87.027,68.24,86.938,67.973z M66.81,55.716l5.188-13.778l5.188,13.868H66.81V55.716z"/>
</g>
</svg>
