<?xml version="1.0" encoding="utf-8"?>
<!-- Generator: Adobe Illustrator 16.0.4, SVG Export Plug-In . SVG Version: 6.00 Build 0)  -->
<!DOCTYPE svg PUBLIC "-//W3C//DTD SVG 1.1//EN" "http://www.w3.org/Graphics/SVG/1.1/DTD/svg11.dtd">
<svg version="1.1" id="Layer_1" xmlns="http://www.w3.org/2000/svg" xmlns:xlink="http://www.w3.org/1999/xlink" x="0px" y="0px"
	 width="61.7px" height="61.7px" viewBox="0 0 61.7 61.7" enable-background="new 0 0 61.7 61.7" xml:space="preserve">
<g>
	<g>
		<g>
			<path fill="#FEC03F" d="M61.6,38.1c0,6.2-7.6,11.3-16.9,11.3c-9.3,0-16.9-5.1-16.9-11.3c0-6.2,7.6-11.3,16.9-11.3
				C54.1,26.8,61.6,31.8,61.6,38.1z"/>
			<g>
				<path fill="#F48252" d="M61.6,38.1c0,6.2-7.6,11.3-16.9,11.3V26.8C54.1,26.8,61.6,31.8,61.6,38.1z"/>
				<polygon fill="#F48252" points="56.1,45.5 57.8,52.6 51.3,47.4 				"/>
			</g>
			<g>
				<path fill="#7F2F8E" d="M39.5,40.1c0-1,0.7-1.8,1.7-1.8c1,0,1.7,0.7,1.7,1.8c0,1-0.6,1.8-1.7,1.8C40.2,41.9,39.5,41.1,39.5,40.1
					z"/>
				<path fill="#4F3C8D" d="M45.1,40.1c0-1,0.7-1.8,1.7-1.8s1.6,0.7,1.7,1.8c0,1-0.7,1.8-1.7,1.8C45.8,41.9,45.1,41.1,45.1,40.1z"/>
				<path fill="#4F3C8D" d="M50.8,40.1c0-1,0.7-1.8,1.7-1.8c1,0,1.7,0.7,1.7,1.8c0,1-0.6,1.8-1.7,1.8C51.4,41.9,50.8,41.1,50.8,40.1
					z"/>
			</g>
		</g>
		<g>
			<g>
				<ellipse fill="#FFFFFF" cx="21.9" cy="25.5" rx="21.8" ry="16.4"/>
				<polygon fill="#FFFFFF" points="6.1,34.4 3.7,44.9 10.2,39.3 				"/>
			</g>
			<path fill="#EDE8DA" d="M43.8,25.5c0,9.1-9.8,16.4-21.8,16.4V9.1C34,9.1,43.8,16.4,43.8,25.5z"/>
			<g>
				<path fill="#7F2F8E" d="M20.1,29.6L20,28.9c-0.2-1.5,0.3-3.2,1.7-4.9c1.3-1.5,2-2.6,2-3.8c0-1.4-0.9-2.4-2.7-2.4
					c-1,0-2.1,0.3-2.8,0.9l-0.7-1.8c0.9-0.7,2.5-1.1,4-1.1c3.2,0,4.7,2,4.7,4.1c0,1.9-1.1,3.3-2.4,4.9c-1.2,1.5-1.7,2.7-1.6,4.1
					l0,0.7H20.1z M19.5,33.5c0-1,0.7-1.8,1.7-1.8c1,0,1.7,0.7,1.7,1.8c0,1-0.6,1.7-1.7,1.7C20.1,35.3,19.5,34.5,19.5,33.5z"/>
			</g>
			<g>
				<path fill="#4F3C8D" d="M21.9,15.7v2.1c1.2,0.3,1.8,1.1,1.8,2.3c0,1.2-0.7,2.3-1.8,3.7v5.8h0.4l0-0.7c-0.1-1.4,0.4-2.7,1.6-4.1
					c1.3-1.6,2.4-3,2.4-4.9C26.3,17.8,24.9,15.9,21.9,15.7z"/>
				<path fill="#4F3C8D" d="M22.8,33.5c0-0.7-0.4-1.3-0.9-1.6v3.1C22.5,34.8,22.8,34.2,22.8,33.5z"/>
			</g>
		</g>
	</g>
</g>
</svg>
