<?xml version="1.0" encoding="utf-8"?>
<!-- Generator: Adobe Illustrator 16.0.4, SVG Export Plug-In . SVG Version: 6.00 Build 0)  -->
<!DOCTYPE svg PUBLIC "-//W3C//DTD SVG 1.1//EN" "http://www.w3.org/Graphics/SVG/1.1/DTD/svg11.dtd">
<svg version="1.1" id="Layer_1" xmlns="http://www.w3.org/2000/svg" xmlns:xlink="http://www.w3.org/1999/xlink" x="0px" y="0px"
	 width="61.7px" height="61.7px" viewBox="0 0 61.7 61.7" enable-background="new 0 0 61.7 61.7" xml:space="preserve">
<g>
	<defs>
		<rect id="SVGID_1_" y="0" width="61.7" height="61.7"/>
	</defs>
	<clipPath id="SVGID_2_">
		<use xlink:href="#SVGID_1_"  overflow="visible"/>
	</clipPath>
	<g clip-path="url(#SVGID_2_)">
		<g>
			<g>
				<rect x="38.5" y="39.8" fill="#ED4052" width="8.8" height="3.6"/>
				<g>
					<polygon fill="#EEC09D" points="46.3,41.7 42.9,41.8 42.9,36.6 46,35.5 					"/>
					<polygon fill="#FDD2B1" points="39.5,41.7 42.9,41.8 42.9,36.6 39.8,35.5 					"/>
				</g>
				<g>
					<path fill="#008DC5" d="M27.2,66.2l4.9,1.6l0.1,0L42.9,72V41l-3.4,0.7c0,0-7.7,2.4-9.3,3c-0.6,0.2-1.1,0.7-1.5,1.3
						C25.2,51,27.2,66.2,27.2,66.2z"/>
					<path fill="#0064AD" d="M58.6,66.2l-4.9,1.6l-0.1,0L42.9,72V41l3.4,0.7c0,0,7.7,2.4,9.3,3c0.6,0.2,1.1,0.7,1.5,1.3
						C60.5,51,58.6,66.2,58.6,66.2z"/>
				</g>
				<g>
					<polygon fill="#FEC03F" points="37.6,42.3 42.3,43.3 42.9,40.7 38.5,39.8 					"/>
					<polygon fill="#F48252" points="48.1,42.3 43.5,43.3 42.9,40.7 47.3,39.8 					"/>
				</g>
				<g>
					<g>
						<path fill="#FDD2B1" d="M52.6,26c-0.4,1.9-2,2.4-2,2.4c-1.9-0.2,0.6-3.7,0.6-4.4C51.2,24,53.1,23.4,52.6,26z"/>
						<path fill="#EEC09D" d="M33.2,26c0.4,1.9,2,2.4,2,2.4c1.9-0.2-0.6-3.7-0.6-4.4C34.5,24,32.6,23.4,33.2,26z"/>
					</g>
					<path opacity="0.1" d="M39.8,36.6c0.9,0.6,1.9,0.9,3.1,0.9c1.2,0,2.3-0.4,3.1-0.9l-0.1-1l-3.1,1l-3.1-1L39.8,36.6z"/>
					<g>
						<path fill="#EEC09D" d="M51.1,22.8c0,0.7-0.6,3.5-0.8,4.2c-0.6,2.6-1.9,9.6-7.5,9.6V14.2C47,14.2,51.1,17.6,51.1,22.8z"/>
						<path fill="#FDD2B1" d="M34.6,22.8c0,0.7,0.6,3.5,0.8,4.2c0.6,2.6,1.9,9.6,7.5,9.6V14.2C38.8,14.2,34.7,17.6,34.6,22.8z"/>
					</g>
					<g>
						<path fill="#434345" d="M40.1,13.4c0,0-3,0.4-4.4,1.9c-1.2,1.3-2.8,3-1.8,8.6c0,0,0.9,0.7,1.2,1.9c0,0.1,0.3,0.4,0.3-0.1
							c0-0.6-0.2-2.3-0.2-2.7c0.4-2.6,1.7-4.4,5.7-6.5c0,0,1.1,0.8,1.9,1.3v-5.7C41.8,12.3,40.8,12.7,40.1,13.4z"/>
						<path d="M50.5,15.3c-2-2-5.1-3.3-7.6-3.1v5.7c0.4,0.3,0.8,0.6,1,0.6c2,1.1,5.3,1.8,6.5,4.9c0.1,0.3-0.1,1.6,0,2.1
							c0,0.5,0.2,0.5,0.3,0.4c0.2-1.7,1.1-2,1.1-2C51.9,21.4,52,16.9,50.5,15.3z"/>
					</g>
				</g>
			</g>
			<g>
				<g>
					<path fill="#5D3719" d="M20.6,13.5c-2.5,0-4.6,2-4.7,4.5c-0.4-0.1-0.8-0.2-1.2-0.2c-2.2,0-3.9,1.7-3.9,3.9
						c0,0.9,0.3,1.7,0.9,2.4c-1.9,0.2-3.3,1.7-3.3,3.6c0,1.6,1,2.9,2.5,3.4c-1,0.6-1.7,1.7-1.7,3c0,1.9,1.5,3.4,3.5,3.4
						c0.2,0,0.4,0,0.6-0.1c-0.1,0.3-0.2,0.6-0.2,1c0,1.9,1.5,3.4,3.4,3.4c0.5,0,1-0.1,1.4-0.3c0.4,1.3,1.6,2.3,3.1,2.3
						c1.2,0,2.5-0.6,3.3-1.6V15.3C23.3,14.2,22,13.5,20.6,13.5z"/>
					<path fill="#3F302D" d="M39.6,27.5c0-1.6-1-2.9-2.5-3.4c0.4-0.6,0.6-1.3,0.6-2.1c0-2.2-1.7-3.9-3.9-3.9c-0.4,0-1.2,0.1-1.2,0.1
						c0-2.6-2.1-4.7-4.7-4.7c-1.6,0-3.3,0.9-3.8,1.9c0,0,0,0,0,0v27.1c0.2-0.2,0.3-0.4,0.4-0.7c0.5,1.1,1.6,2,3,2
						c1.7,0,3-1.3,3.2-2.9c0.5,0.3,1.1,0.5,1.7,0.5c1.9,0,3.5-1.5,3.5-3.4c0-0.4-0.1-0.9-0.2-1.2c1.9-0.1,3.4-1.6,3.4-3.4
						c0-1-0.4-1.9-1.1-2.5C39,29.9,39.6,28.8,39.6,27.5z"/>
				</g>
				<g>
					<g>
						<path fill="#B06A3D" d="M32.9,31.5c-0.4,1.8-1.9,2.3-1.9,2.3c-2.2,0.4-1-4,0.6-4.2C31.5,29.6,33.4,29,32.9,31.5z"/>
						<path fill="#89552E" d="M17.5,33.8c0,0-1.5-0.5-1.9-2.3c-0.5-2.5,1.3-1.9,1.3-1.9C17.9,30,20.1,34.1,17.5,33.8z"/>
					</g>
					<g>
						<path fill="#F48252" d="M32.5,34.1c0,0.7-0.4,1.3-0.4,1.3s-0.4-0.6-0.4-1.3c0-0.7,0.4-1.3,0.4-1.3S32.5,33.4,32.5,34.1z"/>
						<path fill="#FEC03F" d="M16.9,34.1c0,0.7-0.4,1.3-0.4,1.3s-0.4-0.6-0.4-1.3c0-0.7,0.4-1.3,0.4-1.3S16.9,33.4,16.9,34.1z"/>
					</g>
				</g>
				<g>
					<path fill="#B06A3D" d="M24.2,20.3v21.3c-3.9,0-5.7-3.8-6.8-8.8c-0.1-0.7-0.3-1.4-0.4-2.1c-0.1-0.7-0.2-1.4-0.2-2.1
						C16.9,23.7,20.3,20.3,24.2,20.3z"/>
					<path fill="#89552E" d="M31.5,28.7c0,0.7,0,1.4-0.2,2.1c-0.1,0.7-0.3,1.4-0.4,2.1c-1.1,5-2.8,8.8-6.8,8.8V20.3
						C28.1,20.3,31.5,23.7,31.5,28.7z"/>
				</g>
				<g>
					<path fill="#89552E" d="M26.7,46.8c-0.6,0.6-1.5,0.9-2.5,0.9v-6l2-0.4L26.7,46.8z"/>
					<path fill="#F48252" d="M28.5,47.4c-0.7,1-2.4,1.7-4.3,1.7v-1.4c1,0,2-0.3,2.5-0.9C26.7,46.8,27.5,47,28.5,47.4z"/>
					<path fill="#89552E" d="M39,72.2l-3.9,1.6c0.1-2.3,0.1-6.2,0-10.8c-0.2-7.6,0.8-10.7,1.4-11.8C40,56.1,39,72.2,39,72.2z"/>
					<path fill="#ED4052" d="M35.1,62.9c0.1,4.6,0,8.6,0,10.8l-0.1,0L24.2,78v-29c1.9,0,3.5-0.7,4.3-1.7c1.9,0.7,5,1.8,6.6,2.4
						c0.6,0.2,1.1,0.7,1.5,1.3C35.9,52.2,34.9,55.3,35.1,62.9z"/>
				</g>
				<g>
					<path fill="#B06A3D" d="M21.7,46.8c0.6,0.6,1.5,0.9,2.5,0.9v-6l-2-0.4L21.7,46.8z"/>
					<path fill="#FEC03F" d="M19.9,47.4c0.7,1,2.4,1.7,4.3,1.7v-1.4c-1,0-2-0.3-2.5-0.9C21.7,46.8,21,47,19.9,47.4z"/>
					<path fill="#B06A3D" d="M9.4,72.2l3.9,1.6c-0.1-2.3-0.1-6.2,0-10.8c0.2-7.6-0.8-10.7-1.4-11.8C8.4,56.1,9.4,72.2,9.4,72.2z"/>
					<path fill="#F48252" d="M13.3,62.9c-0.1,4.6,0,8.6,0,10.8l0.1,0L24.2,78v-29c-1.9,0-3.5-0.7-4.3-1.7c-1.9,0.7-5,1.8-6.6,2.4
						c-0.6,0.2-1.1,0.7-1.5,1.3C12.5,52.2,13.5,55.3,13.3,62.9z"/>
				</g>
				<path opacity="0.3" d="M24.2,42.6c0.8,0,1.5-0.2,2.1-0.4l-0.1-0.9l-2,0.4l-2-0.4l-0.1,0.9C22.7,42.4,23.4,42.6,24.2,42.6z"/>
				<path fill="#3F302D" d="M24.2,18.3v5.6c0,0,2.2,3,7.1,2.9C32.2,20.8,25.6,18.3,24.2,18.3z"/>
				<path fill="#5D3719" d="M16.9,29.6c1.6-0.1,5.3,0.2,7.3-6.2v-6c0,0-5.5,2.4-6.8,3.9C16,22.9,16,24.6,16.9,29.6z"/>
			</g>
		</g>
	</g>
</g>
</svg>
