<svg xmlns="http://www.w3.org/2000/svg" width="110" height="110" viewBox="0 0 110 110"><circle fill="#a5dbdb" cx="55" cy="55" r="50.3"/><g fill="#FFF"><path d="M51.4 67.1H33.1V32.8c0-1.1-.9-2-2-2h-1.4c-1.1 0-2 .9-2 2v37.7c0 1.1.9 2 2 2h21.8c1.1 0 2-.9 2-2v-1.4c-.1-1.1-1-2-2.1-2zM81 34.3c-2.5-2.3-6-3.5-10.4-3.5H58.9c-1.1 0-2 .9-2 2v37.7c0 1.1.9 2 2 2h1.4c1.1 0 2-.9 2-2V56.3h8.4c4.4 0 7.9-1.2 10.4-3.5s3.8-5.5 3.8-9.3c-.1-3.7-1.4-6.9-3.9-9.2zM70.6 50.9h-8.4V36.2h8.4c3 0 5.3.7 6.7 2.1 1.4 1.4 2.1 3.1 2.1 5.3 0 2.1-.7 3.8-2.1 5.2-1.4 1.4-3.6 2.1-6.7 2.1z"/></g></svg>