<?xml version="1.0" encoding="utf-8"?>
<!-- Generator: Adobe Illustrator 16.0.4, SVG Export Plug-In . SVG Version: 6.00 Build 0)  -->
<!DOCTYPE svg PUBLIC "-//W3C//DTD SVG 1.1//EN" "http://www.w3.org/Graphics/SVG/1.1/DTD/svg11.dtd">
<svg version="1.1" id="Layer_1" xmlns="http://www.w3.org/2000/svg" xmlns:xlink="http://www.w3.org/1999/xlink" x="0px" y="0px"
	 width="30px" height="30px" viewBox="0 0 30 30" enable-background="new 0 0 30 30" xml:space="preserve">
<g>
	<path fill="#FFFFFF" d="M12.4,27.5c0-0.7,0.6-2.4,2.7-2.4c1.2,0,2.4,1,2.4,2.6c0,1.4-1.1,2.4-2.4,2.4C14.2,30,12.4,29.5,12.4,27.5z
		 M17.2,2.5c0,0.9-1.5,13.6-1.6,17.7c0,0.2,0,0.3-0.3,0.3h-0.8c-0.3,0-0.3-0.2-0.3-0.4C14.2,16,13,4.3,13,2.5C13,1.2,13.9,0,15.1,0
		C16.2,0,17.4,0.7,17.2,2.5z"/>
</g>
</svg>
