<?xml version="1.0" encoding="utf-8"?>
<!-- Generator: Adobe Illustrator 16.0.4, SVG Export Plug-In . SVG Version: 6.00 Build 0)  -->
<!DOCTYPE svg PUBLIC "-//W3C//DTD SVG 1.1//EN" "http://www.w3.org/Graphics/SVG/1.1/DTD/svg11.dtd">
<svg version="1.1" id="Layer_1" xmlns="http://www.w3.org/2000/svg" xmlns:xlink="http://www.w3.org/1999/xlink" x="0px" y="0px"
	 width="110px" height="110px" viewBox="0 0 110 110" enable-background="new 0 0 110 110" xml:space="preserve">
<g id="label_1_">
	<circle fill="#BC7285" cx="55" cy="55" r="55"/>
</g>
<g>
	<path fill="#FFFFFF" d="M24,58.4v10.7h-4.7V40.9h10.8c3.1,0,5.6,0.8,7.3,2.4c1.8,1.6,2.6,3.7,2.6,6.4c0,2.7-0.9,4.8-2.6,6.4
		c-1.8,1.6-4.2,2.4-7.3,2.4H24z M24,54.6h6.1c1.7,0,3.1-0.5,3.9-1.4c0.9-0.9,1.3-2.1,1.3-3.6c0-1.4-0.4-2.6-1.3-3.6
		c-0.9-1-2.2-1.4-3.9-1.4H24V54.6z"/>
	<path fill="#FFFFFF" d="M45.3,69.1V40.9h9.3c3.6,0,6.5,1.1,8.7,3.4c2.2,2.2,3.4,5.1,3.4,8.6v4.3c0,3.5-1.1,6.4-3.4,8.6
		c-2.2,2.2-5.2,3.3-8.7,3.3H45.3z M50,44.7v20.7h4.6c2.3,0,4.1-0.8,5.4-2.3c1.3-1.5,2-3.5,2-5.9v-4.3c0-2.4-0.7-4.3-2-5.9
		c-1.3-1.5-3.1-2.3-5.4-2.3H50z"/>
	<path fill="#FFFFFF" d="M88.8,57.1H77.4v12.1h-4.7V40.9h18.1v3.8H77.4v8.6h11.4V57.1z"/>
</g>
</svg>
