<?xml version="1.0" encoding="utf-8"?>
<!-- Generator: Adobe Illustrator 16.0.4, SVG Export Plug-In . SVG Version: 6.00 Build 0)  -->
<!DOCTYPE svg PUBLIC "-//W3C//DTD SVG 1.1//EN" "http://www.w3.org/Graphics/SVG/1.1/DTD/svg11.dtd">
<svg version="1.1" id="Layer_1" xmlns="http://www.w3.org/2000/svg" xmlns:xlink="http://www.w3.org/1999/xlink" x="0px" y="0px"
	 width="110px" height="110px" viewBox="0 0 110 110" enable-background="new 0 0 110 110" xml:space="preserve">
<g id="label_1_">
	<circle fill="#1D9ACF" cx="55" cy="55" r="50.3"/>
</g>
<g>
	<g>
		<g>
			<polygon fill="#F48252" points="95.018,70.896 87.124,75.236 71.142,44.258 73.115,32.616 			"/>
			<polygon fill="#EDE8DA" points="96.4,73.46 88.508,77.606 87.124,75.236 95.018,70.896 			"/>
			<polygon fill="#F48252" points="73.115,32.616 71.142,44.258 71.142,86.285 55.949,86.285 55.949,31.827 57.923,31.827 
				66.013,29.459 			"/>
			<polygon fill="#EDE8DA" points="66.013,29.459 61.275,36.562 57.923,31.827 63.249,25.315 			"/>
		</g>
		<g>
			<polygon fill="#FEC03F" points="16.682,70.896 24.574,75.236 40.558,44.258 38.584,32.616 			"/>
			<polygon fill="#FFFFFF" points="15.3,73.46 23.193,77.606 24.574,75.236 16.682,70.896 			"/>
			<polygon fill="#FEC03F" points="38.584,32.616 40.558,44.258 40.558,86.285 55.751,86.285 55.949,31.827 53.778,31.827 
				45.688,29.459 			"/>
			<g>
				<g>
					<rect x="53.976" y="31.827" fill="#FFFFFF" width="1.974" height="54.659"/>
				</g>
				<g>
					<rect x="55.949" y="31.827" fill="#EDE8DA" width="1.974" height="54.659"/>
				</g>
			</g>
			<polygon fill="#FFFFFF" points="45.688,29.459 50.424,36.562 53.778,31.827 48.648,25.315 			"/>
		</g>
		<g>
			<g>
				<path fill="#008DC5" d="M56.737,80.959c0-0.393-0.395-0.79-0.788-0.79v1.777C56.343,81.946,56.737,81.553,56.737,80.959z"/>
				<path fill="#008DC5" d="M56.737,52.546c0-0.395-0.395-0.79-0.788-0.79v1.777C56.343,53.335,56.737,52.94,56.737,52.546z"/>
				<path fill="#008DC5" d="M56.737,71.486c0-0.394-0.395-0.786-0.788-0.786v1.772C56.343,72.473,56.737,72.08,56.737,71.486z"/>
				<path fill="#008DC5" d="M56.737,62.018c0-0.397-0.395-0.791-0.788-0.791v1.777C56.343,62.808,56.737,62.41,56.737,62.018z"/>
				<path fill="#008DC5" d="M56.737,33.405c0-0.395-0.395-0.789-0.788-0.789v1.775C56.343,34.392,56.737,33.997,56.737,33.405z"/>
				<path fill="#008DC5" d="M56.737,43.074c0-0.394-0.395-0.789-0.788-0.789v1.776C56.343,43.863,56.737,43.469,56.737,43.074z"/>
			</g>
			<g>
				<path fill="#00B9B5" d="M54.962,80.959c0,0.394,0.394,0.79,0.789,0.79v-1.776C55.356,80.169,54.962,80.566,54.962,80.959z"/>
				<path fill="#00B9B5" d="M54.962,71.486c0,0.396,0.394,0.79,0.789,0.79V70.5C55.356,70.7,54.962,71.093,54.962,71.486z"/>
				<path fill="#00B9B5" d="M54.962,62.018c0,0.393,0.394,0.79,0.789,0.79V61.03C55.356,61.227,54.962,61.62,54.962,62.018z"/>
				<path fill="#00B9B5" d="M54.962,33.405c0,0.395,0.394,0.789,0.789,0.789v-1.776C55.356,32.616,54.962,33.01,54.962,33.405z"/>
				<path fill="#00B9B5" d="M54.962,52.546c0,0.394,0.394,0.789,0.789,0.789V51.56C55.356,51.756,54.962,51.954,54.962,52.546z"/>
				<path fill="#00B9B5" d="M54.962,43.074c0,0.395,0.394,0.789,0.789,0.789v-1.775C55.356,42.087,54.962,42.482,54.962,43.074z"/>
			</g>
		</g>
	</g>
</g>
</svg>
