<?xml version="1.0" encoding="utf-8"?>
<!-- Generator: Adobe Illustrator 16.0.4, SVG Export Plug-In . SVG Version: 6.00 Build 0)  -->
<!DOCTYPE svg PUBLIC "-//W3C//DTD SVG 1.1//EN" "http://www.w3.org/Graphics/SVG/1.1/DTD/svg11.dtd">
<svg version="1.1" id="Layer_1" xmlns="http://www.w3.org/2000/svg" xmlns:xlink="http://www.w3.org/1999/xlink" x="0px" y="0px"
	 width="71px" height="34.75px" viewBox="-9.5 7.1 71 34.75" enable-background="new -9.5 7.1 71 34.75" xml:space="preserve">


<g id="pages">
				<path fill="#ccc" d="M-4.227,11.758c-0.733,0-1.327,0.594-1.327,1.327v17.83c0,0.732,0.594,1.326,1.327,1.326H8.046 c0.733, 0,1.327-.594,1.327-1.326V17.397l-5.639-5.639H-4.227z"/>
				<path opacity="0.3" fill="#FFFFFF" d="M3.734,13.084v1.659v1.327c0,0.733,0.594,1.327,1.327,1.327h1.327h1.658h1.327l-5.639-5.639 V13.084z"/>
				<polygon opacity="0.15" points="9.374,21.828 9.374,17.397 4.729,17.397 	"/>
				<path fill="#ccc" d="M11.945,11.758c-0.733,0-1.327,0.594-1.327,1.327v17.83c0,0.732,0.594,1.326,1.327,1.326h12.273 c0.733,0,1.327-.594,1.327-1.326V17.397l-5.639-5.639H11.945z"/>
				<path opacity="0.3" fill="#FFFFFF" d="M19.906,13.084v1.659v1.327c0,0.733,0.594,1.327,1.327,1.327h1.326h1.659h1.327l-5.639-5.639 V13.084z"/>
				<polygon opacity="0.15" points="25.545,21.828 25.545,17.397 20.901,17.397 	"/>
				<path fill="#ccc" d="M28.448,11.758c-0.732,0-1.328,0.594-1.328,1.327v17.83c0,0.732,0.596,1.326,1.328,1.326h12.273 c0.732,0,1.326-.594,1.326-1.326V17.397l-5.639-5.639H28.448z"/>
				<path opacity="0.3" fill="#FFFFFF" d="M36.409,13.084v1.659v1.327c0,0.733,0.594,1.327,1.326,1.327h1.328h1.658h1.326l-5.639-5.639 V13.084z"/>
				<polygon opacity="0.15" points="42.048,21.828 42.048,17.397 37.405,17.397 	"/>
				<path fill="#ccc" d="M45.448,11.758c-0.732,0-1.326,0.594-1.326,1.327v17.83c0,0.732,0.594,1.326,1.326,1.326h12.273 c0.734,0,1.328-.594,1.328-1.326V17.397l-5.641-5.639H45.448z"/>
				<path opacity="0.3" fill="#FFFFFF" d="M53.409,13.084v1.659v1.327c0,0.733,0.596,1.327,1.328,1.327h1.326h1.658h1.328l-5.641-5.639 V13.084z"/>
				<polygon opacity="0.15" points="59.05,21.828 59.05,17.397 54.405,17.397 	"/>
			</g>


</svg>
