<svg xmlns="http://www.w3.org/2000/svg" width="102px" height="102px" viewBox="0 0 102 102">
	<path fill="#666" fill-rule="evenodd" clip-rule="evenodd" d="M51.1,1c27.6,0,49.9,22.5,49.9,50c-0.1,27.7-22.5,50-50.1,50
		C23.3,100.9,1,78.6,1,51C1,23.3,23.4,1,51.1,1z M53.9,59.4c0.1,0.2,0.2,0.3,0.3,0.5c-1.9,1.8-3.8,3.6-5.7,5.5
		c-1.9,1.9-3.9,3.8-5.7,5.8c-2.3,2.4-2.3,4.5,0,6.9c1.5,1.6,3.1,3.2,4.7,4.7c2.5,2.5,4.8,2.5,7.4,0c9.4-9.3,18.7-18.6,28-28
		c2.5-2.5,2.5-4.9,0-7.4c-9.3-9.4-18.6-18.7-28-28c-0.2-0.2-0.5-0.5-0.8-0.7c-2.1-1.6-4.3-1.6-6.2,0.3c-1.7,1.6-3.3,3.2-4.9,4.9
		c-2.6,2.6-2.6,4.8,0,7.5c3.3,3.3,6.6,6.6,9.9,9.9c0.4,0.4,0.7,0.9,1.3,1.5c-1.1,0-1.9,0-2.7,0c-9.5,0-19,0-28.5,0
		c-3.9,0-5.4,1.5-5.4,5.5c0,2.1,0,4.2,0,6.3c0,3.4,1.6,5,5,5c7.2,0,14.4,0,21.7,0C47.5,59.4,50.7,59.4,53.9,59.4z"/>
</svg>
