<?xml version="1.0" encoding="utf-8"?>
<!-- Generator: Adobe Illustrator 16.0.4, SVG Export Plug-In . SVG Version: 6.00 Build 0)  -->
<!DOCTYPE svg PUBLIC "-//W3C//DTD SVG 1.1//EN" "http://www.w3.org/Graphics/SVG/1.1/DTD/svg11.dtd">
<svg version="1.1" id="Layer_1" xmlns="http://www.w3.org/2000/svg" xmlns:xlink="http://www.w3.org/1999/xlink" x="0px" y="0px"
	 width="61.7px" height="61.7px" viewBox="0 0 61.7 61.7" enable-background="new 0 0 61.7 61.7" xml:space="preserve">
<g>
	<g>
		<g>
			<g>
				<path fill="#00B9B5" d="M30.9,38.9H12.4V15.8h18.5v-2.1H12c-0.9,0-1.7,0.7-1.7,1.7v23.9c0,0.9,0.7,1.7,1.7,1.7h15.3h3.5V38.9z"
					/>
				<path fill="#008DC5" d="M49.8,13.7H30.9v2.1h18.5v23.1H30.9V41h3.5h15.3c0.9,0,1.7-0.7,1.7-1.7V15.4
					C51.4,14.5,50.7,13.7,49.8,13.7z"/>
				<rect x="30.9" y="15.8" fill="#EDE8DA" width="18.5" height="23.1"/>
				<rect x="12.4" y="15.8" fill="#FFFFFF" width="18.5" height="23.1"/>
				<rect x="30.9" y="41" fill="#EDE8DA" width="3.5" height="4.5"/>
				<rect x="27.3" y="41" fill="#FFFFFF" width="3.5" height="4.5"/>
				<polygon fill="#008DC5" points="30.9,48 38.4,48 38.4,45.5 34.4,45.5 30.9,45.5 				"/>
				<polygon fill="#00B9B5" points="27.3,45.5 23.3,45.5 23.3,48 30.9,48 30.9,45.5 				"/>
			</g>
			<g>
				<g>
					<rect x="15.2" y="18.2" fill="#C7235D" width="7.6" height="5.1"/>
					<rect x="15.2" y="24.9" fill="#8CC669" width="7.6" height="1.6"/>
					<g>
						<g>
							<rect x="15.2" y="27.8" fill="#5D3719" width="7.6" height="0.8"/>
						</g>
						<g>
							<rect x="15.2" y="29.4" fill="#5D3719" width="7.6" height="0.8"/>
						</g>
						<g>
							<rect x="15.2" y="31.1" fill="#5D3719" width="7.6" height="0.8"/>
						</g>
						<g>
							<rect x="15.2" y="32.8" fill="#5D3719" width="7.6" height="0.8"/>
						</g>
						<g>
							<rect x="15.2" y="34.4" fill="#5D3719" width="7.6" height="0.8"/>
						</g>
						<g>
							<rect x="15.2" y="36.1" fill="#5D3719" width="7.6" height="0.8"/>
						</g>
					</g>
				</g>
				<g>
					<rect x="38.9" y="18.2" fill="#8CC669" width="7.6" height="5.1"/>
					<rect x="38.9" y="24.9" fill="#FEC03F" width="7.6" height="1.6"/>
					<g>
						<g>
							<rect x="38.9" y="27.8" fill="#3F302D" width="7.6" height="0.8"/>
						</g>
						<g>
							<rect x="38.9" y="29.4" fill="#3F302D" width="7.6" height="0.8"/>
						</g>
						<g>
							<rect x="38.9" y="31.1" fill="#3F302D" width="7.6" height="0.8"/>
						</g>
						<g>
							<rect x="38.9" y="32.8" fill="#3F302D" width="7.6" height="0.8"/>
						</g>
						<g>
							<rect x="38.9" y="34.4" fill="#3F302D" width="7.6" height="0.8"/>
						</g>
						<g>
							<rect x="38.9" y="36.1" fill="#3F302D" width="7.6" height="0.8"/>
						</g>
					</g>
				</g>
				<g>
					<g>
						<rect x="27.1" y="18.2" fill="#FEC03F" width="3.8" height="5.1"/>
						<rect x="30.9" y="18.2" fill="#F48252" width="3.8" height="5.1"/>
					</g>
					<g>
						<rect x="30.9" y="24.9" fill="#008DC5" width="3.8" height="1.6"/>
						<rect x="27.1" y="24.9" fill="#00B9B5" width="3.8" height="1.6"/>
					</g>
					<g>
						<g>
							<rect x="30.9" y="27.8" fill="#3F302D" width="3.8" height="0.8"/>
							<rect x="30.9" y="29.4" fill="#3F302D" width="3.8" height="0.8"/>
							<rect x="30.9" y="31.1" fill="#3F302D" width="3.8" height="0.8"/>
							<rect x="30.9" y="32.8" fill="#3F302D" width="3.8" height="0.8"/>
							<rect x="30.9" y="34.4" fill="#3F302D" width="3.8" height="0.8"/>
							<rect x="30.9" y="36.1" fill="#3F302D" width="3.8" height="0.8"/>
						</g>
						<g>
							<rect x="27.1" y="27.8" fill="#5D3719" width="3.8" height="0.8"/>
							<rect x="27.1" y="29.4" fill="#5D3719" width="3.8" height="0.8"/>
							<rect x="27.1" y="31.1" fill="#5D3719" width="3.8" height="0.8"/>
							<rect x="27.1" y="32.8" fill="#5D3719" width="3.8" height="0.8"/>
							<rect x="27.1" y="34.4" fill="#5D3719" width="3.8" height="0.8"/>
							<rect x="27.1" y="36.1" fill="#5D3719" width="3.8" height="0.8"/>
						</g>
					</g>
				</g>
			</g>
		</g>
		<g>
			<g>
				<polygon fill="#F48252" points="37.4,34.4 37.9,34.8 39.3,36.2 39.7,35.8 38.3,34.3 37.9,33.9 				"/>
				<polygon fill="#FEC03F" points="37,34.8 37.4,35.2 38.8,36.6 39.3,36.2 37.9,34.8 37.4,34.4 				"/>
			</g>
			<g>
				<polygon fill="#3F302D" points="39.7,35.7 39.3,36.2 39.4,36.3 46.9,43.9 48,42.8 40.3,35.2 				"/>
				<polygon fill="#5D3719" points="38.8,36.7 38.2,37.2 45.9,44.9 46.9,43.9 39.4,36.3 39.3,36.2 				"/>
			</g>
			<g>
				<path fill="#C7235D" d="M28.4,25.4l1.3,1.3c1.9-1.9,4.9-1.9,6.8,0s1.9,4.9,0,6.8l1.3,1.3c2.6-2.6,2.6-6.8,0-9.4
					S31.1,22.8,28.4,25.4z"/>
				<path fill="#ED4052" d="M29.8,26.7l-1.3-1.3c-2.6,2.6-2.6,6.8,0,9.4c2.6,2.6,6.8,2.6,9.4,0l-1.3-1.3c-1.9,1.9-4.9,1.9-6.8,0
					C27.9,31.6,27.9,28.6,29.8,26.7z"/>
			</g>
			<g>
				<path opacity="0.2" fill="#EDE8DA" d="M36.6,26.7c-1.9-1.9-4.9-1.9-6.8,0l6.8,6.8C38.4,31.6,38.4,28.6,36.6,26.7z"/>
				<path opacity="0.2" fill="#FFFFFF" d="M29.8,33.5c1.9,1.9,4.9,1.9,6.8,0l-6.8-6.8C27.9,28.6,27.9,31.6,29.8,33.5z"/>
			</g>
		</g>
	</g>
</g>
</svg>
