<?xml version="1.0" encoding="utf-8"?>
<!-- Generator: Adobe Illustrator 16.0.4, SVG Export Plug-In . SVG Version: 6.00 Build 0)  -->
<!DOCTYPE svg PUBLIC "-//W3C//DTD SVG 1.1//EN" "http://www.w3.org/Graphics/SVG/1.1/DTD/svg11.dtd">
<svg version="1.1" id="Layer_1" xmlns="http://www.w3.org/2000/svg" xmlns:xlink="http://www.w3.org/1999/xlink" x="0px" y="0px"
	 width="110px" height="110px" viewBox="0 0 110 110" enable-background="new 0 0 110 110" xml:space="preserve">
<g id="label_1_" opacity="0.4">
	<circle fill="#FFFFFF" cx="55" cy="55" r="50.3"/>
</g>
<g>
	<path fill="#FFFFFF" d="M44.5,32.1c-0.3-0.8-1-1.3-1.9-1.3H41c-0.8,0-1.6,0.5-1.9,1.3L25,69.8c-0.2,0.6-0.1,1.3,0.2,1.8
		c0.4,0.5,1,0.9,1.6,0.9h1.5c0.8,0,1.6-0.5,1.9-1.3l3.7-10h15.6l3.7,10c0.3,0.8,1,1.3,1.9,1.3h1.5c0,0,0,0,0,0c1.1,0,2-0.9,2-2
		c0-0.3-0.1-0.7-0.2-1L44.5,32.1z M36,55.8l5.8-15.5l5.8,15.5H36z"/>
	<path fill="#FFFFFF" d="M79.4,56.8c-1.9-1.4-4.4-2.5-7.9-3.3c-4-0.9-5.4-1.8-5.9-2.2c-0.7-0.7-1.1-1.4-1.1-2.3
		c0-0.6,0.1-1.4,1.3-2.4c1-0.8,2.5-1.2,4.7-1.2c2.1,0,3.8,0.5,5,1.5c1.1,0.9,1.6,1.9,1.6,3.1c0,1.1,0.9,2,2,2h1.2
		c0.9,0,1.6-0.6,1.9-1.4l0.1-0.2c0.1-0.2,0.1-0.4,0.1-0.6c0.1-2.9-1-5.5-3.3-7.3c-2.1-1.7-5-2.6-8.6-2.6c-3.3,0-6,0.8-8.1,2.5
		c-2.1,1.7-3.3,4-3.3,6.6c0,3.5,1.7,5.5,3,6.6c1.7,1.3,4.4,2.3,8,3.1c3.5,0.8,5,1.7,5.7,2.3c0.9,0.8,1.3,1.7,1.3,2.6
		c0,0.6-0.2,1.5-1.5,2.6c-1.1,0.9-2.8,1.4-4.9,1.4c-2,0-3.8-0.4-5.3-1.2c-1.2-0.7-1.7-1.6-1.8-3.2c-0.1-1.1-0.9-1.9-2-1.9h-1.1
		c-0.9,0-1.6,0.6-1.9,1.4l-0.1,0.2c-0.1,0.2-0.1,0.3-0.1,0.5c-0.2,2.7,1,5.2,3.4,7c2.2,1.7,5.2,2.6,8.9,2.6c3.4,0,6.2-0.8,8.3-2.5
		c2.3-1.7,3.5-4.1,3.5-6.9C82.6,60.8,81.5,58.5,79.4,56.8z"/>
</g>
</svg>
