<?xml version="1.0" encoding="utf-8"?>
<!-- Generator: Adobe Illustrator 16.0.4, SVG Export Plug-In . SVG Version: 6.00 Build 0)  -->
<!DOCTYPE svg PUBLIC "-//W3C//DTD SVG 1.1//EN" "http://www.w3.org/Graphics/SVG/1.1/DTD/svg11.dtd">
<svg version="1.1" id="Layer_1" xmlns="http://www.w3.org/2000/svg" xmlns:xlink="http://www.w3.org/1999/xlink" x="0px" y="0px"
	 width="61.7px" height="61.7px" viewBox="0 0 61.7 61.7" enable-background="new 0 0 61.7 61.7" xml:space="preserve">
<g>
	<g>
		<g>
			<polygon fill="#F48252" points="50.7,38.5 46.7,40.7 38.6,25 39.6,19.1 			"/>
			<polygon fill="#EDE8DA" points="51.4,39.8 47.4,41.9 46.7,40.7 50.7,38.5 			"/>
			<polygon fill="#F48252" points="39.6,19.1 38.6,25 38.6,46.3 30.9,46.3 30.9,18.7 31.9,18.7 36,17.5 			"/>
			<polygon fill="#EDE8DA" points="36,17.5 33.6,21.1 31.9,18.7 34.6,15.4 			"/>
		</g>
		<g>
			<polygon fill="#FEC03F" points="11,38.5 15,40.7 23.1,25 22.1,19.1 			"/>
			<polygon fill="#FFFFFF" points="10.3,39.8 14.3,41.9 15,40.7 11,38.5 			"/>
			<polygon fill="#FEC03F" points="22.1,19.1 23.1,25 23.1,46.3 30.8,46.3 30.9,18.7 29.8,18.7 25.7,17.5 			"/>
			<g>
				<g>
					<rect x="29.9" y="18.7" fill="#FFFFFF" width="1" height="27.7"/>
				</g>
				<g>
					<rect x="30.9" y="18.7" fill="#EDE8DA" width="1" height="27.7"/>
				</g>
			</g>
			<polygon fill="#FFFFFF" points="25.7,17.5 28.1,21.1 29.8,18.7 27.2,15.4 			"/>
		</g>
		<g>
			<g>
				<path fill="#008DC5" d="M31.3,43.6c0-0.2-0.2-0.4-0.4-0.4v0.9C31.1,44.1,31.3,43.9,31.3,43.6z"/>
				<path fill="#008DC5" d="M31.3,29.2c0-0.2-0.2-0.4-0.4-0.4v0.9C31.1,29.6,31.3,29.4,31.3,29.2z"/>
				<path fill="#008DC5" d="M31.3,38.8c0-0.2-0.2-0.4-0.4-0.4v0.9C31.1,39.3,31.3,39.1,31.3,38.8z"/>
				<path fill="#008DC5" d="M31.3,34c0-0.2-0.2-0.4-0.4-0.4v0.9C31.1,34.4,31.3,34.2,31.3,34z"/>
				<path fill="#008DC5" d="M31.3,19.5c0-0.2-0.2-0.4-0.4-0.4V20C31.1,20,31.3,19.8,31.3,19.5z"/>
				<path fill="#008DC5" d="M31.3,24.4c0-0.2-0.2-0.4-0.4-0.4v0.9C31.1,24.8,31.3,24.6,31.3,24.4z"/>
			</g>
			<g>
				<path fill="#00B9B5" d="M30.4,43.6c0,0.2,0.2,0.4,0.4,0.4v-0.9C30.6,43.2,30.4,43.4,30.4,43.6z"/>
				<path fill="#00B9B5" d="M30.4,38.8c0,0.2,0.2,0.4,0.4,0.4v-0.9C30.6,38.4,30.4,38.6,30.4,38.8z"/>
				<path fill="#00B9B5" d="M30.4,34c0,0.2,0.2,0.4,0.4,0.4v-0.9C30.6,33.6,30.4,33.8,30.4,34z"/>
				<path fill="#00B9B5" d="M30.4,19.5c0,0.2,0.2,0.4,0.4,0.4v-0.9C30.6,19.1,30.4,19.3,30.4,19.5z"/>
				<path fill="#00B9B5" d="M30.4,29.2c0,0.2,0.2,0.4,0.4,0.4v-0.9C30.6,28.8,30.4,28.9,30.4,29.2z"/>
				<path fill="#00B9B5" d="M30.4,24.4c0,0.2,0.2,0.4,0.4,0.4v-0.9C30.6,23.9,30.4,24.1,30.4,24.4z"/>
			</g>
		</g>
	</g>
</g>
</svg>
