<?xml version="1.0" encoding="utf-8"?>
<!-- Generator: Adobe Illustrator 16.0.4, SVG Export Plug-In . SVG Version: 6.00 Build 0)  -->
<!DOCTYPE svg PUBLIC "-//W3C//DTD SVG 1.1//EN" "http://www.w3.org/Graphics/SVG/1.1/DTD/svg11.dtd">
<svg version="1.1" id="Layer_1" xmlns="http://www.w3.org/2000/svg" xmlns:xlink="http://www.w3.org/1999/xlink" x="0px" y="0px"
	 width="110px" height="110px" viewBox="0 0 110 110" enable-background="new 0 0 110 110" xml:space="preserve">
<g id="label_1_">
	<circle fill="#F29B71" cx="55" cy="55" r="55"/>
</g>
<path fill="#FFFFFF" d="M86.2,40.7c0,0,0-0.1,0.1-0.1c0,0,0-0.1,0.1-0.1c0.1-0.2,0.2-0.4,0.2-0.6c0,0,0,0,0,0
	c0.1-0.2,0.1-0.4,0.1-0.6c0-0.1,0-0.1,0-0.2c0-0.2,0-0.4,0-0.7c0-0.4-0.1-0.9-0.2-1.3c0,0,0,0,0,0c0,0,0-0.1,0-0.1c0,0,0-0.1,0-0.1
	c-4.2-14.1-17.3-24.4-32.7-24.4C38.3,12.6,25.2,23,21,37.2c0,0,0,0,0,0c-0.1,0.4-0.2,0.8-0.2,1.3c0,0.2,0,0.4,0,0.7
	c0,0.1,0,0.1,0,0.2c0,0.2,0.1,0.4,0.1,0.6c0,0,0,0,0,0c0.1,0.2,0.1,0.4,0.2,0.6c0,0,0,0.1,0.1,0.1c0,0,0,0.1,0.1,0.1
	c-1.1,5.6-0.7,11.4,1.3,17.2c0.5,1.4,1.8,2.2,3.2,2.2l1.6,6.1c-0.3,0.2-0.7,0.4-1,0.7l0,0.2c-2,1.8-3,4.7-2.3,7.5L27.7,87
	c1.1,4,5.1,6.3,9.1,5.2c0.1,0,0.3-0.1,0.4-0.1c1.8,2.4,4.8,3.5,7.9,2.7c4-1.1,6.3-5.1,5.2-9.1l-5.8-21.5c-1.1-4-5.1-6.3-9.1-5.2
	c-3,0.8-5.1,3.4-5.4,6.3c-0.1,0-0.1,0-0.2,0c0,0,0-0.1,0-0.1c-0.1,0-0.3,0.1-0.4,0.1c0,0,0,0,0,0l-1.6-5.9c0.2-0.1,0.4-0.3,0.5-0.5
	c0,0,0,0,0,0c0,0,0.1-0.1,0.1-0.1c0,0,0.1-0.1,0.1-0.1c0.1-0.1,0.2-0.3,0.3-0.4c0,0,0-0.1,0.1-0.1c0.1-0.1,0.1-0.3,0.1-0.4
	c0-0.1,0-0.1,0-0.2c0-0.2,0.1-0.3,0.1-0.5c0,0,0-0.1,0-0.1c0-0.1,0-0.3,0-0.4c0-0.1,0-0.1,0-0.2c0-0.1-0.1-0.3-0.1-0.4
	c0-0.1,0-0.1,0-0.2c-0.9-2.7-1.4-5.5-1.5-8.2c0-1.1,0-2.2,0.2-3.4c0,0,0,0,0,0c0-0.4,0.1-0.9,0.2-1.3c0,0,0,0,0,0
	c0.1,0,0.2-0.1,0.2-0.1c0.1-0.1,0.2-0.1,0.3-0.2c0.1-0.1,0.2-0.1,0.2-0.2c0.1-0.1,0.2-0.2,0.3-0.3c0.1-0.1,0.1-0.1,0.2-0.2
	c0.1-0.1,0.2-0.2,0.3-0.3c0.1-0.1,0.1-0.2,0.2-0.2c0.1-0.1,0.2-0.3,0.2-0.4c0-0.1,0.1-0.1,0.1-0.2c0.1-0.2,0.2-0.5,0.3-0.7l0,0
	c3-10.1,12.5-17.5,23.6-17.5c11.1,0,20.5,7.4,23.6,17.5c0,0,0,0,0,0c0.1,0.2,0.2,0.5,0.3,0.7c0,0.1,0.1,0.1,0.1,0.2
	c0.1,0.1,0.1,0.3,0.2,0.4c0.1,0.1,0.1,0.2,0.2,0.2c0.1,0.1,0.2,0.2,0.3,0.3c0.1,0.1,0.1,0.2,0.2,0.2c0.1,0.1,0.2,0.2,0.3,0.3
	c0.1,0.1,0.2,0.1,0.2,0.2c0.1,0.1,0.2,0.2,0.3,0.2c0.1,0.1,0.2,0.1,0.3,0.2c0,0.2,0,0.3,0.1,0.5c0,0.3,0.1,0.5,0.1,0.8
	c0.1,1.1,0.2,2.2,0.2,3.4c0,2.8-0.5,5.6-1.5,8.4c0,0.1,0,0.1,0,0.2c0,0.1-0.1,0.3-0.1,0.4c0,0.1,0,0.1,0,0.2c0,0.2,0,0.3,0,0.5
	c0,0,0,0.1,0,0.1c0,0.2,0,0.3,0.1,0.5c0,0.1,0,0.1,0,0.2c0,0.2,0.1,0.3,0.2,0.5c0,0,0,0,0,0.1c0.1,0.2,0.2,0.3,0.3,0.4
	c0,0,0,0.1,0.1,0.1c0,0,0,0.1,0.1,0.1c0,0,0,0,0,0c0.1,0.1,0.2,0.3,0.3,0.4l-1.6,5.9c-0.1,0-0.2,0-0.3-0.1c0,0,0,0.1,0,0.1
	c0,0,0,0,0,0c-0.4-2.9-2.4-5.5-5.4-6.3c-4-1.1-8,1.3-9.1,5.2l-5.8,21.5c-1.1,4,1.3,8,5.2,9.1c3,0.8,6.1-0.4,7.9-2.7
	c0.1,0,0.3,0.1,0.4,0.1c4,1.1,8-1.3,9.1-5.2l3.4-12.5c0.8-2.9-0.3-5.8-2.4-7.6l0-0.1c-0.3-0.3-0.7-0.6-1.1-0.8l1.6-5.8
	c0.9,0.1,1.8-0.2,2.5-0.7c0,0,0,0,0,0c0.1-0.1,0.3-0.2,0.4-0.4c0,0,0,0,0,0c0.1-0.1,0.2-0.3,0.3-0.4v0c0.1-0.2,0.2-0.3,0.3-0.5
	c1.4-3.8,2-7.7,1.9-11.5C86.8,44.6,86.6,42.6,86.2,40.7L86.2,40.7z"/>
</svg>
