<?xml version="1.0" encoding="utf-8"?>
<!-- Generator: Adobe Illustrator 16.0.4, SVG Export Plug-In . SVG Version: 6.00 Build 0)  -->
<!DOCTYPE svg PUBLIC "-//W3C//DTD SVG 1.1//EN" "http://www.w3.org/Graphics/SVG/1.1/DTD/svg11.dtd">
<svg version="1.1" id="Layer_1" xmlns="http://www.w3.org/2000/svg" xmlns:xlink="http://www.w3.org/1999/xlink" x="0px" y="0px"
	 width="400px" height="470px" viewBox="0 0 400 470" enable-background="new 0 0 400 470" xml:space="preserve">
<path fill="#6d549c" d="M351.2,369.7c0,2.4,2,4.5,4.5,4.5h33.2c2.5,0,4.5-2,4.5-4.5v-54.2c0-2.5-2-4.5-4.5-4.5h-33.2
	c-2.5,0-4.5,2-4.5,4.5V369.7z M360.2,320h24.2v45.2h-24.2V320z"/>
<path fill="#6d549c" d="M351.2,266.5c0,2.4,2,4.5,4.5,4.5h33.2c2.5,0,4.5-2,4.5-4.5v-54.2c0-2.5-2-4.5-4.5-4.5h-33.2
	c-2.5,0-4.5,2-4.5,4.5V266.5z M360.2,216.8h24.2V262h-24.2V216.8z"/>
<path fill="#6d549c" d="M327.9,207.8h-33.2c-2.5,0-4.5,2-4.5,4.5v54.2c0,2.4,2,4.5,4.5,4.5h33.2c2.5,0,4.5-2,4.5-4.5v-54.2
	C332.4,209.8,330.4,207.8,327.9,207.8z M323.4,262h-24.2v-45.2h24.2V262z"/>
<path fill="#6d549c" d="M355.7,167.8h33.2c2.5,0,4.5-2,4.5-4.5v-54.2c0-2.5-2-4.5-4.5-4.5h-33.2c-2.5,0-4.5,2-4.5,4.5v54.2
	C351.2,165.8,353.2,167.8,355.7,167.8z M360.2,113.6h24.2v45.2h-24.2V113.6z"/>
<path fill="#6d549c" d="M327.9,104.6h-33.2c-2.5,0-4.5,2-4.5,4.5v54.2c0,2.5,2,4.5,4.5,4.5h33.2c2.5,0,4.5-2,4.5-4.5v-54.2
	C332.4,106.6,330.4,104.6,327.9,104.6z M323.4,158.8h-24.2v-45.2h24.2V158.8z"/>
<path fill="#6d549c" d="M105.5,470h48.2v-48.8h-48.2V470z M115.6,430.9h28.1v29.3h-28.1V430.9z"/>
<path fill="#6d549c" d="M393.8,412.6h-43c-3.3,0-6,2.7-6,6V470h12v-45.4h31V470h12v-51.4C399.8,415.3,397.1,412.6,393.8,412.6z"/>
<path fill="#6d549c" d="M303.5,70.1c-18.9-21.2-45.2-30.9-78.4-28.8C203.8,42.6,185,51.9,173.7,67c-6.5,8.6-10.2,18.6-10.9,29
	c-4.9-2.9-10.8-5.2-17.5-6.8C124,84.3,99.6,87.7,83.2,98c-14.6,9.2-23.9,23.4-26.8,41.1c-3.1,19,1.8,40.9,11.9,53.7
	c0,0.5-0.1,1.3-0.2,1.8c0,0.1,0,0.2,0,0.2c-31,13.7-51.5,46.5-51.5,83c0,36.2,20.7,67.7,53.3,81.8l-7.5,6.6
	c-0.7,0.2-1.3,0.6-1.8,1.1c-0.8,0.8-1.3,2-1.3,3.2v10.8c0,7.2,3.2,13.8,8.3,18.7v70h12v-63.1c3,0.9,6.3,1.5,9.6,1.5
	c10.5,0,19.8-5.1,25-12.8c5.3,7.7,14.7,12.8,25.4,12.8c10.4,0,19.5-5,24.8-12.6c5.3,7.6,14.7,12.6,25.4,12.6
	c10.7,0,20.1-5,25.4-12.6c5.2,7.6,14.4,12.6,24.8,12.6c10.7,0,20-5.1,25.3-12.8c5.2,7.7,14.5,12.8,25,12.8c3.7,0,7.2-0.6,10.4-1.7
	V470h31.6v-51.4c0-2.5-2-4.5-4.5-4.5h-15.1v-15c4.6-4.8,7.5-11,7.5-17.9v-6.5h7.6c2.5,0,4.5-2,4.5-4.5V315c0-2.5-2-4.5-4.5-4.5
	h-33.2c-2.5,0-4.5,2-4.5,4.5v27l-11.4-10.5c-0.8-0.8-1.9-1.2-3.1-1.2h-4.9V94.1H400v-24H303.5z M312.8,423.1h10.6v45.2h-10.6V423.1z
	 M311.4,381.3c0,9.8-9.6,18.1-20.9,18.1s-20.5-8.1-20.5-18.1c0-2.5-2-4.5-4.5-4.5s-4.5,2-4.5,4.5c0,9.8-9.5,18.1-20.9,18.1
	c-10.8,0-19.8-7.6-20.3-17.2c-0.1-2.4-2.1-4.2-4.5-4.2c-2.4,0-4.4,1.9-4.4,4.3c-0.4,9.6-9.5,17.1-20.9,17.1
	c-11.3,0-20.4-7.4-20.8-17c0-0.8-0.1-1.5-0.2-1.8c-0.6-2.2-2.7-3.6-4.9-3.3c-2.2,0.3-3.9,2.2-3.9,4.5c0,0.4,0,0.7,0.1,0.9
	c-0.8,9.4-9.7,16.7-20.3,16.7c-11.3,0-20.9-8.3-20.9-18.1c0-2.5-2-4.5-4.5-4.5s-4.5,2-4.5,4.5c0,10-9.2,18.1-20.5,18.1
	c-11.3,0-20.9-8.3-21-18.1v-6.4h242.8V381.3z M299.2,319.6h24.2v46.2h-7.5l-14.5-13.4l-2.2-2.1V319.6z M274,339.4l21.3,19.7l7.3,6.8
	h-226l30.1-26.5H274z M250,69.9c-3.3,0-6,2.7-6,6v12c0,3.3,2.7,6,6,6h8.8v236.3H104.7c-1.1,0-2.2,0.4-3,1.1l-21.8,19.2
	c-0.3-0.2-0.6-0.3-1-0.5c-30.6-11.1-50.3-39.5-50.3-72.4c0-32.7,19-62.1,47.4-73c2.5-1,4.1-3.5,3.8-6.2c0-0.4,0.1-1.4,0.2-2.2
	c0.4-2.8,0.9-7-2-10.6c-7.1-8.6-12.7-26.7-9.8-44.6c1.6-9.9,6.7-23.7,21.4-32.9c13.7-8.5,35-11.5,53-7.3
	c10.5,2.4,18.6,7.1,22.2,12.8c0.3,0.5,0.7,0.9,1.1,1.3c0.2,0.2,0.3,0.3,0.5,0.4c1.1,0.8,2.4,1.2,3.7,1.1h0.2c0.2,0,0.3,0,0.5,0
	c3-0.4,5.3-3.1,5.2-6.2c0-0.9-0.3-1.8-0.7-2.5c-2.3-12.3,0.4-23.9,7.8-33.7c9.3-12.2,24.8-19.9,42.6-21c25-1.5,44.9,4,60.4,16.9H250
	z"/>
<path fill="#6d549c" d="M269.1,422.1h-75c-2.5,0-4.5,2-4.5,4.5V470h9v-38.9h66V470h9v-43.4C273.6,424.1,271.6,422.1,269.1,422.1z"/>
</svg>
