<?xml version="1.0" encoding="utf-8"?>
<!-- Generator: Adobe Illustrator 16.0.4, SVG Export Plug-In . SVG Version: 6.00 Build 0)  -->
<!DOCTYPE svg PUBLIC "-//W3C//DTD SVG 1.1//EN" "http://www.w3.org/Graphics/SVG/1.1/DTD/svg11.dtd">
<svg version="1.1" id="_x33_._Housing" xmlns="http://www.w3.org/2000/svg" xmlns:xlink="http://www.w3.org/1999/xlink" x="0px"
	 y="0px" width="400px" height="470px" viewBox="0 0 400 470" enable-background="new 0 0 400 470" xml:space="preserve">
<g>
	<path fill="#A2Db7d" d="M155.6,154.9C155.6,154.9,155.6,154.9,155.6,154.9l95.6-83.6L400,201.5v-15.9L255.1,58.8
		c-2.3-2-5.6-2-7.9,0l-89.6,78.4V96.2c0-3.3-2.7-6-6-6H115c-3.3,0-6,2.7-6,6v83.5l-85.3,74.6c-1.9,1.6-2.5,4.3-1.7,6.6
		c0.9,2.3,3.1,3.9,5.6,3.9H71V470h12V261.5l168.2-146.5L400,244.7v0v-15.9v0L255.1,102.6c0,0,0,0,0,0l-3.9-3.4l-3.9,3.4c0,0,0,0,0,0
		L74.7,252.8H43.6l93.9-82.2L155.6,154.9z M121,169.2v-67h24.6v45.4l-2.2,1.9L121,169.2z"/>
	<path fill="#A2Db7d" d="M366.9,305h-77.1c-3.3,0-6,2.7-6,6v107.5c0,3.3,2.7,6,6,6h77.1c3.3,0,6-2.7,6-6V311
		C372.9,307.6,370.3,305,366.9,305z M360.9,412.5h-65.1V317h65.1V412.5z"/>
	<path fill="#A2Db7d" d="M212.1,305H137c-3.3,0-6,2.7-6,6v159h12V317h63.2v153h12V311C218.1,307.6,215.4,305,212.1,305z"/>
</g>
</svg>
