<?xml version="1.0" encoding="utf-8"?>
<!-- Generator: Adobe Illustrator 16.0.4, SVG Export Plug-In . SVG Version: 6.00 Build 0)  -->
<!DOCTYPE svg PUBLIC "-//W3C//DTD SVG 1.1//EN" "http://www.w3.org/Graphics/SVG/1.1/DTD/svg11.dtd">
<svg version="1.1" id="_x31_2._Recreation" xmlns="http://www.w3.org/2000/svg" xmlns:xlink="http://www.w3.org/1999/xlink" x="0px"
	 y="0px" width="400px" height="470px" viewBox="0 0 400 470" enable-background="new 0 0 400 470" xml:space="preserve">
<path fill="#f5cf59" d="M150,470h18.9c-1.3-1-2.6-2-3.9-3.1l15.1-15.1l84.3-5.6l50.3,23.7H400v-37.1l-75,35.4l-54-25.5l11.6-54.7
	l59.7-34l-0.1-0.2l57.7,13.8V229l-2.7-32.6l2.7-1.4v-56.7c-32.4-20.7-70.8-32.7-112-32.7c-114.9,0-208.4,93.5-208.4,208.4
	C79.6,376,106.9,431.8,150,470z M162.4,380.5l-49.4-43.5l4.3-70.1l46.5-23.2l48.5,44.9l6.3,57.7L162.4,380.5z M280.8,382.4
	l-56.4-37.1l-6.3-57.8l60.5-26.2l49.4,22.9l10,65.7L280.8,382.4z M391.4,196.5l5.1,61.6l-65.2,21.3l0.1-0.2l-49.4-23l-6.3-64.1
	l53.1-26.7L391.4,196.5z M288,117.6c10.2,0,20.3,0.8,30.1,2.3l3.5,42.1l0.4,0.2l-51.6,25.9l-68.6-12.6l-18.9-27.3
	C213.3,128.8,249.4,117.6,288,117.6z M178,151.4l18.1,26.1l-36.6,61.7l-45.9,23l-13.1-6.3C113.7,212.9,141.5,176.2,178,151.4z
	 M109.2,341.6l51.7,45.4l14,61.7l-14.4,14.4c-34.5-29.6-58.7-70.9-66.2-117.7L109.2,341.6z"/>
</svg>
