<?xml version="1.0" encoding="utf-8"?>
<!-- Generator: Adobe Illustrator 16.0.4, SVG Export Plug-In . SVG Version: 6.00 Build 0)  -->
<!DOCTYPE svg PUBLIC "-//W3C//DTD SVG 1.1//EN" "http://www.w3.org/Graphics/SVG/1.1/DTD/svg11.dtd">
<svg version="1.1" id="_x35_._Clothing" xmlns="http://www.w3.org/2000/svg" xmlns:xlink="http://www.w3.org/1999/xlink" x="0px"
	 y="0px" width="400px" height="470px" viewBox="0 0 400 470" enable-background="new 0 0 400 470" xml:space="preserve">
<path fill="#26A8D4" d="M82.1,290.8c2.3,2.3,6.1,2.3,8.5,0l34.6-34.6V470h12V241.7c0-2.4-1.5-4.6-3.7-5.5c-2.2-0.9-4.8-0.4-6.5,1.3
	L86.3,278l-55.8-55.8l103.9-103.9l56.1-17.3l38.4,58c1.1,1.7,2.9,2.7,4.9,2.7c0,0,0.1,0,0.1,0c0.1,0,0.3,0,0.4,0c0.1,0,0.2,0,0.3,0
	c0.2,0,0.4-0.1,0.7-0.1c0,0,0,0,0,0c1.4-0.3,2.7-1.2,3.5-2.4l23.2-33l12.9,36.7c0.3,0.9,0.8,1.7,1.5,2.3c1.1,1.1,2.5,1.7,4.1,1.7
	c0,0,0,0,0.1,0c0.1,0,0.2,0,0.2,0c2.1-0.1,4-1.2,5-3c0.2-0.3,0.3-0.5,0.4-0.8l14-37.1l23.4,33.2c1,1.4,2.4,2.3,4.1,2.5
	c0,0,0.1,0,0.1,0c0.1,0,0.3,0,0.4,0c0.1,0,0.2,0,0.3,0c0,0,0.1,0,0.1,0c2,0,3.8-1,4.9-2.7l38.4-58l28.1,8.7V97.2l-26.9-8.3l-24-34.3
	c-0.1-0.2-0.3-0.4-0.4-0.5c0,0,0,0,0,0c-0.2-0.2-0.3-0.4-0.5-0.5c-0.1-0.1-0.1-0.1-0.2-0.2c-0.1-0.1-0.3-0.2-0.4-0.3
	c-0.1-0.1-0.2-0.1-0.2-0.1c-0.1-0.1-0.3-0.2-0.4-0.2c-0.1,0-0.2-0.1-0.3-0.1c-0.2-0.1-0.3-0.1-0.5-0.2c-0.1,0-0.1-0.1-0.2-0.1
	c-0.2-0.1-0.5-0.1-0.8-0.2c0,0-0.1,0-0.1,0c-0.2,0-0.4,0-0.6-0.1c0,0-0.1,0-0.1,0c0,0-0.1,0-0.1,0H218.2c0,0-0.1,0-0.1,0
	c0,0-0.1,0-0.1,0c-0.2,0-0.4,0-0.5,0c0,0-0.1,0-0.1,0c-0.3,0-0.5,0.1-0.8,0.2c-0.1,0-0.1,0-0.2,0.1c-0.2,0.1-0.4,0.1-0.5,0.2
	c-0.1,0-0.2,0.1-0.2,0.1c-0.2,0.1-0.3,0.2-0.5,0.2c-0.1,0-0.2,0.1-0.2,0.1c-0.1,0.1-0.3,0.2-0.4,0.3c-0.1,0.1-0.1,0.1-0.2,0.1
	c-0.2,0.2-0.4,0.3-0.5,0.5c0,0,0,0,0,0c-0.2,0.2-0.3,0.4-0.4,0.6l-24,34.3l-59.9,18.4c-0.9,0.3-1.8,0.8-2.5,1.5L17.8,218
	c-1.1,1.1-1.8,2.7-1.8,4.2c0,1.6,0.6,3.1,1.8,4.2L82.1,290.8z M362.1,94.2l-33.8,51l-21.6-30.7l1.3-1.6c0,0,0,0,0,0l35.8-44.8
	L362.1,94.2z M331.5,64.1l-37.9,46.4c-0.4,0.5-0.7,1.1-1,1.7l-11.8,31.3l-10.9-31.2c-0.2-0.5-0.4-0.9-0.7-1.3
	c-0.1-0.2-0.2-0.4-0.4-0.5l-37.9-46.4H331.5z M218.5,68.1l35.8,44.8c0,0,0,0,0,0l1.3,1.6l-21.6,30.7l-33.8-51L218.5,68.1z"/>
<path fill="#26A8D4" d="M281.2,380.8c-4,0-7.4,3.3-7.4,7.3c0,4.1,3.3,7.3,7.4,7.3c4,0,7.3-3.3,7.3-7.3
	C288.6,384.1,285.3,380.8,281.2,380.8z"/>
<path fill="#26A8D4" d="M281.2,298.7c-4,0-7.4,3.3-7.4,7.3c0,4,3.3,7.3,7.4,7.3c4,0,7.3-3.3,7.3-7.3
	C288.6,302,285.3,298.7,281.2,298.7z"/>
<path fill="#26A8D4" d="M281.2,216.6c-4,0-7.4,3.3-7.4,7.4c0,4,3.3,7.3,7.4,7.3c4,0,7.3-3.3,7.3-7.3
	C288.6,219.9,285.3,216.6,281.2,216.6z"/>
</svg>
