<?xml version="1.0" encoding="utf-8"?>
<!-- Generator: Adobe Illustrator 16.0.4, SVG Export Plug-In . SVG Version: 6.00 Build 0)  -->
<!DOCTYPE svg PUBLIC "-//W3C//DTD SVG 1.1//EN" "http://www.w3.org/Graphics/SVG/1.1/DTD/svg11.dtd">
<svg version="1.1" id="_x34_._Food" xmlns="http://www.w3.org/2000/svg" xmlns:xlink="http://www.w3.org/1999/xlink" x="0px"
	 y="0px" width="400px" height="470px" viewBox="0 0 400 470" enable-background="new 0 0 400 470" xml:space="preserve">
<path fill="#4DCCD1" d="M184.4,201.2c14.8,4,27.9,4,27.9,4s-11.1-6.8-26.5-11.1c-0.5-0.1-0.9-0.2-1.3-0.3c-14.9-4-27.9-4.2-27.9-4.2
	s11.1,6.9,26.5,11.3C183.5,201,183.9,201.1,184.4,201.2z"/>
<path fill="#4DCCD1" d="M184.4,143.5c14.8,4,27.9,4.1,27.9,4.1s-11.1-6.8-26.5-11.1c-0.5-0.1-0.9-0.2-1.3-0.3
	c-14.9-4-27.9-4.2-27.9-4.2s11.1,7,26.5,11.3C183.5,143.3,183.9,143.4,184.4,143.5z"/>
<path fill="#4DCCD1" d="M184.4,85.8c14.8,3.9,27.9,4,27.9,4s-11.1-6.8-26.5-11.1c-0.5-0.1-0.9-0.2-1.3-0.3
	c-14.9-4-27.9-4.2-27.9-4.2s11.1,7,26.5,11.3C183.5,85.6,183.9,85.7,184.4,85.8z"/>
<path fill="#4DCCD1" d="M303.2,137.4c1.2,0.2,2.6,0.4,4.1,0.8c0.3,0.1,0.6,0.1,0.9,0.1c0.9,0,1.8-0.3,2.6-0.8c1-0.7,1.7-1.8,1.9-3
	l1-7.3c0.3-1.9-0.7-3.8-2.5-4.7l-0.3-0.1c-2-1-4.5-0.4-5.7,1.5c-2.4,3.6-3.8,5.2-4.6,6c-1.2,1.2-1.6,3-1.1,4.6
	S301.5,137.1,303.2,137.4z"/>
<path fill="#4DCCD1" d="M329.3,142.2c1.6,0,3,0.1,4.3,0.2c0.1,0,0.2,0,0.3,0c1.6,0,3-0.8,3.8-2.1c0.9-1.4,0.9-3.2,0-4.7
	c-0.5-0.9-1.5-2.9-3.1-7.3c-0.7-1.9-2.6-3.2-4.7-3c-2.1,0.2-3.7,1.8-4,3.8l-1.1,7.9c-0.2,1.3,0.2,2.6,1,3.6S328,142.2,329.3,142.2z"
	/>
<path fill="#4DCCD1" d="M298,207.2c0.1,0,0.2,0,0.3,0c2.3,0,4.2-1.7,4.5-4l5.8-50.2c0.2-1.7-0.6-3.3-1.9-4.2c-1.4-0.9-3.2-1-4.7-0.3
	c-0.6,0.3-1.1,0.6-1.6,0.8c-1.3,0.7-2.1,1.1-3.5,1.7c-1.6,0.7-2.7,2.3-2.7,4.1l-0.5,47.5C293.7,205.1,295.6,207.1,298,207.2z"/>
<path fill="#4DCCD1" d="M47.3,169.1l39.4,26c-7.6,6.4-12.1,17.4-9.7,41.4c0.5,5.3,1.9,11.7,4.2,19c-0.8,0-1.6,0.2-2.4,0.5
	c-2.1,1-3.5,3.1-3.5,5.4V470h12V274.5l20.9,17.8c2.2,1.9,5.5,1.9,7.8,0l27-22.9l27,22.9c2.2,1.9,5.5,1.9,7.8,0l26.9-22.9l27,22.9
	c2.2,1.9,5.5,1.9,7.8,0l26.9-22.9l26.9,22.9c2.2,1.9,5.5,1.9,7.8,0l27-22.9l27,22.9c2.2,1.9,5.5,1.9,7.8,0l27-22.9l5.5,4.7l4.8,10
	v-21.6l-6.5-5.5c-2.2-1.9-5.5-1.9-7.8,0l-27,22.9l-27-22.9c-2.2-1.9-5.5-1.9-7.8,0l-13.9,11.8c-2.8-9.3-3.6-19.1-2.1-28.1
	c0.1-0.7,0.1-1.4-0.1-2.1c0,0,0-0.1,0-0.1c0.1-0.5,0.2-0.9,0.3-1.4c0.1-0.5,0.2-1,0.4-1.5c0.1-0.4,0.2-0.8,0.3-1.2
	c0.2-0.6,0.3-1.2,0.5-1.7c0.1-0.3,0.2-0.6,0.3-0.9c0.3-0.9,0.6-1.7,0.9-2.6c0.3-0.8,0.6-1.5,1-2.2c0.1-0.2,0.1-0.3,0.2-0.4
	c0.3-0.6,0.6-1.3,0.9-1.8c0-0.1,0.1-0.1,0.1-0.2c1.9-3.4,4.1-6,6.5-7.7c0.1-0.1,0.2-0.1,0.3-0.2c0.4-0.2,0.8-0.5,1.1-0.7
	c0.9-0.5,1.9-0.9,2.8-1.2c0.1,0,0.3-0.1,0.4-0.1c0.2-0.1,0.5-0.1,0.7-0.2c0.2,0,0.4-0.1,0.5-0.1c0.2,0,0.4,0,0.5-0.1
	c0.5-0.1,0.9-0.1,1.4-0.1c0.1,0,0.2,0,0.3,0c0.3,0,0.6,0,0.9,0c0.1,0,0.1,0,0.2,0c0.3,0,0.7,0,1,0.1c0,0,0,0,0.1,0
	c3.8,0.4,8,1.8,12.7,4.3c0.1,0,0.2,0.1,0.3,0.1c8.6,4.7,15.4,11.5,15.5,11.6l3.2,3.2l3.2-3.2c4.4-4.5,18.5-16.1,30.3-16.1
	c1.8,0,3.5,0.3,5.1,0.8v-9.3c-1.8-0.4-3.5-0.5-5.1-0.5c-8.2,0-16.5,3.8-23.1,8c0.1-0.2,0.2-0.3,0.3-0.5c0.6-0.8,1.1-1.5,1.7-2.1
	c0.4-0.4,0.7-0.7,1.1-1.1c0.6-0.6,1-1.1,1.5-1.4c0,0,0.1-0.1,0.1-0.1c0.3-0.2,0.5-0.4,0.8-0.6c0.7-0.5,1.2-1,1.7-1.2
	c0,0,0.1,0,0.1-0.1c0.4-0.2,0.7-0.4,1.1-0.6c0.5-0.3,1-0.6,1.3-0.6c0.1,0,0.1,0,0.2-0.1c0.7-0.3,1.4-0.5,2.1-0.8l0.3-0.1
	c0.5-0.1,1-0.2,1.4-0.2l0.5-0.1c0,0,0.1,0,0.1,0c1-0.2,1.6-0.3,1.6-0.3c0.8-0.1,1.6-0.6,2-1.4c0.5-0.7,0.6-1.6,0.4-2.4l-3.6-13
	c-0.2-0.8-0.8-1.5-1.6-1.9c-0.8-0.4-1.7-0.4-2.5,0c0,0-1,0.4-2.6,1.2c-0.5,0.2-1,0.5-1.5,0.7l-1.4,0.7c-0.1,0.1-0.3,0.2-0.4,0.2
	l-0.5,0.3c-0.9,0.6-1.8,1.3-2.8,2c-1.3,0.8-2.3,1.8-3.3,2.8c-0.2,0.2-0.5,0.5-0.7,0.7c-1.2,1.1-2.2,2.3-3.1,3.5
	c-0.2,0.3-0.4,0.5-0.6,0.8c-1,1.2-1.7,2.4-2.3,3.6c-0.3,0.5-0.5,1-0.8,1.4c0,0.1-0.1,0.1-0.1,0.2c-0.7,1.3-1.2,2.6-1.7,3.9
	c-0.2,0.4-0.4,0.9-0.5,1.3c0,0.1-0.1,0.1-0.1,0.2c-1,3-1.8,6.3-2.2,9.7c-2.2-1.8-4.9-3.7-7.9-5.5l10-40.2c8.3-0.8,19.8-3,32.4-8.3
	c1.5-0.6,2.5-2,2.7-3.6s-0.5-3.2-1.8-4.2c-0.3-0.2-5.8-4.4-12.1-8.3c5.4-3.9,11.2-8.7,12.1-9.5c1.2-1,1.8-2.6,1.5-4.1
	c-0.2-1.5-1.2-2.9-2.7-3.5c-0.3-0.1-4.7-2-9.8-3.9c3.9-3.3,7.4-6.7,8-7.3c1.1-1.1,1.5-2.6,1.2-4c-0.3-1.5-1.3-2.7-2.7-3.3
	c-0.4-0.2-3.5-1.4-9.8-2.5c-1.4-8-4.8-19.1-5-19.6c-0.4-1.4-1.6-2.5-3-3c-1.4-0.4-3-0.1-4.1,0.8c-0.2,0.1-1.7,1.4-3.8,3.2
	c0-0.4-0.1-0.7-0.2-1.1c-0.5-1.5-1.6-2.6-3.1-3c-0.3-0.1-5-1.3-10.5-2.5c3.3-3.8,6.2-7.7,6.7-8.4c0.9-1.2,1.1-2.8,0.6-4.2
	c-0.5-1.4-1.7-2.5-3.2-2.8c-0.4-0.1-3.7-0.9-10.1-1c-2.7-7.7-8-18.2-8.3-18.7c-0.7-1.3-1.9-2.2-3.4-2.4c-1.5-0.2-2.9,0.3-3.9,1.4
	c-0.4,0.4-8.6,9.4-13.4,16.2c-6.3-1.4-9.7-1.4-10.2-1.4c-1.5,0-2.8,0.7-3.7,1.9s-1,2.7-0.5,4.1c0.3,0.8,1.9,5.3,4.1,9.8
	c-3.1-0.1-6-0.1-8-0.1c-1.9,0-3.1,0-3.1,0c-1.5,0-2.9,0.8-3.7,2.1c-0.3,0.4-0.4,0.9-0.6,1.3c-2-2.8-3.6-4.8-3.7-5.1
	c-0.9-1.2-2.3-1.8-3.8-1.8c-1.5,0.1-2.8,0.9-3.6,2.1c-0.3,0.5-6.6,10.6-10.1,18.1c-1.4-0.1-2.8-0.1-4.1-0.1c-3.8,0-5.9,0.3-6.1,0.4
	c-1.5,0.3-2.7,1.2-3.3,2.5c-0.6,1.3-0.5,2.9,0.2,4.2c0.4,0.7,2.9,4.8,5.9,8.9c-5.6,0.7-10.5,1.6-10.8,1.7c-1.5,0.3-2.8,1.3-3.4,2.8
	c-0.6,1.4-0.4,3.1,0.5,4.3c0.7,0.9,5,6.9,9.2,11.9c-7.2,2.4-13.7,5.3-14.1,5.5c-1,0.5-1.8,1.3-2.3,2.3l-1.5-55
	c-0.4-15.9-6.7-30.9-17.6-42.1c-11-11.3-25.4-17.5-40.7-17.5c-0.3,0-0.7,0-1,0c-14.9,0.3-28.9,6.5-39.4,17.5
	c-11.3,11.8-17.2,27.5-16.8,44.2l2.3,93.7c-0.2,0-0.4,0-0.6,0c-1.4,0-2.9,0.1-4.3,0.4l-3.4-53.1c-0.1-1.2-0.9-2.3-2.1-2.7l-2.5-0.8
	c-0.5-0.2-1.1-0.2-1.6,0l-3,0.8c-1.3,0.3-2.2,1.5-2.2,2.8l-0.9,24l-11.8-27.8c-0.5-1.1-1.6-1.8-2.8-1.8h-2.4c-0.8,0-1.6,0.3-2.1,0.9
	l-1.6,1.6c-0.7,0.7-1,1.8-0.8,2.8l3.7,16.2L76,130.7c-0.7-0.9-1.8-1.3-2.9-1.2l-2.4,0.4c-0.9,0.1-1.6,0.7-2.1,1.4l-1.2,2
	c-0.5,0.9-0.6,1.9-0.1,2.8l7.2,15.2l-12.8-10.9c-0.8-0.7-1.9-0.9-2.9-0.6l-2.4,0.8c-0.7,0.2-1.3,0.7-1.6,1.3l-1.2,2
	c-0.7,1.1-0.5,2.5,0.3,3.5l19.4,23.1l-21.3-10.1c-0.9-0.4-2-0.4-2.8,0.1l-2,1.2c-0.9,0.5-1.5,1.5-1.5,2.6v2.4
	C45.9,167.6,46.4,168.6,47.3,169.1z M365.6,210.3c0.2-0.4,0.4-0.9,0.5-1.3c0.5-1.2,0.9-2.3,1.4-3.3c0.3-0.5,0.6-1,0.9-1.6
	c0.5-1,1-1.9,1.6-2.6c0,0,0.1-0.1,0.1-0.1c0.2-0.3,0.5-0.6,0.7-0.9c0.8-1,1.5-2,2.3-2.7c0,0,0.1-0.1,0.1-0.1
	c0.3-0.3,0.6-0.6,0.8-0.8c0.8-0.8,1.6-1.6,2.3-2c0,0,0.1,0,0.1-0.1c1.1-0.7,2.1-1.4,3-2.1l0.3-0.2l1.2-0.6c0.3-0.1,0.5-0.3,0.8-0.4
	l1.8,6.4c-0.2,0-0.4,0.1-0.7,0.1c-0.2,0-0.3,0.1-0.5,0.1l-0.5,0.2c-0.6,0.2-1.2,0.5-1.9,0.7c-1,0.3-1.8,0.8-2.6,1.2
	c-0.3,0.1-0.5,0.3-0.8,0.5c-1.1,0.5-2,1.2-2.8,1.9c-0.2,0.2-0.4,0.3-0.7,0.5c-1,0.7-1.8,1.5-2.5,2.3c-0.3,0.3-0.6,0.6-0.9,0.9
	c0,0-0.1,0.1-0.1,0.1c-0.8,0.9-1.5,1.8-2.2,2.7c-0.3,0.4-0.5,0.7-0.8,1.1c0,0.1-0.1,0.1-0.1,0.2c-0.6,0.9-1.2,1.9-1.7,2.8
	C365,212.3,365.3,211.3,365.6,210.3z M186.5,269l-12.8,10.8l-11-9.3c-0.5-7.5-1.1-14.4-1.8-20.7c4.6,2.4,12.5,6.1,22,8.8
	c0.5,0.1,0.9,0.2,1.4,0.3c1.1,0.3,2.2,0.5,3.2,0.8C187.1,262.7,186.7,265.8,186.5,269z M297.1,279.8l-27-22.9
	c-2.2-1.9-5.5-1.9-7.8,0l-26.9,22.9l-27-22.9c-2.2-1.9-5.5-1.9-7.8,0l-2.8,2.4c3.6-17.4,13.1-31.6,21.1-43.5
	c2.3-3.4,4.4-6.6,6.3-9.7c1.9,0.8,3.9,1.5,6,2.1c5.9,1.7,12.3,2.6,17.7,2.8c0.3,0,0.5,0,0.8,0c0.2,0,0.3,0,0.5,0c0.5,0,1,0,1.5,0
	l0.4,0h0.1c0,0,0,0,0,0h0c0.2,0,0.4,0,0.7,0c2.5,0,5.3-0.2,8.3-0.6c3.2-0.4,6.9-1,10.6-2.1c2-0.6,4-1.2,6-1.9
	c2,3.5,4.3,7.1,6.7,10.8c4.6,7.2,9.4,14.7,13.3,23.2c-1.6,11.4-0.2,23.7,4,35.2L297.1,279.8z M230,197.3c0.4-1.4,0.6-2.8,0.8-4.2
	l0-0.4c0.1-1,0.3-2.3,0.4-3.6c0.1,0,0.3,0,0.4,0c0.2,0,0.5,0,0.7,0.1c0.6,0,1.3,0.1,1.9,0.1h33.3c0.7,0,1.3,0,2-0.1
	c0.4,0,0.8-0.1,1.2-0.1c0.2,0,0.4,0,0.5-0.1c0.1,1.1,0.2,2.3,0.4,3.7c0.2,1.1,0.7,2.8,1.4,4.7c-1.2,0.5-2.5,0.9-3.9,1.3
	c-0.4,0.1-0.8,0.2-1.2,0.3c-0.1,0-0.1,0-0.2,0.1c-3.5,0.8-7.1,1.4-10.4,1.7c-0.4,0-0.9,0.1-1.3,0.1c-0.3,0-0.7,0-1,0.1
	c-0.4,0-0.8,0-1.2,0.1c-0.6,0-1.2,0-1.7,0c0,0-0.1,0-0.1,0l-0.3,0c-0.3,0-0.6,0-0.9,0c-0.1,0-0.2,0-0.3,0c-0.3,0-0.7,0-1,0
	c-0.2,0-0.3,0-0.5,0c-0.3,0-0.5,0-0.8,0c-4.4-0.3-9.4-1-13.8-2.2c-0.1,0-0.2,0-0.2-0.1c-0.1,0-0.3-0.1-0.4-0.1
	C232.5,198.2,231.2,197.8,230,197.3z M265,139c1.6-0.4,2.9-1.7,3.3-3.4c0.4-1.7-0.2-3.4-1.5-4.5c-2.1-1.8-5.7-6.1-8.7-10
	c3.5-0.5,7.8-1,11.2-1.2c1.9-0.1,3.5-1.3,4.1-3.1c0.6-1.8,0-3.7-1.4-4.9c-1.6-1.3-3.8-4.2-5.9-7.1c1.2,0.1,2.5,0.1,3.8,0.3
	c2,0.2,3.9-1,4.6-2.9c1.4-3.7,4.6-9.5,7.1-13.9c3.1,4.3,6.8,9.8,8.5,13.2c0.9,1.8,2.8,2.8,4.8,2.5c2.3-0.4,4.4-0.7,6.4-0.9
	c1.6-0.1,2.9-1.1,3.6-2.5c0.7-1.4,0.6-3-0.2-4.4c-1.5-2.5-3.2-5.5-4.5-8.2c3.6,0.1,8,0.2,11.5,0.7c1.8,0.2,3.6-0.7,4.5-2.3
	c0.9-1.6,0.7-3.6-0.5-5c-1.3-1.6-3-4.8-4.5-8c1.2,0.2,2.5,0.5,4,0.9c1.9,0.5,4-0.3,5-2c2.1-3.4,6.4-8.7,9.7-12.6
	c2.1,4.5,4.8,10.5,5.7,14.3c0.5,2,2.4,3.4,4.4,3.4l0.8,0c1.1,0,2,0,2.9,0c-2.3,2.8-4.8,5.4-6.5,6.6c-1.5,1.1-2.2,3-1.8,4.8
	c0.5,1.8,2,3.1,3.8,3.4c3.4,0.4,7.5,1.2,10.9,2c-2.4,2.6-5.3,5.6-7.7,7.7c-1.2,1.1-1.8,2.7-1.4,4.3c0.3,1.6,1.5,2.9,3,3.4
	c2,0.6,4.1,1.4,6.2,2.3c1.8,0.8,3.9,0.3,5.2-1.2c2.6-3.1,7.8-7.7,11.8-11.1c1.4,5,2.9,11.1,3.2,14.8c0.2,2.1,1.8,3.8,3.9,4.1
	c1.3,0.2,2.5,0.4,3.5,0.5c-2.8,2.4-5.6,4.6-7.6,5.6c-1.7,0.8-2.7,2.6-2.5,4.5c0.2,1.9,1.5,3.4,3.3,3.9c3.2,0.9,7.1,2.3,10.4,3.5
	c-3.9,3.1-8.6,6.6-11.2,7.8c-1.5,0.8-2.5,2.3-2.5,4s1,3.3,2.5,4c3.5,1.8,7.4,4.2,10.6,6.3c-10.1,3.3-18.9,4.5-25,5
	c-1.9,0.1-3.6,1.5-4.1,3.4l-10.3,41.3c-0.3-0.1-0.7-0.3-1-0.4c0,0,0,0,0,0c-1.1-0.4-2.2-0.8-3.3-1.1c-0.2-0.1-0.4-0.1-0.5-0.2
	c-0.3-0.1-0.5-0.1-0.8-0.2c-0.3-0.1-0.6-0.1-0.9-0.2c-0.2,0-0.4-0.1-0.6-0.1c-0.5-0.1-1-0.2-1.5-0.3c-0.1,0-0.1,0-0.2,0
	c-0.5-0.1-1-0.1-1.4-0.2c-0.1,0-0.1,0-0.2,0c-1-0.1-2.1-0.2-3.2-0.2c0,0,0,0,0,0l10-45.9c0.4-1.8-0.4-3.7-1.9-4.7
	c-2.4-1.6-4-2.7-6.9-3.7c-1.3-0.4-2.6-0.3-3.8,0.4c-1.1,0.7-1.9,1.8-2.1,3.2l-8.3,54.5c-0.1,0-0.1,0.1-0.2,0.1
	c-0.5,0.3-1,0.7-1.5,1.1c-0.2,0.1-0.3,0.3-0.5,0.4c-0.5,0.4-1,0.8-1.4,1.3c-0.1,0.1-0.3,0.2-0.4,0.4c-0.5,0.4-0.9,0.9-1.3,1.4
	c-0.1,0.1-0.2,0.3-0.4,0.4c-0.4,0.5-0.9,1-1.3,1.6c-0.1,0.1-0.2,0.3-0.3,0.4c-0.4,0.6-0.8,1.2-1.3,1.8c-0.1,0.1-0.2,0.3-0.2,0.4
	c-0.4,0.7-0.8,1.3-1.2,2.1c-0.1,0.1-0.1,0.2-0.2,0.3c-0.4,0.7-0.8,1.5-1.2,2.3c0,0.1-0.1,0.2-0.1,0.2c-0.4,0.8-0.8,1.7-1.1,2.7
	c0,0,0,0,0,0c-0.1,0.2-0.2,0.5-0.3,0.7c-3-5.3-6.1-10.2-9-14.7c-3.3-5.2-6.5-10.1-8.7-14.6c-0.2-0.4-0.4-0.7-0.7-1
	c-1.1-2.1-1.9-4.4-2-5c-0.1-0.9-0.2-1.7-0.3-2.4l0-3.5c4.8-3.2,7.8-8,7.8-13.5c0-5.3-2.9-10-7.6-13.2l0-0.5c0-2.1-1.4-3.9-3.4-4.4
	c-6.4-1.7-15.6-4.9-25.5-10.9C256.6,141.6,261,140,265,139z M240.6,145.7c5,3.6,9.9,6.5,14.6,8.9h-15.6l-0.3-10.5
	C239.6,144.7,240.1,145.3,240.6,145.7z M267.6,164.6c6.2,0,11.6,3.4,11.6,7.3c0,3.2-3.5,6-8,7c-0.5,0.1-1,0.2-1.5,0.3
	c-0.1,0-0.3,0-0.4,0c-0.6,0.1-1.1,0.1-1.7,0.1h-33.3c-0.6,0-1.2,0-1.8-0.1c-0.1,0-0.2,0-0.3,0c-0.6-0.1-1.1-0.2-1.6-0.3
	c-4.5-1-7.9-3.8-7.9-7c0-3.5,4.7-7.3,11.6-7.3H267.6z M147.6,51.5c8.3-8.7,19.3-13.6,31-13.8c25.2-0.5,46.4,21.2,47.1,47.9l1.8,69.9
	c-8.7,2.2-14.8,8.7-14.8,16.5c0,5.7,3.3,10.7,8.4,13.9c0.1,0.1,0.1,0.3,0.2,0.4c0,0.6,0.1,2.1-0.4,5.2l-0.1,0.5
	c-0.3,2.5-0.6,3.5-0.8,3.9c-0.2,0.2-0.4,0.3-0.5,0.5c0,0-0.1,0.1-0.1,0.1c-0.2,0.2-0.4,0.5-0.5,0.8c0,0,0,0,0,0
	c-2,3.8-4.9,8.1-8.2,13c-7.5,11.1-16.9,25.2-21.5,42.5c-1.1-0.4-2.2-0.7-3.4-1c-0.5-0.1-0.9-0.2-1.3-0.3c-9.7-2.6-18.6-3.6-23.6-4
	c-2-17.3-4.8-30.2-8.4-38.6c-5-11.6-10-19.2-15.6-23.5l-2.5-98.3C133.8,73.6,138.6,60.9,147.6,51.5z M123.9,190.1
	c4.9,0,11.6,2.5,20.1,22.4c4.2,9.6,7.2,26.4,9.1,49.9l-6.4-5.4c-2.2-1.9-5.5-1.9-7.8,0l-27,22.9l-18.4-15.6
	c-4.5-11.8-7.1-21.4-7.8-28.6c-3.1-31.5,5.7-34.8,20.2-40.3l3.8-1.4C115.3,191.8,119.9,190.1,123.9,190.1z M83.3,181.9
	c1.3,0.6,2.8,0.2,3.7-0.9c0.9-1.1,0.8-2.7-0.1-3.8l-22.1-26.3l16.6,14.2c1.1,0.9,2.6,1,3.8,0.1c1.1-0.9,1.5-2.4,0.9-3.7l-9.6-20.2
	l13.5,17.9c0.9,1.1,2.4,1.5,3.7,0.9c1.3-0.6,2-2,1.7-3.4l-4.7-20.2l13,30.7c0.5,1.3,1.9,2,3.3,1.8c1.4-0.3,2.4-1.4,2.5-2.8l1.2-32.5
	l3.2,49.3c-2.3,0.7-4.6,1.6-7,2.5l-3.8,1.4c-3.8,1.4-7.5,2.8-10.9,4.6l-29.9-19.8L83.3,181.9z"/>
</svg>
