<?xml version="1.0" encoding="utf-8"?>
<!-- Generator: Adobe Illustrator 16.0.4, SVG Export Plug-In . SVG Version: 6.00 Build 0)  -->
<!DOCTYPE svg PUBLIC "-//W3C//DTD SVG 1.1//EN" "http://www.w3.org/Graphics/SVG/1.1/DTD/svg11.dtd">
<svg version="1.1" id="_x36_._Health" xmlns="http://www.w3.org/2000/svg" xmlns:xlink="http://www.w3.org/1999/xlink" x="0px"
	 y="0px" width="400px" height="470px" viewBox="0 0 400 470" enable-background="new 0 0 400 470" xml:space="preserve">
<path fill="#3F77B8" d="M226.6,470h22.3c-59.6-47.5-107.5-93.1-138.8-144.8c-3.3-5.4-6.3-10.8-9-16.3h108.3l32.7-53.5l36.8,85.8
	l50.4-118.3l2.1,9.7l37.9,172.9L400,282.4v-35.6l-30.3,111.9l-37.3-171.2l-2.1,5.1L278.7,312l-35.3-77.4l-41.7,64.8H96.6
	c-9.3-21.3-14.2-42.7-14.8-64.1c-0.7-26.6,5.8-52.7,18.6-75.5c24.4-43.3,69.7-71.2,115.4-71.2c43.3,0,81.8,24.6,108.4,69.3
	c1.3,2.1,3.5,3.4,6,3.4s4.8-1.3,6-3.4c17-28.5,38.8-48.8,63.7-59.8V82.8c-26.9,10.3-50.7,30.2-69.7,58.4
	c-28.9-43.1-69.2-66.6-114.5-66.6c-50.7,0-100.8,30.8-127.6,78.4C58,206.7,61.5,272.1,98.1,332.5C128,381.9,172.1,425.5,226.6,470z"
	/>
</svg>
