<?xml version="1.0" encoding="utf-8"?>
<!-- Generator: Adobe Illustrator 16.0.4, SVG Export Plug-In . SVG Version: 6.00 Build 0)  -->
<!DOCTYPE svg PUBLIC "-//W3C//DTD SVG 1.1//EN" "http://www.w3.org/Graphics/SVG/1.1/DTD/svg11.dtd">
<svg version="1.1" id="_x31_0._Workplace" xmlns="http://www.w3.org/2000/svg" xmlns:xlink="http://www.w3.org/1999/xlink" x="0px"
	 y="0px" width="400px" height="470px" viewBox="0 0 400 470" enable-background="new 0 0 400 470" xml:space="preserve">
<g>
	<polygon fill="#F25150" points="393.9,78.1 400,67.6 400,47.2 385,72.9 	"/>
	<path fill="#F25150" d="M32.4,470c1.6-25.9,6.2-60.2,18.6-86.7c1.7-3.5,4.8-6.2,9.5-8c7-2.8,19.9-6.4,32.4-9.9c7.1-2,14.4-4,20.8-6
		l5.4-1.7c1.5-0.5,2.9-0.9,4.1-1.3c0.3,0,0.5-0.1,0.8-0.2l5.5-1.7c2.2-0.7,3.8-2.6,4.1-4.9l0.5-3.7l1.6-9.2c1.2-0.2,2.2-0.7,3.1-1.4
		l6.6,3.7l9.4,26.2c0.9,2.4,3.1,4,5.6,4c0,0,0,0,0,0c2.5,0,4.8-1.6,5.6-4l9.4-26.2l6.7-3.8c0.8,0.6,1.7,1.1,2.7,1.3c0,0,0.1,0,0.1,0
		l1.7,9.4l0.5,3.7c0.3,2.3,1.9,4.2,4.1,4.9l5.5,1.7c0.3,0.1,0.5,0.1,0.8,0.2c0.9,0.3,1.9,0.6,3,1l6.5,2.1c4.7,1.4,9.9,2.9,15.1,4.4
		c0,0,0,0,0,0l1.7,0.5c0.8,0.2,1.7,0.5,2.5,0.7l1.6,0.4c12.5,3.5,25.4,7.1,32.4,9.9c0.4,0.2,0.8,0.3,1.2,0.5c2.7,1.3,6,3.6,8.3,7.7
		c7.5,16,12.4,34.5,15.6,52.3c1.7,11.2,2.8,22.7,3.5,34.1h13c-1-12.1-2.7-26.1-5.5-40.5c-4.3-25.3-10.4-41.4-16-51.6
		c-3-6.2-8.5-11-15.7-13.8c-5.1-2-12.5-4.3-20.8-6.7c-4.1-1.2-8.4-2.4-12.7-3.6c-0.2-0.1-0.5-0.1-0.7-0.2c3-18.6,7.8-32.5,14.4-41.4
		c0,0,0-0.1,0.1-0.1c3.3-4.6,6.8-7.6,10.8-9c11.7-4.4,54.5-17,70.2-21.6l39.2,140c0.7,2.6,3.1,4.4,5.8,4.4c2.7,0,5.1-1.8,5.8-4.4
		l23.2-82.9v-98c-2.2,2-4.4,3.8-6.8,5.4c-2.2,1.4-3.2,4.2-2.5,6.7l0.9,3.3L371,271.5l13.7,7.2l-10.1,11.4l8.1,65.7L371,397.6
		l-11.7-41.8l8.1-65.7l-10.1-11.4l13.7-7.2l-22.3-15.6l0.9-3.3c0.7-2.5-0.4-5.2-2.6-6.6c-14.7-9.5-25.3-28.7-32.5-58.7
		c-0.6-2.5-2.8-4.4-5.4-4.6c-2.2-0.2-4.3,0.9-5.4,2.7c-3.5-3.3-9.1-9.9-11.1-19.3c-0.9-4.5-0.8-7.4-0.2-8.9c1.9,2.2,4.4,5.6,5.5,10
		c0.3,1.9,1.5,3.6,3.2,4.5c3.6,1.9,6.8-0.2,8.4-1.3l0.2-0.1c1.6-1.1,2.7-2.9,2.7-4.8c0.1-2,0.1-5.4,0.1-8.9c0-2,0-4.2,0-6.2
		c16.4,3.2,37.3,6.1,57.9,6.1c10,0,20.1-0.7,29.7-1.8v-12.1c-0.4,0-0.8,0.1-1.2,0.1c0,0,0,0,0,0c-1.6,0.2-3.2,0.4-4.9,0.5
		c-0.6,0.1-1.2,0.1-1.7,0.2c-0.6,0.1-1.2,0.1-1.7,0.2c-0.7,0.1-1.4,0.1-2.2,0.2c-0.5,0-1,0.1-1.5,0.1c-1.1,0.1-2.3,0.2-3.4,0.2
		c-0.2,0-0.4,0-0.6,0c-1.1,0.1-2.3,0.1-3.4,0.2c-0.4,0-0.8,0-1.2,0c-0.9,0-1.9,0.1-2.8,0.1c-0.4,0-0.8,0-1.2,0c-1.3,0-2.5,0-3.8,0
		c-1.3,0-2.6,0-3.8,0c-0.4,0-0.8,0-1.2,0c-0.9,0-1.9-0.1-2.8-0.1c-0.4,0-0.8,0-1.2,0c-1.2-0.1-2.5-0.1-3.7-0.2c-0.3,0-0.6,0-0.9-0.1
		c-0.9-0.1-1.9-0.1-2.8-0.2c-0.6,0-1.1-0.1-1.7-0.1c-0.7-0.1-1.3-0.1-2-0.2c-0.6-0.1-1.3-0.1-1.9-0.2c-0.4,0-0.8-0.1-1.1-0.1
		c-1.7-0.2-3.4-0.3-5.1-0.5c0,0-0.1,0-0.1,0c-23.7-2.7-44.6-7.9-53-10.1l-2.3-19.9l6.7-4.5c1.5-1,2.5-2.7,2.7-4.6
		c2.3-30.9,18.2-47.6,32.4-56.6l18.1,30.6l8.8-5.3l-20.2-33.8c-0.1-0.7-0.4-1.3-0.7-2l-1-1.7c11.4-5.8,24-8.9,36.7-8.9
		c10.2,0,20.4,2,29.9,5.8V19.2c-9.6-3.3-19.7-5-29.9-5c-16.8,0-33.5,4.7-48.1,13.5c-2.8,1.7-3.7,5.4-2,8.2l1.1,1.9
		c-16,10.3-33.3,29-36.7,62.2l-7.4,4.9c-1.9,1.2-2.9,3.4-2.7,5.7l3.1,27.6c0.3,2.4,2,4.4,4.3,5.1c0.4,0.1,2.8,0.8,6.7,1.8
		c-2.2,1-4.1,2.5-5.5,4.5c-3.1,4.4-3.8,10.6-2.1,19c3.9,18.7,18.2,28.7,18.8,29.1c1.2,0.8,2.7,1.2,4.1,1c0.4-0.1,0.8-0.1,1.2-0.2
		c7.4,26.2,17.9,44.3,31.9,55l-1,4l-3.7,10.8c-1.2-0.4-2.4-0.4-3.6-0.1c-2.5,0.7-62.1,18.1-76.8,23.6c-6.2,2.3-11.8,6.7-16.4,13.3
		c-7.5,10.2-13,25.3-16.3,45.2c-2.9-0.8-5.7-1.7-8.3-2.5l-5.1-1.6l-1.2-0.4c-1.3-0.4-2.5-0.8-3.6-1.2c-0.4-0.1-0.8-0.2-1.2-0.3
		l-0.9-0.3l0-0.1c0-0.1,0-0.1,0-0.2l-1.4-7.9c13.2-3,21.8-13.5,24.6-23.3c3.3-11.9,0.1-24.3-7.9-32.3c2.7-6.8,5.1-14.5,7.3-23
		c3.9-1.6,15.7-7.6,19.1-23.8c1.9-9.4,0.6-16.3-3.9-20.5c-2.3-2.1-4.9-3-7.3-3.4c0-0.6,0-1.2,0-1.8c0-2.6-0.2-5.2-0.4-7.9
		c0.6-5.5,0.6-11.1-0.2-16.6c0.4-0.8,0.6-1.7,0.6-2.6c0-1.3,0-29.9-4.2-51.6c10.5-7.9,16.6-20.1,16.6-33.3c0-23.2-18.8-42-42-42
		c-2.7,0-5.5,0.3-8.4,1c-7.8-11.4-20.6-18.3-34.5-18.3c-13.9,0-26.7,6.9-34.5,18.3c-2.9-0.6-5.6-1-8.4-1c-23.2,0-42,18.8-42,42
		c0,12.5,5.6,24.3,15.2,32.3c-3.2,24.7-4.9,52-4.9,52.3c-0.1,1.2,0.2,2.4,0.9,3.5c0.1,7.7,0.9,17,2.5,28.1c-1.3,0.9-2.4,2-3.3,3.4
		c-2.9,4.3-3.5,10.2-1.9,18.1c3.4,16.2,15.3,22.2,19.1,23.8c2.1,8.4,4.5,15.9,7.2,22.7c-6.6,7.6-9.7,21.3-6.7,32.3
		c2.6,9.6,12.2,19.7,24,23.2l-1.5,8.3c0,0.1,0,0.1,0,0.2l0,0.1l-1,0.3c-0.4,0.1-0.8,0.1-1.1,0.3c-1.3,0.4-2.9,1-4.7,1.6l-5.4,1.7
		c-6.2,1.9-13.5,3.9-20.5,5.9c-13.4,3.8-26.1,7.3-33.6,10.3c-7.5,2.9-13,7.8-15.9,14.1C26.7,406.9,21.9,443,20.3,470H32.4z
		 M300.5,148c0,0.1,0,0.3,0,0.4c-0.2-0.2-0.3-0.3-0.5-0.5C300.1,148,300.3,148,300.5,148z M210.2,309.4c-1.7,6.1-7,12.6-15.1,14.7
		l-0.1-0.8c-0.3-1.9-1.6-3.6-3.4-4.4c-0.3-0.1-0.5-0.2-0.8-0.3l-0.4-3.7c6.8-5.4,12.7-12.7,17.8-22.3
		C211,297.3,211.8,303.4,210.2,309.4z M83.8,95.9c0-16.5,13.5-30,30-30c2.9,0,5.9,0.5,9.2,1.6c2.8,0.9,5.8-0.3,7.2-2.9
		c5.2-9.9,15.4-16.1,26.4-16.1c11,0,21.2,6.2,26.4,16.1c1.4,2.6,4.4,3.8,7.2,2.9c3.3-1.1,6.4-1.6,9.2-1.6c16.5,0,30,13.5,30,30
		c0,10.5-5.4,20-14.5,25.5c-2.2,1.3-3.3,4-2.7,6.5c3.5,15.2,4.4,36.6,4.7,46.9h-41.5h-24.1h0H94.5c0.7-10.1,2.4-30.5,4.9-48.5
		c0.3-2.2-0.7-4.5-2.5-5.8C88.6,115,83.8,105.7,83.8,95.9z M217,192.7c-0.3-0.1-0.5-0.1-0.8-0.2c-0.3-0.1-0.6-0.1-0.8-0.2
		c-0.9-0.2-1.8-0.5-2.7-0.7c-0.1,0-0.3-0.1-0.4-0.1c-1-0.3-2-0.6-3-0.9c-0.2-0.1-0.5-0.2-0.7-0.2c-0.8-0.3-1.6-0.5-2.4-0.8
		c-0.2-0.1-0.4-0.1-0.7-0.2c-0.9-0.3-1.9-0.7-2.8-1c-0.2-0.1-0.3-0.1-0.5-0.2c-0.8-0.3-1.5-0.6-2.2-0.9c-0.2-0.1-0.5-0.2-0.7-0.3
		c-0.2-0.1-0.3-0.1-0.5-0.2h17.9C217,188.8,217.1,190.7,217,192.7z M140,186.8c-14.7,18.7-31.1,22-42.8,22.6c0,0,0,0,0,0
		c0,0-0.1,0-0.1,0c-1.2-8.8-1.9-16.3-2.2-22.6H140z M104.5,246.1c-0.3,0-0.6,0-0.8,0c-0.1,0-0.1,0-0.2,0c-2-0.8-9.3-4.5-11.5-15
		c-1.3-6.5-0.2-8.6,0.1-9c0.1-0.1,0.2-0.3,0.7-0.5l0.5,0l0.2,0c0.4,0,0.9,0,1.3,0c0.1,0,0.2,0,0.3,0c0.1,0,0.2,0,0.3,0.1
		c0.1,0.1,0.3,0.1,0.5,0.2c1.7,0.5,3.5,0.3,4.9-0.5c7.2-0.6,20.3-2.5,33.9-12.5c0.1-0.1,0.2-0.2,0.3-0.2c0.6-0.4,1.1-0.8,1.7-1.3
		c0.3-0.2,0.5-0.4,0.8-0.6c0.4-0.3,0.8-0.7,1.2-1c0.3-0.3,0.7-0.6,1-0.9c0.3-0.3,0.6-0.5,0.9-0.8c1.6-1.4,3.1-3,4.6-4.6
		c0.2-0.2,0.3-0.3,0.5-0.5c0.4-0.5,0.9-1,1.3-1.5c0.3-0.3,0.5-0.6,0.8-0.9c0.4-0.5,0.8-0.9,1.2-1.4c0.3-0.4,0.6-0.8,0.9-1.1
		c0.3-0.4,0.7-0.9,1-1.4c0.4-0.5,0.7-0.9,1.1-1.4c0.3-0.4,0.6-0.8,0.9-1.3c0.4-0.6,0.9-1.3,1.3-1.9c0.2-0.3,0.4-0.7,0.7-1
		c0-0.1,0.1-0.1,0.1-0.2h18.9c0.1,0,0.1,0.1,0.2,0.1c0.2,0.1,0.5,0.3,0.7,0.4c0.4,0.3,0.9,0.6,1.3,0.9c0.3,0.2,0.5,0.3,0.8,0.5
		c0.4,0.3,0.9,0.5,1.3,0.8c0.3,0.2,0.6,0.4,0.9,0.5c0.5,0.3,0.9,0.5,1.4,0.8c0.3,0.2,0.6,0.4,0.9,0.5c0.5,0.3,1,0.6,1.5,0.8
		c0.3,0.2,0.6,0.3,0.9,0.5c0.6,0.3,1.2,0.6,1.8,1c0.3,0.1,0.5,0.3,0.8,0.4c0.9,0.5,1.8,0.9,2.7,1.3c0.1,0.1,0.3,0.1,0.4,0.2
		c0.8,0.4,1.6,0.8,2.5,1.1c0.3,0.1,0.7,0.3,1,0.4c0.7,0.3,1.3,0.6,2,0.8c0.4,0.2,0.8,0.3,1.2,0.5c0.6,0.3,1.3,0.5,1.9,0.8
		c0.4,0.2,0.9,0.3,1.3,0.5c0.7,0.2,1.3,0.5,2,0.7c0.4,0.2,0.9,0.3,1.3,0.5c0.7,0.2,1.4,0.5,2.1,0.7c0.4,0.1,0.9,0.3,1.3,0.4
		c0.8,0.2,1.6,0.5,2.4,0.7c0.4,0.1,0.8,0.2,1.2,0.3c1.1,0.3,2.2,0.6,3.4,0.9c0.1,0,0.2,0.1,0.3,0.1c1.2,0.3,2.4,0.6,3.6,0.8
		c0,1,0.1,2,0.1,3.1c0,2.2,0,4.7-0.3,7.6c-0.1,1.9,0.6,3.7,2,4.9s3.3,1.8,5.1,1.4c0.4-0.1,0.7-0.2,0.9-0.2c1-0.3,2.9-0.3,3.5,0.2
		c0.7,0.6,1.4,3.2,0.2,9.2c-2.2,10.5-9.7,14.2-11.6,15c0,0,0,0-0.1,0c-0.2,0-0.5,0-0.7,0c-2.7,0.1-5,2-5.7,4.6
		c-6.3,26.2-14.8,43.8-25.9,53.5c-0.1,0.1-0.3,0.2-0.4,0.4c-0.2,0.2-0.5,0.4-0.7,0.6c-0.2,0.2-0.5,0.4-0.7,0.6
		c-0.2,0.1-0.4,0.3-0.6,0.4c-0.4,0.3-0.9,0.7-1.3,1c-0.2,0.2-0.4,0.3-0.6,0.5c-0.1,0.1-0.1,0.1-0.2,0.2c-0.1,0.1-0.3,0.3-0.4,0.4
		c-0.1,0.1-0.1,0.2-0.2,0.2c-0.1,0.1-0.2,0.3-0.3,0.4c-0.1,0.1-0.1,0.2-0.2,0.3c-0.1,0.1-0.2,0.3-0.2,0.4c0,0.1-0.1,0.2-0.1,0.3
		c-0.1,0.1-0.1,0.3-0.2,0.4c0,0.1-0.1,0.2-0.1,0.3c0,0.1-0.1,0.3-0.1,0.4c0,0.1,0,0.2,0,0.4c0,0.1,0,0.3,0,0.4c0,0.1,0,0.2,0,0.4
		c0,0.1,0,0.3,0,0.4l1,10.4l-11.5,6.5c-1.2,0.7-2.2,1.8-2.7,3.2l-4.5,12.5l-4.5-12.5c-0.5-1.4-1.4-2.5-2.7-3.2l-11.2-6.3l0.7-10.5
		c0-0.1,0-0.2,0-0.3c0-0.1,0-0.3,0-0.4c0-0.1,0-0.3,0-0.4c0-0.1,0-0.2-0.1-0.4c0-0.1-0.1-0.3-0.1-0.4c0-0.1-0.1-0.2-0.1-0.4
		c0-0.1-0.1-0.3-0.2-0.4c0-0.1-0.1-0.2-0.1-0.3c-0.1-0.1-0.1-0.3-0.2-0.4c-0.1-0.1-0.1-0.2-0.2-0.3c-0.1-0.1-0.2-0.2-0.3-0.4
		c-0.1-0.1-0.1-0.2-0.2-0.3c-0.1-0.1-0.2-0.2-0.4-0.4c-0.1-0.1-0.1-0.1-0.2-0.2c-0.2-0.2-0.4-0.3-0.6-0.5c-0.5-0.3-0.9-0.6-1.4-1
		c-0.2-0.1-0.4-0.3-0.6-0.4c-0.3-0.2-0.5-0.4-0.8-0.6c-0.2-0.2-0.5-0.4-0.7-0.6c-0.2-0.1-0.3-0.3-0.4-0.4
		c-11.2-9.6-19.8-27.3-26.2-53.7C109.4,248.1,107.1,246.2,104.5,246.1z M111.4,309.2c-1.4-5-0.6-11.3,1.1-16
		c5.1,9.5,11,16.7,17.9,22c0,0,0,0,0,0l-0.3,3.3c-0.3,0.1-0.5,0.2-0.8,0.3c-1.8,0.8-3,2.5-3.4,4.4l-0.1,0.3
		C118.5,320.9,112.7,314.1,111.4,309.2z"/>
</g>
</svg>
