<?xml version="1.0" encoding="utf-8"?>
<!-- Generator: Adobe Illustrator 16.0.4, SVG Export Plug-In . SVG Version: 6.00 Build 0)  -->
<!DOCTYPE svg PUBLIC "-//W3C//DTD SVG 1.1//EN" "http://www.w3.org/Graphics/SVG/1.1/DTD/svg11.dtd">
<svg version="1.1" xmlns="http://www.w3.org/2000/svg" xmlns:xlink="http://www.w3.org/1999/xlink" x="0px" y="0px" width="400px"
	 height="470px" viewBox="0 0 400 470" enable-background="new 0 0 400 470" xml:space="preserve">
<g id="_x38_._Transportation">
	<polygon fill="#97519B" points="204.9,343.4 204.9,375.8 266,375.8 327.1,375.8 327.1,343.4 266,343.4 	"/>
	<path fill="#97519B" d="M360.4,343.4c-8.9,0-16.2,7.3-16.2,16.2c0,9,7.3,16.2,16.2,16.2c9,0,16.2-7.2,16.2-16.2
		C376.7,350.7,369.4,343.4,360.4,343.4z"/>
	<path fill="#97519B" d="M171.5,343.4c-9,0-16.2,7.3-16.2,16.2c0,9,7.3,16.2,16.2,16.2c8.9,0,16.2-7.2,16.2-16.2
		C187.7,350.7,180.5,343.4,171.5,343.4z"/>
	<path fill="#97519B" d="M139.1,343.4c-8.9,0-16.2,7.3-16.2,16.2c0,9,7.3,16.2,16.2,16.2c8.9,0,16.2-7.2,16.2-16.2
		C155.3,350.7,148.1,343.4,139.1,343.4z"/>
	<path fill="#97519B" d="M79.2,151.3H69.1v-18.5l19.6-19.7v286.3H86c-3.3,0-6,2.7-6,6V436c0,9.4,7.9,17.1,17.7,17.1H115V470h70.1
		v-16.8h159.8V470H400v-28.8H97.7c-3.2,0-5.7-2.2-5.7-5.1v-24.6h308v-12H100.7V72.1c0-2.8,2.3-5.1,5.1-5.1H400V55H105.8
		c-9.4,0-17.1,7.7-17.1,17.1v30.7l-27,27v21.5H50v70.2h29.2V151.3z"/>
	<path fill="#97519B" d="M130.8,320.2H400v-9H130.8c-3.6,0-6.6-3-6.6-6.6V144.3c0-3.7,3-6.6,6.6-6.6H400v-9H130.8
		c-8.6,0-15.6,7-15.6,15.6v160.2C115.2,313.1,122.2,320.2,130.8,320.2z"/>
	<polygon fill="#97519B" points="400,110.6 400,83.6 266,83.6 113,83.6 113,110.6 266,110.6 	"/>
	<path fill="#97519B" d="M392.9,375.8c2.6,0,5-0.6,7.1-1.7v-29.1c-2.2-1.1-4.6-1.7-7.1-1.7c-9,0-16.2,7.3-16.2,16.2
		C376.7,368.6,383.9,375.8,392.9,375.8z"/>
</g>
<g id="Crop">
</g>
</svg>
