<?xml version="1.0" encoding="utf-8"?>
<!-- Generator: Adobe Illustrator 16.0.4, SVG Export Plug-In . SVG Version: 6.00 Build 0)  -->
<!DOCTYPE svg PUBLIC "-//W3C//DTD SVG 1.1//EN" "http://www.w3.org/Graphics/SVG/1.1/DTD/svg11.dtd">
<svg version="1.1" id="_x39_._JobSearch" xmlns="http://www.w3.org/2000/svg" xmlns:xlink="http://www.w3.org/1999/xlink" x="0px"
	 y="0px" width="400px" height="470px" viewBox="0 0 400 470" enable-background="new 0 0 400 470" xml:space="preserve">
<path fill="#D65D85" d="M57.905,159.92c0-7.22,5.51-12.825,12.445-12.825h329.555v-12.73H70.351c-13.87,0-25.27,11.495-25.27,25.65
	v245.385h12.825V159.92z"/>
<path fill="#D65D85" d="M237.93,370.154c1.9,2.564,3.896,5.035,6.271,7.41c7.22,7.22,15.864,12.255,25.08,14.916h33.726
	c9.215-2.756,17.765-7.696,25.08-14.916c2.279-2.28,4.369-4.75,6.27-7.41h-52.25v-15.865h60.324c1.521-4.654,2.471-9.5,2.851-14.345
	h-63.175V324.08h62.225c-0.949-4.94-2.564-9.785-4.844-14.346h-57.381v-15.865h46.17c-0.096-0.095-0.096-0.095-0.189-0.189
	c-6.65-6.65-14.44-11.305-22.705-14.155h-23.275v-3.04c-13.775,0.95-27.359,6.65-37.905,17.195
	c-0.095,0.095-0.095,0.095-0.189,0.189h2.47v15.865h-13.775c-2.185,4.561-3.8,9.405-4.844,14.346h18.524v15.77h-19.38
	c0.38,4.845,1.33,9.689,2.85,14.345h16.625v15.865h-8.551V370.154z"/>
<path fill="#D65D85" d="M375.871,323.984h24.034V309.64H372.83C374.256,314.295,375.205,319.14,375.871,323.984z"/>
<path fill="#D65D85" d="M374.636,354.289h25.27V339.85h-23.37C376.25,344.694,375.68,349.539,374.636,354.289z"/>
<path fill="#D65D85" d="M366.371,293.774h33.534V279.43h-42.845C360.67,283.895,363.805,288.74,366.371,293.774z"/>
<path fill="#D65D85" d="M340.814,263.469h59.091v-14.344H312.98C322.861,252.164,332.266,257.01,340.814,263.469z"/>
<path fill="#D65D85" d="M202.59,370.154H87.735v-15.865H197.65c-1.045-4.75-1.615-9.595-1.9-14.345H87.735V324.08h108.68
	c0.666-4.846,1.615-9.69,3.041-14.346H87.735v-15.865h118.18c2.565-5.035,5.7-9.785,9.31-14.345H87.735v-15.865h143.735
	c15.01-11.399,32.775-17.575,50.729-18.335V233.45H400v-14.345H282.105V203.05h117.8v-14.345h-117.8V172.84h117.8v-12.92H264.721
	H69.685V392.48h146.206C210.285,385.545,205.82,378.039,202.59,370.154z M165.255,172.745h79.419v15.865h-79.419V172.745z
	 M165.255,203.05h79.419v15.865h-79.419V203.05z M165.255,233.259h79.419v15.866h-79.419V233.259z M87.735,173.22h63.46v73.815
	h-63.46V173.22z"/>
<path fill="#D65D85" d="M356.871,392.385h43.034V370.06H369.79c-3.229,7.79-7.601,15.296-13.11,22.135L356.871,392.385z"/>
<polygon fill="#D65D85" points="399.905,405.399 381.57,405.399 399.905,423.734 "/>
<path fill="#D65D85" d="M64.65,454.99h159.125V470h81.795v-15.01h74.479l-31.35-31.445l4.94-4.939l-12.255-11.496
	c-33.155,25.65-80.086,25.08-112.671-1.71H45.175v30.306C45.175,446.439,53.821,454.99,64.65,454.99z"/>
</svg>
