<?xml version="1.0" encoding="utf-8"?>
<!-- Generator: Adobe Illustrator 16.0.4, SVG Export Plug-In . SVG Version: 6.00 Build 0)  -->
<!DOCTYPE svg PUBLIC "-//W3C//DTD SVG 1.1//EN" "http://www.w3.org/Graphics/SVG/1.1/DTD/svg11.dtd">
<svg version="1.1" id="_x31_1._AcademicStudy" xmlns="http://www.w3.org/2000/svg" xmlns:xlink="http://www.w3.org/1999/xlink"
	 x="0px" y="0px" width="400px" height="470px" viewBox="0 0 400 470" enable-background="new 0 0 400 470" xml:space="preserve">
<path fill="#ED7E53" d="M31.6,244.8L134,298.1v54.3c0,1.6,0.6,3.1,1.8,4.2C164,385,205.8,399.3,260,399.3c38.5,0,70.7-7.2,96.3-21.6
	l-0.1,10.1c-6,2.6-10.2,8.5-10.2,15.4c0,7.7,5.3,14.2,12.4,16.1L339.2,469h23.6h23.6l-19.2-49.7c7.1-1.9,12.4-8.4,12.4-16.1
	c0-7-4.3-13-10.5-15.5v-18.1c5.5-3.9,10.6-8.3,15.3-13c1.1-1.1,1.8-2.7,1.8-4.2v-54.3l14-7.3v-13.5l-37.2,19.4l-101.5-61.3l-12,7.3
	l101,60.5l-90.3,47L142.8,289c-0.4-0.2-0.8-0.4-1.2-0.5l-93.8-48.9L260,137.1l140,67.7v-13.3L262.6,125c-1.6-0.8-3.6-0.8-5.2,0
	L31.8,234.1c-2,1-3.4,3-3.4,5.3C28.3,241.6,29.6,243.7,31.6,244.8z M369,307.2l5-2.6v45.4c-1.6,1.6-3.3,3.1-5,4.5V307.2z M146,304.4
	l111.2,57.9c0.4,0.2,0.9,0.4,1.4,0.5c0,0,0,0,0,0h0c0,0,0,0,0,0c0,0,0,0,0,0c0,0,0,0,0,0h0c0,0,0,0,0,0c0,0,0,0,0,0c0,0,0,0,0,0
	c0,0,0,0,0,0c0,0,0,0,0,0c0,0,0,0,0,0c0,0,0,0,0,0c0,0,0,0,0,0c0,0,0,0,0,0c0,0,0,0,0,0c0,0,0,0,0,0c0,0,0,0,0,0c0,0,0,0,0,0
	c0,0,0,0,0,0c0,0,0,0,0,0c0,0,0,0,0,0c0,0,0,0,0,0c0,0,0,0,0,0c0,0,0,0,0,0c0,0,0,0,0,0c0,0,0,0,0,0c0,0,0,0,0,0c0,0,0,0,0,0
	c0,0,0,0,0,0c0.8,0.1,1.6,0.1,2.3,0c0,0,0,0,0,0h0c0,0,0,0,0,0c0,0,0,0,0,0c0,0,0,0,0,0c0,0,0,0,0,0c0,0,0,0,0,0c0,0,0,0,0,0
	c0,0,0,0,0,0c0,0,0,0,0,0c0,0,0,0,0,0c0,0,0,0,0,0c0,0,0,0,0,0c0,0,0,0,0,0c0,0,0,0,0,0c0,0,0,0,0,0c0,0,0,0,0,0c0,0,0,0,0,0
	c0,0,0,0,0,0c0,0,0,0,0,0c0,0,0,0,0,0c0,0,0,0,0,0c0,0,0,0,0,0c0,0,0,0,0,0c0.4-0.1,0.9-0.3,1.3-0.5l93.9-48.7l-0.3,50.2
	c-24.6,15.7-56.9,23.6-96.3,23.6c-49.7,0-88.1-12.6-114-37.4V304.4z"/>
</svg>
