<?xml version="1.0" encoding="utf-8"?>
<!-- Generator: Adobe Illustrator 16.0.4, SVG Export Plug-In . SVG Version: 6.00 Build 0)  -->
<!DOCTYPE svg PUBLIC "-//W3C//DTD SVG 1.1//EN" "http://www.w3.org/Graphics/SVG/1.1/DTD/svg11.dtd">
<svg version="1.1" id="_x39_._JobSearch" xmlns="http://www.w3.org/2000/svg" xmlns:xlink="http://www.w3.org/1999/xlink" x="0px"
	 y="0px" width="400px" height="470px" viewBox="0 0 400 470" enable-background="new 0 0 400 470" xml:space="preserve">
<path fill="#D65D85" d="M40,143.6c0-7.6,5.8-13.5,13.1-13.5H400v-13.4H53.1c-14.6,0-26.6,12.1-26.6,27V402H40V143.6z"/>
<path fill="#D65D85" d="M229.5,364.9c2,2.7,4.1,5.3,6.6,7.8c7.6,7.6,16.7,12.9,26.4,15.7H298c9.7-2.9,18.7-8.1,26.4-15.7
	c2.4-2.4,4.6-5,6.6-7.8h-55v-16.7h63.5c1.6-4.9,2.6-10,3-15.1H276v-16.7h65.5c-1-5.2-2.7-10.3-5.1-15.1H276v-16.7h48.6
	c-0.1-0.1-0.1-0.1-0.2-0.2c-7-7-15.2-11.9-23.9-14.9H276v-3.2c-14.5,1-28.8,7-39.9,18.1c-0.1,0.1-0.1,0.1-0.2,0.2h2.6v16.7H224
	c-2.3,4.8-4,9.9-5.1,15.1h19.5V333H218c0.4,5.1,1.4,10.2,3,15.1h17.5v16.7H229.5z"/>
<path fill="#D65D85" d="M374.7,316.3H400v-15.1h-28.5C373,306.1,374,311.2,374.7,316.3z"/>
<path fill="#D65D85" d="M373.4,348.2H400V333h-24.6C375.1,338.1,374.5,343.2,373.4,348.2z"/>
<path fill="#D65D85" d="M364.7,284.5H400v-15.1h-45.1C358.7,274.1,362,279.2,364.7,284.5z"/>
<path fill="#D65D85" d="M337.8,252.6H400v-15.1h-91.5C318.9,240.7,328.8,245.8,337.8,252.6z"/>
<path fill="#D65D85" d="M192.3,364.9H71.4v-16.7h115.7c-1.1-5-1.7-10.1-2-15.1H71.4v-16.7h114.4c0.7-5.1,1.7-10.2,3.2-15.1H71.4
	v-16.7h124.4c2.7-5.3,6-10.3,9.8-15.1H71.4v-16.7h151.3c15.8-12,34.5-18.5,53.4-19.3v-12.5h124v-15.1H276V189h124v-15.1H276v-16.7
	h124v-13.6H257.7H52.4v244.8h153.9C200.4,381.1,195.7,373.2,192.3,364.9z M153,157.1h83.6v16.7H153V157.1z M153,189h83.6v16.7H153
	V189z M153,220.8h83.6v16.7H153V220.8z M71.4,157.6h66.8v77.7H71.4V157.6z"/>
<path fill="#D65D85" d="M354.7,388.3H400v-23.5h-31.7c-3.4,8.2-8,16.1-13.8,23.3L354.7,388.3z"/>
<polygon fill="#D65D85" points="400,402 380.7,402 400,421.3 "/>
<path fill="#D65D85" d="M47.1,454.2h167.5V470h86.1v-15.8h78.4l-33-33.1l5.2-5.2l-12.9-12.1c-34.9,27-84.3,26.4-118.6-1.8H26.6v31.9
	C26.6,445.2,35.7,454.2,47.1,454.2z"/>
</svg>
