<?xml version="1.0" encoding="utf-8"?>
<!-- Generator: Adobe Illustrator 16.0.4, SVG Export Plug-In . SVG Version: 6.00 Build 0)  -->
<!DOCTYPE svg PUBLIC "-//W3C//DTD SVG 1.1//EN" "http://www.w3.org/Graphics/SVG/1.1/DTD/svg11.dtd">
<svg version="1.1" id="_x31_._EverydayLanguage" xmlns="http://www.w3.org/2000/svg" xmlns:xlink="http://www.w3.org/1999/xlink"
	 x="0px" y="0px" width="400px" height="470px" viewBox="0 0 400 470" enable-background="new 0 0 400 470" xml:space="preserve">
<path fill="#27A574" d="M296.5,299.4c0-6.7,4.3-11.4,10.7-11.4c6.5,0,10.7,4.7,10.7,11.4c0,6.5-4.1,11.4-10.7,11.4
	C300.9,310.8,296.3,305.9,296.5,299.4z"/>
<path fill="#27A574" d="M332.9,299.4c0-6.7,4.6-11.4,10.9-11.4c6.3,0,10.5,4.7,10.7,11.4c0,6.5-4.3,11.4-10.9,11.4
	C337.2,310.8,332.7,305.9,332.9,299.4z"/>
<path fill="#27A574" d="M369.2,299.4c0-6.7,4.5-11.4,10.9-11.4c6.3,0,10.7,4.7,10.7,11.4c0,6.5-4.2,11.4-10.9,11.4
	C373.6,310.8,369.2,305.9,369.2,299.4z"/>
<path fill="#27A574" d="M65.8,335.8c-1.1,0-2.1-0.3-3.1-0.9c-2.2-1.3-3.3-4-2.7-6.5l11.7-50.8c-22.8-20.2-35.4-45.9-35.4-72.7
	c0-30.1,15.5-58.4,43.6-79.5c27.6-20.7,64.3-32.1,103.2-32.1c38.9,0,75.6,11.4,103.2,32.1c28.1,21.1,43.6,49.3,43.6,79.5
	c0,30.2-15.5,58.4-43.6,79.5c-27.6,20.7-64.3,32.1-103.2,32.1c-26.4,0-52.1-5.3-74.6-15.4l-38.8,33.2
	C68.6,335.3,67.2,335.8,65.8,335.8z M183.1,105.3c-74.3,0-134.8,44.7-134.8,99.6c0,24.3,12,47.7,33.9,65.9c1.7,1.4,2.5,3.8,2,6
	l-8.4,36.6l27.9-23.9c1.8-1.5,4.3-1.9,6.5-0.9c21.8,10.4,47,15.9,73,15.9c74.3,0,134.8-44.7,134.8-99.6
	C317.9,150,257.4,105.3,183.1,105.3z"/>
<path fill="#27A574" d="M171.3,231.5l-0.4-4.7c-1.1-9.8,2.2-20.5,11.2-31.4c8.2-9.6,12.7-16.7,12.7-24.8c0-9.3-5.8-15.5-17.2-15.6
	c-6.5,0-13.8,2.2-18.3,5.6l-4.3-11.4c6-4.4,16.3-7.3,25.9-7.3c20.9,0,30.3,12.9,30.3,26.7c0,12.3-6.9,21.2-15.6,31.6
	c-8,9.4-10.9,17.4-10.3,26.6l0.1,4.7H171.3z M167.3,256.8c0-6.7,4.6-11.4,10.9-11.4c6.4,0,10.7,4.8,10.7,11.4
	c0,6.4-4.2,11.2-10.9,11.2C171.7,268.1,167.3,263.2,167.3,256.8z"/>
<g>
	<path fill="#27A574" d="M399,340.6l1,4v-8.9C399,337.1,398.6,338.9,399,340.6z"/>
	<path fill="#27A574" d="M400,360.5l-17.4-13.9c-1.1-0.9-2.4-1.3-3.7-1.3c-0.6,0-1.3,0.1-1.9,0.3c-14.5,4.8-30.2,7.3-46.6,7.3
		c-42.9,0-81.2-17.5-96.3-43.2c24.6-6.9,46.2-18.6,62.9-34.2c17.4-16.2,28.3-35.6,31.8-56.4c0.5,0,1.1,0,1.6,0
		c26.8,0,51.3,6.7,69.7,17.7v-13.6c-19.9-10.4-44.2-16-69.7-16c-2.3,0-4.7,0.1-7.1,0.2c-3,0.1-5.4,2.4-5.7,5.4
		c-2.1,19.8-12,38.5-28.7,54.1c-16.8,15.7-39.2,27.1-64.8,33.2c-1.7,0.4-3.2,1.5-4,3.1s-0.9,3.4-0.2,5c6.8,16.3,21.5,30.9,41.4,41.1
		c20,10.3,43.9,15.7,69.2,15.7c16.5,0,32.4-2.3,47.3-6.9l22.4,17.8V360.5z"/>
</g>
</svg>
