<?xml version="1.0" encoding="utf-8"?>
<!-- Generator: Adobe Illustrator 16.0.4, SVG Export Plug-In . SVG Version: 6.00 Build 0)  -->
<!DOCTYPE svg PUBLIC "-//W3C//DTD SVG 1.1//EN" "http://www.w3.org/Graphics/SVG/1.1/DTD/svg11.dtd">
<svg version="1.1" id="_x32_._People" xmlns="http://www.w3.org/2000/svg" xmlns:xlink="http://www.w3.org/1999/xlink" x="0px"
	 y="0px" width="400px" height="470px" viewBox="0 0 400 470" enable-background="new 0 0 400 470" xml:space="preserve">
<path fill="#60c874" d="M37.4,219c-6.1,6.5-9.7,15.1-9.7,24.1c0,18.8,14.8,34.2,33.3,35.3c0,0.6-0.1,1.2-0.1,1.8
	c0,19.3,15.7,35,35,35c2.9,0,5.9-0.4,8.7-1.1c4.9,9.7,14.2,16.3,24.9,17.9l-0.5,4.6c-1.8,0.5-4,1.1-6.4,1.9c0,0-0.1,0-0.1,0
	c0,0-0.1,0-0.2,0c-7.5,2.7-19.1,5.9-30.3,9.1c-13.3,3.7-25.8,7.3-33.3,10.2c-6.7,2.6-12.1,7.3-15.6,13.6
	c-11.8,21.4-18.8,54.5-20.8,98.5h12c2-41.5,8.5-73.3,19.2-92.7c2.7-4.8,6.6-7.2,9.5-8.3c6.9-2.7,19.7-6.3,32.1-9.8
	c9.7-2.7,19.7-5.5,27.3-8c4.3,4,12.1,8.6,25.6,10.6c0.1,0,0.1,0,0.2,0c0.8,0.1,1.6,0.2,2.5,0.3c0.4,0,0.8,0.1,1.2,0.1
	c0.5,0.1,1,0.1,1.5,0.1c0.7,0.1,1.3,0.1,2,0.2c0.1,0,0.2,0,0.3,0c0.2,0,0.4,0,0.6,0l0.3,0c0.2,0,0.5,0,0.7,0c0.6,0,1.2,0.1,1.8,0.1
	c1.1,0,2.1,0.1,3.1,0.1c5.2,0,10.2-0.4,14.8-1.2c0.1,0,0.2,0,0.4-0.1c0.9-0.2,1.9-0.3,2.8-0.5c0.4-0.1,0.9-0.2,1.3-0.3
	c0.6-0.1,1.1-0.3,1.7-0.4c0.3-0.1,0.5-0.1,0.8-0.2c0.1,0,0.2-0.1,0.3-0.1c1.9-0.5,3.7-1.1,5.3-1.7c0.2-0.1,0.4-0.1,0.5-0.2l0.1,0
	c0.7-0.3,1.4-0.5,2-0.8c0.5-0.2,0.9-0.4,1.3-0.6l0.5-0.2c0.2-0.1,0.5-0.2,0.7-0.3c2.8-1.5,5.3-3.2,7.4-5c7.6,2.5,17.6,5.3,27.3,8.1
	c12.4,3.5,25.2,7.1,32.1,9.8c2.9,1.1,6.8,3.4,9.5,8.3c10.7,19.4,17.3,51.2,19.2,92.7h14c-2-44-8.9-77.1-20.8-98.5
	c-3.5-6.3-8.9-11-15.6-13.6c-5.5-2.2-14-4.7-22.7-7.2c3-13.9,7.1-24.6,12.4-31.8c0,0,0-0.1,0.1-0.1c3.2-4.5,6.6-7.4,10.6-8.8
	c9.3-3.5,43.3-13.7,63.4-19.7c0.8,0.9,1.9,1.5,3.1,1.7l39.9,8.7c1.6,0.3,3.2,0,4.5-0.8c0.6-0.4,1.1-0.8,1.5-1.4
	c0.4,0.5,0.9,1,1.5,1.4c1.3,0.9,3,1.2,4.5,0.8l13.2-2.9v-12.3l-9.9,2.2l-2.2-10.1L400,275v-12.3l-19.3,4.1l-21.2-4.5l1.1-23.3
	c0.1-2.1-0.9-4.2-2.7-5.3c-14.6-9.4-25.1-28.4-32.2-58c-0.6-2.5-2.8-4.4-5.4-4.6c-2.2-0.2-4.2,0.9-5.4,2.7c-3.4-3.2-9-9.7-10.9-19.1
	c-0.9-4.4-0.8-7.3-0.3-8.7c0.9,1.1,2,2.4,2.9,4c0,0,0,0.1,0.1,0.1c0.2,0.4,0.4,0.7,0.6,1.1c0,0.1,0.1,0.2,0.1,0.2
	c0.2,0.3,0.3,0.7,0.5,1.1c0,0.1,0.1,0.2,0.1,0.3c0.1,0.4,0.3,0.7,0.4,1.1c0,0.1,0.1,0.2,0.1,0.4c0.2,0.5,0.3,1,0.4,1.5
	c0.1,0.3,0.1,0.7,0.3,1c0,0.1,0.1,0.3,0.2,0.4c0.1,0.2,0.1,0.4,0.2,0.5c0.1,0.2,0.2,0.3,0.3,0.5c0.1,0.1,0.2,0.3,0.3,0.4
	c0.1,0.2,0.2,0.3,0.4,0.4c0.1,0.1,0.1,0.1,0.2,0.2c0.1,0.1,0.1,0.1,0.2,0.2c0.1,0.1,0.2,0.1,0.2,0.2c0.2,0.2,0.4,0.3,0.7,0.5
	c0.1,0,0.2,0.1,0.2,0.1c0.3,0.1,0.5,0.3,0.8,0.4c0.1,0,0.1,0,0.2,0.1c0.3,0.1,0.6,0.2,0.9,0.3c0,0,0.1,0,0.1,0
	c0.3,0.1,0.7,0.1,1.1,0.1c0,0,0.1,0,0.1,0c0.3,0,0.6,0,1-0.1c1.1-0.2,2.1-0.6,3.1-1.1c0.4-0.3,0.9-0.5,1.3-0.8l0.2-0.1
	c0.4-0.3,0.8-0.6,1.1-0.9c1-1,1.6-2.4,1.6-3.9c0-0.7,0-1.5,0-2.4c0-1.8,0-4,0-6.4c0-4,0-9.8,0.2-12.2c0-0.3,0-0.6,0.1-0.8
	c2.9-20,5.7-31.5,30.4-46.8c3.7,1.1,11,3.2,17.6,5.5c0.3,0.1,0.5,0.2,0.9,0.3c1.9,0.7,4.7,1.6,7.5,2.6c0.5,0.2,0.9,0.3,1.4,0.5
	c1.5,0.5,3.1,1.1,4.6,1.6c0,0,0,0,0.1,0c0.5,0.2,1,0.4,1.5,0.5c0.4,0.1,0.8,0.3,1.1,0.4c0.6,0.2,1,0.3,1.1,0.4c2.7,1,5.4,2,8,2.9
	c0.6,0.2,1.3,0.4,1.9,0.7c0,0,0.1,0,0.1,0c0,0,0,0,0,0V88.2c-0.4-0.1-0.7-0.3-1.1-0.4c-1.5-0.6-3.1-1.1-4.6-1.7
	c-0.4-0.2-1.3-0.5-2.5-0.9c-1.5-0.5-3.7-1.3-6.4-2.2c-3.2-1.1-6.4-2.2-8.5-2.9c-0.4-0.1-0.7-0.3-1-0.4c-1.8-0.6-3.7-1.3-5.5-1.9
	c-0.6-0.2-1.2-0.4-1.8-0.6c-0.9-0.3-1.8-0.6-2.6-0.8c-6-1.9-10.7-3.2-11-3.2c-0.2-0.1-0.5-0.1-0.7-0.1c-0.4-0.1-0.7-0.1-1.1-0.1
	c-1,0-2,0.3-2.9,0.9c-30.6,18.4-34.9,33.7-38.3,56.7c-0.1,0.5-0.1,1-0.2,1.8c-0.1,1.2-0.1,2.7-0.1,4.5c0,0,0,0,0,0
	c-0.3-0.3-0.6-0.6-0.9-0.9c-0.1-0.1-0.1-0.1-0.2-0.2c-0.1-0.1-0.2-0.2-0.2-0.2c-2.8-25.3-3.3-50.4,10-65.3
	c10-11.2,32.9-14.3,33.1-14.3c1.3-0.2,2.5-0.8,3.5-1.7c4.4-4.4,15.7-7.4,24-7.8c0.5,0,1.1,0,1.6,0c5.2,0,11.2,1,17.5,3V36.9
	c-7-1.9-13.6-2.7-19.6-2.5c-10,0.4-22.9,3.6-30.5,9.9c-6.5,1.1-27.5,5.5-38.6,18c-13,14.7-16.9,35.8-13.2,72.3
	c-1.5,0.9-2.8,2.1-3.9,3.6c-3.1,4.4-3.8,10.6-2.1,18.9c3.9,18.5,18.1,28.5,18.7,28.9c1.2,0.8,2.7,1.2,4.1,1c0.4,0,0.8-0.1,1.2-0.2
	c7.4,26.3,18,44.3,32.3,54.9l-0.8,17.2h-3.5c-3.1,0-5.6,2.3-6,5.4c0,0.4,0,0.8,0,1.3l-3.8,11.3c-22.4,6.6-60,17.9-70.3,21.7
	c-6.1,2.2-11.6,6.6-16.2,13.1c-6.3,8.5-11.1,20.6-14.4,36.1c-0.3-0.1-0.6-0.2-0.9-0.3c-11.2-3.1-22.8-6.4-30.3-9.1c0,0-0.1,0-0.1,0
	c0,0-0.1,0-0.1,0l-1.1-0.3c-2-0.6-3.9-1.2-5.4-1.6l-0.7-6.9c12.9-1.4,23.7-10.1,28-22.2c3.3,1,6.7,1.5,10.1,1.5
	c19.5,0,35.3-15.8,35.3-35.3c0-1.8-0.2-3.7-0.5-5.5c15.6-3.7,26.9-17.6,26.9-34.3c0-7.5-2.5-14.8-6.9-20.9
	c7.2-6.9,11.3-16.4,11.3-26.6c0-13.3-7.2-25.4-18.6-31.9c2.1-4.8,3.1-10,3.1-15.3c0-21.6-17.5-39.1-39.1-39.1
	c-1.4,0-3.1,0.1-4.7,0.2c-3-22.4-22.3-39.6-45.4-39.6c-11.2,0-24.9,4.8-32.8,12.9c-8.4-7.7-19.2-12-30.7-12
	c-22.4,0-40.9,15.9-44.9,37.2c-1.6-0.2-3.2-0.3-4.7-0.3c-21.6,0-39.1,17.5-39.1,39.1c0,5.7,1.3,11.3,3.7,16.4
	c-14.5,5.1-24.6,18.7-24.6,34.7C21.4,201,27.6,212.2,37.4,219z M345.7,271.4l4.8,1c0.5,0.2,1,0.4,1.5,0.5l21.6,4.6l-2.2,10.1
	l-28.1-6.1c-0.1-0.5-0.2-1.1-0.4-1.5L345.7,271.4z M182.5,294.5c-1.8,1.2-2.9,3.4-2.6,5.6l4.3,41.8c0.2,2,1.3,3.6,3,4.6
	c-0.4,0.2-0.8,0.3-1.3,0.5c-0.1,0.1-0.3,0.1-0.5,0.2c-1.3,0.5-2.7,0.9-4.3,1.3l-0.2,0c-3.6,1-7.7,1.6-12,1.9
	c-2.2,0.2-4.4,0.3-6.5,0.3c-1.5,0-3.1,0-4.9-0.1l-0.7,0c-0.1,0-0.1,0-0.2,0c-0.7,0-1.5-0.1-2.2-0.2c-0.1,0-0.1,0-0.2,0
	c-6.4-0.6-12.2-2-16.7-3.9c1.6-0.9,2.8-2.6,3-4.6l4.3-41.5c0.2-2.2-0.8-4.4-2.7-5.6c-13-8.5-22.8-26.9-29.8-56.4
	c-0.5-2.3-2.4-4-4.6-4.5c-0.3-0.1-0.7-0.1-1-0.1c-0.2,0-0.4,0-0.6,0l-0.2,0c-1-0.4-3.3-1.6-5.7-3.9c-2.3-2.3-4.7-5.8-5.7-10.9
	c-1.4-6.8,0-8.8,0.1-9c0.4-0.4,1.3-0.5,1.8-0.5c0.1,0,0.3,0,0.4,0c0.4,0,0.7,0.1,0.9,0.1c0.6,0.3,1.3,0.4,1.9,0.5c0.3,0,0.7,0,1,0
	s0.7-0.1,1-0.2c0.3,0,0.5,0,0.8,0c0.2,0,0.4,0,0.6,0c0.4,0,0.9,0,1.3,0s0.9,0,1.4,0c0.2,0,0.5,0,0.7,0c1,0,2.1-0.1,3.2-0.2
	c0.5,0,1.1-0.1,1.6-0.1c0.1,0,0.1,0,0.2,0c14.9-1.6,37.1-8.6,51.7-43.5c8.5,7.8,26.1,19.8,54.4,20.3c0.4,3.3,0.7,6.6,0.7,9.9
	c0,2.2,0,4.6-0.3,7.5c0,0.2,0,0.5,0,0.7c0.1,1.6,0.7,3,1.9,4.1c0,0,0,0,0,0l0,0c0.6,0.5,1.3,0.9,2,1.2c0.9,0.3,1.8,0.4,2.7,0.3
	c0.1,0,0.2,0,0.3,0c0.3,0,0.6-0.1,0.8-0.2c0.1,0,0.1,0,0.2-0.1c0,0,0,0,0,0c0,0,0.6-0.2,1.4-0.2c0.1,0,0.2,0,0.3,0
	c0.5,0,1.4,0.1,1.8,0.5c0.1,0.2,1.1,1.6,0.6,6.3c-0.1,0.8-0.2,1.7-0.4,2.6c-2.2,10.4-9.5,14-11.4,14.8h-0.1h0c-0.1,0-0.2,0-0.3,0
	c-0.1,0-0.2,0-0.3,0c-0.1,0-0.2,0-0.3,0c-2.5,0.2-4.7,2-5.3,4.6C205,267.5,195.3,285.9,182.5,294.5z M56.1,164
	c2.2-0.2,4.1-1.6,5-3.6c0.9-2,0.6-4.4-0.8-6.1c-3.9-4.9-6-10.7-6-16.7c0-14.9,12.2-27.1,27.1-27.1c2.5,0,5.1,0.5,8.2,1.4
	c1.8,0.6,3.7,0.3,5.3-0.8c1.5-1.1,2.5-2.8,2.5-4.7c0.6-18.4,15.4-32.8,33.7-32.8c10.2,0,19.8,4.7,26.4,12.9c0.1,0.1,0.2,0.3,0.3,0.4
	c1.3,1.6,3.3,2.4,5.4,2.1c2.1-0.3,4-1.7,4.8-3.7c2.4-5.8,14.5-12.6,26.5-12.6c18.7,0,33.8,15.2,33.8,33.8c0,3,2.2,5.5,5.2,6
	c0.5,0.1,1,0.1,1.6,0.1c1.1,0,2.5-0.1,4.3-0.3c1.8-0.2,3.9-0.3,5.3-0.3c14.9,0,27.1,12.2,27.1,27.1c0,5.2-1.5,10.4-4.4,14.8
	c-1,1.5-1.3,3.5-0.7,5.2c0.6,1.8,2,3.1,3.7,3.7c10.1,3.5,16.8,12.9,16.8,23.5c0,8.4-4.2,16.2-11.3,20.9c-1.5,1-2.5,2.7-2.7,4.5
	c-0.1,1.8,0.6,3.7,1.9,4.9c4.9,4.5,7.6,10.6,7.6,17.1c0,12.7-10,22.9-22.7,23.3c-1.9,0.1-3.7,1.1-4.8,2.7c-1.1,1.6-1.3,3.7-0.6,5.5
	c1.1,2.8,1.6,5.7,1.6,8.4c0,12.9-10.5,23.3-23.3,23.3c-3.9,0-7.7-1-11.4-3.1c-1.8-1-3.9-1-5.7-0.1c-1.8,0.9-3,2.7-3.2,4.7
	c-1.1,10.2-9.1,18.1-19,19.2l-1.6-15.4c13.5-10.5,23.3-28.9,30.5-57.3c4-1.6,15.5-7.7,18.8-23.6c0.5-2.7,0.8-5.1,0.9-7.3
	c0.1-4.9-1.1-8.7-3.5-11.6c-2.1-2.6-5-4.2-8.5-4.7c0-0.6,0-1.2,0-1.7c-0.1-5.7-0.6-11.4-1.7-16.9c-0.1-0.5-0.3-0.9-0.5-1.4
	c-1-2.1-3.2-3.6-5.6-3.5c-1,0-2,0-3,0c-0.4,0-0.8,0-1.2,0c-0.5,0-1.1,0-1.6,0c-0.5,0-1.1,0-1.6-0.1c-0.4,0-0.8,0-1.2-0.1
	c-0.5,0-1.1-0.1-1.6-0.1c-0.4,0-0.8-0.1-1.1-0.1c-0.6-0.1-1.1-0.1-1.7-0.2c-0.3,0-0.7-0.1-1-0.1c-0.6-0.1-1.2-0.2-1.9-0.3
	c-0.2,0-0.5-0.1-0.7-0.1c-9.6-1.6-18.4-4.8-26.2-9.8c-6-3.8-9.8-7.6-11.6-9.6v-2.3c0-3-2.2-5.5-5.1-5.9c-0.7-0.1-1.5-0.1-2.2,0.1
	c0,0-0.1,0-0.1,0c-0.3,0.1-0.6,0.2-0.9,0.3c-1.6,0.7-2.9,2-3.5,3.8c-14.6,47.4-40.4,47.9-54.2,48.2c-0.6,0-1.1,0-1.7,0c0,0,0,0,0,0
	c-0.7-0.2-1.7-0.3-2.8-0.4c-0.4,0-0.8,0-1.2,0c-4.6,0-8.5,1.7-11.1,4.9c-2.4,2.9-3.5,6.8-3.4,11.7c0,2.2,0.3,4.7,0.9,7.3
	c3.3,15.9,14.9,21.9,18.8,23.6c7.3,28.7,17.2,47.2,30.9,57.7l-1.8,17.3c-8-1.4-14.6-7.2-17-15.3c-0.5-1.7-1.7-3-3.3-3.8
	c-0.8-0.4-1.6-0.5-2.5-0.5c-0.9,0-1.7,0.2-2.5,0.6c-3.1,1.4-6.3,2.2-9.6,2.2c-12.7,0-23-10.3-23-23c0-2,0.3-4,1.1-6.5
	c0.6-2,0.1-4.2-1.3-5.7c-1.4-1.6-3.5-2.3-5.5-1.9c-1.6,0.3-3,0.4-4.2,0.4c-12.9,0-23.3-10.5-23.3-23.3c0-8.3,4.4-15.8,11.7-20.1
	c2-1.2,3.2-3.4,3-5.8s-1.8-4.3-4-5.1c-10.1-3.5-16.9-12.9-16.9-23.5C33.4,175.8,43.2,165.1,56.1,164z"/>
</svg>
