
<svg xmlns="http://www.w3.org/2000/svg" viewBox="0 0 100 100">
	<circle fill="#A5DBDB" cx="50" cy="50" r="49.5"/>
	<path fill="#FFFFFF" d="M72,75.4c0,2-2.7,4.7-4.7,4.7H30.2c-2,0-4.7-2.7-4.7-4.7V26.6c0-2,2.7-4.7,4.7-4.7h37.1
		c2,0,4.7,2.7,4.7,4.7v10.7c1,0.1,2,0.2,2.9,0.4v-12c0-2.6-4.1-6.6-6.6-6.6H29.2c-2.6,0-6.6,4.1-6.6,6.6v50.8c0,2.6,4.1,6.6,6.6,6.6
		h39.1c2.6,0,6.6-4.1,6.6-6.6V53.2c-0.8-0.3-1.8-0.6-2.9-0.7V75.4z"/>
	<path fill="#FFFFFF" d="M65.3,29.3H42.2c-0.5,0-0.9,0.5-0.9,1c0,0.6,0.4,1,0.9,1h23.1c0.5,0,0.9-0.4,0.9-1
		C66.2,29.7,65.8,29.3,65.3,29.3z"/>
	<path fill="#FFFFFF" d="M65.3,37.3H32.2c-0.5,0-0.9,0.5-0.9,1c0,0.6,0.4,1,0.9,1h29.1c1.5-0.7,3.1-1.2,4.7-1.6
		C65.9,37.5,65.6,37.3,65.3,37.3z"/>
	<path fill="#FFFFFF" d="M32.2,45.3c-0.5,0-0.9,0.5-0.9,1c0,0.6,0.4,1,0.9,1h19.7c0.5-0.7,1-1.4,1.6-2H32.2z"/>
	<path fill="#FFFFFF" d="M32.2,53.3c-0.5,0-0.9,0.5-0.9,1c0,0.6,0.4,1,0.9,1h15.6c0.2-0.7,0.5-1.3,0.7-2H32.2z"/>
	<path fill="#FFFFFF" d="M32.2,61.3c-0.5,0-0.9,0.5-0.9,1c0,0.6,0.4,1,0.9,1h13.1v-2H32.2z"/>
	<path fill="#FFFFFF" d="M32.2,69.3c-0.5,0-0.9,0.5-0.9,1c0,0.6,0.4,1,0.9,1h13.2v-2H32.2z"/>
		<path fill="#FFFFFF" d="M83.4,75.2h-1.6c-1.8,0-3.2-1.5-3.2-3.2v-8.5c0-1.8,1.5-3.2,3.2-3.2h1.4c0.1,0,0.2,0,0.3-0.1
			c0-0.1,0.1-0.2,0-0.3c-0.1-0.5-2.9-11.5-12.9-11.5c-10,0-12.8,11.4-12.8,11.5c0,0.1,0,0.3,0,0.3c0,0.1,0.2,0.1,0.3,0.1h1.5
			c1.8,0,3.2,1.5,3.2,3.2v8.5c0,1.8-1.5,3.2-3.2,3.2h-1.6c-1.8,0-3.2-1.5-3.2-3.2v-0.6h-3.2l-0.3-0.8c-0.1-0.3-0.7-0.9-1-1l-0.8-0.3
			v-1.4c0-0.3,0-1,0-1.6c0-0.6,0-1.2,0-1.5v-1.3l0.7-0.3c0.3-0.2,0.5-0.5,0.6-0.6l0-0.5c0-7.2,6.8-20.5,19.8-20.5
			c7.5,0,12.4,4.2,15.1,7.7c3.6,4.7,4.9,9.8,4.9,12.8v0.5c0,0,0.2,0.2,0.4,0.3l0.9,0.3v6.5L91,69.7c-0.4,0.1-0.9,0.6-1.1,0.9
			l-0.3,0.7h-2.9v0.6C86.7,73.7,85.2,75.2,83.4,75.2z M81.8,62.6c-0.4,0-0.8,0.3-0.8,0.8v8.5c0,0.4,0.3,0.8,0.8,0.8h1.6
			c0.4,0,0.8-0.3,0.8-0.8v-7.1c0-0.5,0-0.9,0-1.3l0-0.2c0-0.5,0.1-0.8,0.4-1c-0.4,0.2-0.8,0.3-1.3,0.3H81.8z M57.1,62.4
			c0.3,0.4,0.3,1.2,0.3,2.2v7.3c0,0.4,0.3,0.8,0.8,0.8h1.6c0.4,0,0.8-0.3,0.8-0.8v-8.5c0-0.4-0.3-0.8-0.8-0.8h-1.5
			C57.9,62.6,57.5,62.6,57.1,62.4z M86.7,68.8h1.4c0.3-0.4,0.8-0.8,1.3-1.1v-3.1c-0.8-0.5-1.3-1.4-1.3-2.2v-0.5
			c0-5.1-5.2-18-17.4-18c-11.4,0-17.3,11.7-17.3,18v0.6c0,0.9-0.6,1.7-1.3,2.3c0,0.3,0,0.8,0,1.3c0,0.6,0,1.2,0,1.5
			c0.4,0.3,0.9,0.7,1.2,1.2h1.6c0-0.6,0-1.3,0-2.2l0-3.3c0.1-1.4,1.2-1.4,1.3-1.4c0.1,0,0.2,0,0.3,0c-0.1-0.1-0.3-0.2-0.4-0.4
			c-0.5-0.7-0.7-1.6-0.5-2.4c0-0.1,3.3-13.4,15.2-13.4C82.7,45.8,86,59,86,59.2c0.2,0.9,0,1.8-0.5,2.4c-0.2,0.2-0.3,0.4-0.6,0.5
			c0.1,0,0.3-0.1,0.5-0.1h1.2l0.1,1.6V68.8z"/>
</svg>
