
<svg xmlns="http://www.w3.org/2000/svg" viewBox="0 0 100 100">
	<path fill="#B9D786" d="M50,0.5C22.7,0.5,0.5,22.7,0.5,50c0,27.3,22.2,49.5,49.5,49.5c27.3,0,49.5-22.2,49.5-49.5
		C99.5,22.7,77.3,0.5,50,0.5L50,0.5z"/>
	<polygon fill="#999787" points="54,50.1 52.4,48.6 50.8,50.2 49.1,51.8 50.7,53.3 56.1,58.5 57.8,56.9 59.5,55.3 	"/>
	<polygon fill="#222221" points="59.9,53.3 58.3,54.9 57.1,56.1 55.9,57.3 54.4,58.9 75,79.5 77.7,76.7 80.5,74 	"/>
	<path fill="#FFFFFF" d="M54.7,25.9c-7.7-7.7-20.1-7.7-27.8,0c-7.7,7.7-7.7,20.1,0,27.8c7.7,7.7,20.1,7.7,27.8,0
		C62.4,46,62.4,33.5,54.7,25.9z M49.9,48.9c-5,5-13.2,5-18.2,0c-5-5-5-13.2,0-18.2c5-5,13.2-5,18.2,0C54.9,35.7,54.9,43.8,49.9,48.9
		z"/>
	<path opacity="0.3" fill="#009CDF" d="M49.9,30.6c-5-5-13.2-5-18.2,0c-5,5-5,13.2,0,18.2c5,5,13.2,5,18.2,0
		C54.9,43.8,54.9,35.7,49.9,30.6z"/>
	<circle opacity="0.2" fill="#FFFFFF" cx="41.6" cy="34.3" r="4.3"/>
</svg>
