
<svg xmlns="http://www.w3.org/2000/svg" viewBox="0 0 100 100">
	<circle fill="#A5DBDB" cx="50" cy="50" r="49.5"/>
	<path fill="#FFFFFF" d="M75.4,22.8H24.6c-2.6,0-6.6,4.1-6.6,6.6v39.1c0,2.6,4.1,6.6,6.6,6.6h50.8c2.6,0,6.6-4.1,6.6-6.6V29.4
		C82,26.9,78,22.8,75.4,22.8z M25.6,25.7h48.8c2,0,4.7,2.7,4.7,4.7v25.8L64.2,40.4c-0.3-0.3-0.7-0.5-1.1-0.5c-0.4,0-0.8,0.2-1.1,0.4
		L45.7,56.8l-12.3-7.2c-0.5-0.3-1.1-0.3-1.6,0l-11,7.3V30.4C20.9,28.4,23.6,25.7,25.6,25.7z M74.4,72.3H25.6c-2,0-4.7-2.7-4.7-4.7
		v-7c0,0,0,0,0,0l11.8-7.8L45.2,60c0.6,0.3,1.3,0.2,1.8-0.2l16-16.2l15.8,16.8c0.1,0.1,0.1,0.1,0.2,0.2v7.1
		C79.1,69.6,76.4,72.3,74.4,72.3z"/>
		<path fill="#FFFFFF" d="M37,45c-3.9,0-7-3.1-7-7s3.1-7,7-7s7,3.1,7,7S40.9,45,37,45z M37,33c-2.8,0-5,2.2-5,5s2.2,5,5,5s5-2.2,5-5
			S39.8,33,37,33z"/>
</svg>
