
<svg xmlns="http://www.w3.org/2000/svg" viewBox="0 0 100 100">
	<path fill="#48c2c5" d="M50,0.5C22.7,0.5,0.5,22.7,0.5,50c0,27.3,22.2,49.5,49.5,49.5c27.3,0,49.5-22.2,49.5-49.5
		C99.5,22.7,77.3,0.5,50,0.5L50,0.5z"/>
	<path fill="#E6B25A" d="M20.3,24.6c0,0,20.3,0,21.9,0c1.1,0,1.8,0.9,2,1.7c0.4,1.6,1.1,3.5,2.1,3.5c1.8,0,34.6-0.1,34.6-0.1v44.9
		c0,0-0.4,1.2-1.6,1.2c-1.2,0-58.2,0-58.2,0s-2-0.4-2-1.8c0-1.4,0-47.7,0-47.7S19,24.6,20.3,24.6z"/>
	<polygon fill="#FFFFFF" points="23.4,32.4 80,32.4 80,41.9 20.8,41.9 20.8,34.5 	"/>
	<path fill="#E6B25A" d="M19.4,35.3c2,0,36,0,37.7,0c2.5,0,3.2-3,4.1-4.8c0.7-1.4,3.6-2.3,4.7-2.3c1,0,15,0,15.9,0
		c1,0,1.8,0.3,1.8,1.7c0,1.4-1.8,43-1.8,44.2c0,1.1-0.7,1.8-2.3,1.8c-1.7,0-58,0-59,0c-1.1,0-1.9-0.8-1.9-1.8c0-1-1.6-33.7-1.8-35.4
		C16.7,37,18,35.3,19.4,35.3z"/>
</svg>
