
<svg xmlns="http://www.w3.org/2000/svg" viewBox="0 0 100 100">
	<circle fill="#A5DBDB" cx="50" cy="50" r="49.5"/>
	<path fill="#FFFFFF" d="M66.5,28.3H43.4c-0.5,0-0.9,0.5-0.9,1c0,0.6,0.4,1,0.9,1h23.1c0.5,0,0.9-0.4,0.9-1
		C67.5,28.7,67.1,28.3,66.5,28.3z"/>
	<path fill="#FFFFFF" d="M59.4,44.3h-26c-0.5,0-0.9,0.5-0.9,1c0,0.6,0.4,1,0.9,1h23.8L59.4,44.3z"/>
	<path fill="#FFFFFF" d="M67.5,37.2c-0.1-0.5-0.4-0.9-0.9-0.9H33.4c-0.5,0-0.9,0.5-0.9,1c0,0.6,0.4,1,0.9,1h32.8L67.5,37.2z"/>
	<path fill="#FFFFFF" d="M46.3,68.3H33.4c-0.5,0-0.9,0.5-0.9,1c0,0.6,0.4,1,0.9,1h12.7L46.3,68.3z"/>
	<path fill="#FFFFFF" d="M47,60.3H33.4c-0.5,0-0.9,0.5-0.9,1c0,0.6,0.4,1,0.9,1h13.4L47,60.3z"/>
	<path fill="#FFFFFF" d="M50.4,52.3h-17c-0.5,0-0.9,0.5-0.9,1c0,0.6,0.4,1,0.9,1h14.8L50.4,52.3z"/>
	<path fill="#FFFFFF" d="M49.4,70.8c0,0,4.7-0.1,4.7-0.1l8.6,0.1c0.1,0,0.1,0,0.2-0.1c0,0,0,0,0,0l25.8-22.9c1.5-1.3,1.6-3.3,0.1-5
		l-7.1-7.9c-1.5-1.7-3.5-1.9-5-0.5L50.9,57.3c0,0,0,0,0,0c0,0-0.1,0.1-0.1,0.2L50,66.2L49.4,70.8z M54.2,68.5l-2-2.3l0.6-6.4
		l7.8,8.8L54.2,68.5z M86.8,45.7L62.6,67.2L54.4,58l24.1-21.5c0.3-0.3,0.9-0.3,1.2,0.1l7.1,7.9C87.1,44.9,87.1,45.4,86.8,45.7z"/>
	<path fill="#FFFFFF" d="M63.6,62.6c0.2-0.1,19.3-17.1,19.3-17.1c0.1-0.1,0.2-0.7-0.2-1.2c-0.4-0.4-1-0.5-1.1-0.3L62.3,61.1
		c-0.1,0.1-0.2,0.7,0.2,1.2C62.9,62.7,63.5,62.7,63.6,62.6z"/>
	<path fill="#FFFFFF" d="M60.7,59.2c0.1-0.1,19.2-17.1,19.2-17.1c0.1-0.1,0.2-0.7-0.2-1.2c-0.4-0.4-1-0.4-1.1-0.3L59.3,57.7
		c-0.1,0.1-0.2,0.7,0.2,1.2C59.9,59.4,60.5,59.4,60.7,59.2z"/>
	<path fill="#FFFFFF" d="M73.3,66.8v7.6c0,2-2.7,4.7-4.7,4.7H31.4c-2,0-4.7-2.7-4.7-4.7V25.6c0-2,2.7-4.7,4.7-4.7h37.1
		c2,0,4.7,2.7,4.7,4.7V32l2.9-2.6v-4.8c0-2.6-4.1-6.6-6.6-6.6H30.4c-2.6,0-6.6,4.1-6.6,6.6v50.8c0,2.6,4.1,6.6,6.6,6.6h39.1
		c2.6,0,6.6-4.1,6.6-6.6V64.1L73.3,66.8z"/>
</svg>
