
<svg xmlns="http://www.w3.org/2000/svg" viewBox="0 0 100 100">
	<path fill="#95BF7C" d="M50,0.5C22.7,0.5,0.5,22.7,0.5,50c0,27.3,22.2,49.5,49.5,49.5c27.3,0,49.5-22.2,49.5-49.5
		C99.5,22.7,77.3,0.5,50,0.5"/>
	<rect x="65.4" y="59.5" fill="#71247E" width="14.2" height="7.4"/>
	<path fill="#F3D8B8" d="M85.9,35.7c0,0.3-0.4,1.2-0.8,2.1c0.3-1.6,0.7-3.4,0.6-4c-0.1-8.3-6.7-13.7-13.2-13.7s-13.1,5.4-13.2,13.7
		c0,0.7,0.4,2.6,0.7,4.2c-0.4-1.1-0.9-2-0.8-2.4c0,0-3.1-0.9-2.2,3.2c0.6,3.1,3.1,4.8,3.1,4.8c0.6-0.1,0.9-0.4,1.1-0.8
		c0.9,3.7,2.6,9.1,6.6,11.7L67,65.8l5.5-1.4l5.5-0.2l-0.5-9.6c3.8-2.5,5.6-7.7,6.5-11.4c0.2,0.3,0.5,0.5,0.9,0.5
		c0,0,2.6-1.7,3.2-4.8C89,34.8,85.9,35.7,85.9,35.7z M72.5,56L72.5,56C72.5,56,72.5,56,72.5,56L72.5,56z"/>
	<path fill="#4A3280" d="M96,68.2c-0.5-0.6-1.1-1-1.8-1.2c-2-0.7-9.6-3-13.5-4.2l-1.1-3.3L72.5,61l0,0h0l0,0l-7.1-1.5l-1.1,3.3
		c-3.9,1.2-11.5,3.4-13.4,4.1c-1,0.4-1.8,1.1-2.5,2.1c-4.9,6.6-3.5,24.2-2.9,30.3c1.5,0.1,3,0.2,4.5,0.2
		C70.9,99.5,88.8,86.5,96,68.2z"/>
	<path fill="#222221" d="M85.5,23.2c-3.2-3.2-8.8-6.3-13-6.1c-1.8,0.1-4.2,0.7-5.3,1.8c0,0-4.8,0.6-7,3.1c-1.9,2.1-3.1,5.3-2.1,13.6
		c0,0,1.5,1.1,1.9,3c0,0,0,0.1,0.1,0.1v0c0,0,0,0,0,0c0.1,0,0.3-0.1,0.4-0.2c0-0.9,0-3.6,0.1-4.2c0.6-4.2,1.3-6.7,6.7-9.9
		c0,0,2.1,0.5,3.9,1.2c0.8,0.3,3.1,1.1,3.4,1.2c3.6,1.4,7.6,1.9,9.5,7c0.2,0.4,0.3,4,0.3,4.8c0.1,0.1,0.2,0.2,0.4,0.3
		c0.3-2.8,1.7-3.2,1.7-3.2C87,31.6,86.7,24.4,85.5,23.2z"/>
	<path fill="#453833" d="M56.4,44.7c0-2.6-1.6-4.7-3.9-5.5c0.6-1,1-2.1,1-3.4c0-3.5-2.8-6.3-6.3-6.3c-0.7,0-1.9,0.2-1.9,0.1
		c0-4.2-3.4-7.5-7.5-7.5c-2.5,0-5.4,1.4-6,3.1c0,0,0,0-0.1-0.1c-1.4-1.7-3.5-2.9-5.9-2.9c-4.1,0-7.4,3.2-7.5,7.3
		c-0.6-0.2-1.2-0.3-1.9-0.3c-3.5,0-6.3,2.8-6.3,6.3c0,1.5,0.5,2.8,1.4,3.9c-3,0.3-5.3,2.7-5.3,5.8c0,2.6,1.7,4.7,3.9,5.5
		c-1.6,1-2.8,2.7-2.8,4.8c0,3.1,2.5,5.5,5.5,5.5c0.3,0,0.7,0,1-0.1c-0.2,0.5-0.3,1-0.3,1.6c0,3,2.5,5.5,5.5,5.5
		c0.8,0,1.6-0.2,2.3-0.5c0.6,2.2,2.6,3.8,5,3.8c1.9,0,4-1,5.2-2.5c0.3-0.3,0.5-0.7,0.7-1.1c0.8,1.8,2.6,3.1,4.8,3.1
		c2.7,0,4.9-2,5.2-4.7c0.8,0.5,1.7,0.7,2.7,0.7c3.1,0,5.5-2.5,5.5-5.5c0-0.7-0.2-1.4-0.4-2c3-0.1,5.4-2.5,5.4-5.5
		c0-1.6-0.7-3.1-1.8-4.1C55.3,48.5,56.4,46.7,56.4,44.7"/>
	<path fill="#8E6E55" d="M43.4,48C43.4,48,43.4,48,43.4,48c0-0.5,0-1,0-1.5c0-1-0.1-2-0.3-3C35.2,43.8,31.6,39,31.6,39v-0.8
		c-3.2,10.3-9.1,9.8-11.7,9.9c0,0,0,0,0,0c0,0,0,0,0,0c0,0-2.9-0.9-2.1,3.1c0.6,3,3,3.7,3,3.7c0.1,0,0.2,0,0.3,0
		c1.2,5.1,3.1,9.3,6.1,11.3l-0.8,7.8c0,0-1.6,0.4-3.2,1c1.2,1.6,5.4,2.7,8.5,2.7c3.1,0,7.3-1.1,8.5-2.7c-0.5-0.2-1.1-0.4-1.5-0.5
		c-1-0.3-1.7-0.5-1.7-0.5L36.1,66c3-2,4.8-6.2,6-11.3c0.1,0,0.2,0,0.3,0c0,0,2.4-0.7,3-3.7C46.3,47.1,43.4,48,43.4,48z"/>
	<path fill="#DC9573" d="M50,99.5c2.4,0,4.7-0.2,7-0.5c-0.3-6.7-1.2-14.1-3.8-18.8c-0.6-1-1.5-1.7-2.4-2.1c-2.6-1-8.9-2.5-12-3.6
		c-1.2,1.6-4.1,2.4-7.2,2.4c-3.1,0-6-0.8-7.2-2.4c-3.1,1.1-9.4,2.6-12,3.6c-0.8,0.3-1.5,0.9-2.1,1.7C19.5,91.8,33.8,99.5,50,99.5z"
		/>
</svg>
