
<svg xmlns="http://www.w3.org/2000/svg" viewBox="0 0 100 100">
	<path fill="#6C5298" d="M50,0.5C22.7,0.5,0.5,22.7,0.5,50S22.7,99.5,50,99.5c27.3,0,49.5-22.2,49.5-49.5S77.3,0.5,50,0.5"/>
	<path fill="#5C3D1F" d="M43.3,42.2c-0.3,3.6,0,5.5,0.7,6.2c0,0,0,0.2,3.4-1.2c-1.5,1.7-3.5,3.1-3.7,5.6c-0.7,7.6,1.1,22.4,2.1,25.4
		h-5.5c2.2-24.6,2.4-28.1-2.4-31.1c1.4-0.6,4.2,1.5,4.2,1.5C41.9,48.6,41.5,45.6,43.3,42.2"/>
	<path fill="#62814C" d="M34.4,20.5C34.4,20.5,34.6,20.5,34.4,20.5c-1.8-2.9-8.4-3.5-12.3-1.1c-5,3.1-4.1,10.1-1.9,12.7
		c0.3,0.4,0,0.9,0.1,1.4c-4.4,1.7-7.5,6.2-7.5,11.6c0,6.8,6,13.1,14,12.3c2.7-0.3,4.6-1.8,6.6-3.6c2.6,3.3,4.3,6.2,8.5,6.2
		c7.8,0,19.7-4.8,17.2-25.9c-1.3-10.7-2.8-23.7-16.5-22.8C37.2,11.5,33.4,15.6,34.4,20.5"/>
	<polygon fill="#FFFFFF" points="64.1,17 48.4,17 48.4,80.1 64.1,80.1 79.9,80.1 79.9,17 	"/>
	<polygon fill="#999787" points="64.1,65.6 61,65.6 61,80.1 64.1,80.1 67.3,80.1 67.3,65.6 	"/>
	<rect x="70.6" y="50.5" fill="#B9C3CC" width="4.9" height="8"/>
	<rect x="70.6" y="65.6" fill="#B9C3CC" width="4.9" height="7.9"/>
	<rect x="70.6" y="35.4" fill="#B9C3CC" width="4.9" height="8"/>
	<rect x="70.6" y="20.2" fill="#B9C3CC" width="4.9" height="8"/>
	<polygon fill="#B9C3CC" points="64.1,50.5 61.7,50.5 61.7,58.4 64.1,58.4 66.6,58.4 66.6,50.5 	"/>
	<rect x="52.7" y="50.5" fill="#B9C3CC" width="4.9" height="8"/>
	<rect x="52.7" y="65.6" fill="#B9C3CC" width="4.9" height="7.9"/>
	<polygon fill="#B9C3CC" points="64.1,35.4 61.7,35.4 61.7,43.3 64.1,43.3 66.6,43.3 66.6,35.4 	"/>
	<rect x="52.7" y="35.4" fill="#B9C3CC" width="4.9" height="8"/>
	<polygon fill="#B9C3CC" points="64.1,20.2 61.7,20.2 61.7,28.2 64.1,28.2 66.6,28.2 66.6,20.2 	"/>
	<rect x="52.7" y="20.2" fill="#B9C3CC" width="4.9" height="8"/>
	<polygon fill="#999787" points="64.1,78.5 44.2,78.5 44.2,81.4 64.1,81.4 81.2,81.4 81.2,78.5 	"/>
	<polygon fill="#DC9573" points="64.1,15.3 47.9,15.3 47.9,17.7 64.1,17.7 80.4,17.7 80.4,15.3 	"/>
	<polygon fill="#999787" points="37.4,80.1 18.9,80.1 18.9,83 37.4,83 55.9,83 55.9,80.1 	"/>
	<polygon fill="#DC9573" points="39,59.5 37.4,59.5 20.3,59.5 20.3,80.1 37.4,80.1 37.4,79.9 37.4,80.1 54.5,80.1 54.5,59.5 	"/>
	<rect x="25" y="66" fill="#B9C3CC" width="7.1" height="14.1"/>
	<polygon fill="#A9CA9A" points="50,53.1 24.9,53.1 19,58.6 55.8,58.6 	"/>
	<path fill="#80AB6B" d="M55.8,58.6L55.8,58.6l-36.8,0l0,0h0l0,1.6c0,1.8,1.7,3.3,3.7,3.3c2,0,3.6-1.5,3.6-3.3
		c0,1.8,1.7,3.3,3.7,3.3c2,0,3.5-1.4,3.6-3.1c0,0,0-0.1,0-0.1c0,0,0,0.1,0,0.1c0.1,1.7,1.7,3.1,3.7,3.1h0c2,0,3.6-1.4,3.7-3.1
		c0.1,1.7,1.6,3.1,3.6,3.1c2,0,3.7-1.5,3.7-3.3c0,1.8,1.6,3.3,3.7,3.3c2.1,0,3.7-1.5,3.7-3.3V58.6L55.8,58.6z"/>
	<rect x="25" y="66" fill="#FFFFFF" width="7.1" height="14.1"/>
	<rect x="26.5" y="67.4" fill="#B9C3CC" width="4.1" height="4.4"/>
	<rect x="26.5" y="73.3" fill="#B9C3CC" width="4.1" height="5.4"/>
	<rect x="37.3" y="66" fill="#FFFFFF" width="12.5" height="9.8"/>
	<rect x="37.8" y="66.5" fill="#B9C3CC" width="11.4" height="8.8"/>
</svg>
