
<svg xmlns="http://www.w3.org/2000/svg" viewBox="0 0 100 100">
	<path fill="#d65d85" d="M50,0.5C22.7,0.5,0.5,22.7,0.5,50S22.7,99.5,50,99.5c27.3,0,49.5-22.2,49.5-49.5S77.3,0.5,50,0.5"/>
	<polygon fill="#414140" points="50,69.3 50,69.4 50,69.3 43.8,69.3 43.8,77.1 48.4,77.1 50,77.1 56.2,77.1 56.2,69.3 	"/>
	<polygon fill="#F1EEDF" points="56.2,77.1 50,77.1 43.8,77.1 36.9,77.1 36.9,81.5 48.4,81.5 50,81.5 63.1,81.5 63.1,77.1 	"/>
	<path fill="#A8D0D2" d="M80.1,21.7H51.6H50H19.9c-1.6,0-2.9,1.3-2.9,2.9v38.2h33l0-0.1v0.1h33V24.6C83,23,81.7,21.7,80.1,21.7"/>
	<path fill="#F1EEDF" d="M50,62.8L50,62.8L50,62.8H17v3.6c0,1.6,1.3,2.9,2.9,2.9h26.9H50h30.1c1.6,0,2.9-1.3,2.9-2.9v-3.6H50z"/>
	<polygon fill="#FFFFFF" points="50,24.6 19.9,24.6 19.9,59.9 50,59.9 80.1,59.9 80.1,24.6 	"/>
	<rect x="23.2" y="26.6" fill="#999787" width="9.6" height="11.2"/>
	<rect x="23.2" y="40.3" fill="#B9C3CC" width="24.1" height="2.4"/>
	<rect x="23.2" y="44.9" fill="#B9C3CC" width="24.1" height="2.4"/>
	<rect x="23.2" y="49.5" fill="#B9C3CC" width="24.1" height="2.4"/>
	<rect x="23.2" y="54.1" fill="#B9C3CC" width="24.1" height="2.4"/>
	<rect x="34.9" y="31.2" fill="#B9C3CC" width="12" height="2.4"/>
	<rect x="34.9" y="35.7" fill="#B9C3CC" width="12" height="2.4"/>
	<rect x="34.9" y="26.6" fill="#B9C3CC" width="12" height="2.4"/>
	<rect x="52.6" y="26.6" fill="#B9C3CC" width="24.1" height="2.4"/>
	<rect x="52.6" y="31.2" fill="#B9C3CC" width="24.1" height="2.4"/>
	<rect x="52.6" y="35.7" fill="#B9C3CC" width="24.1" height="2.4"/>
	<rect x="52.6" y="40.3" fill="#B9C3CC" width="24.1" height="2.4"/>
	<rect x="52.6" y="44.9" fill="#B9C3CC" width="24.1" height="2.4"/>
	<rect x="52.6" y="49.5" fill="#B9C3CC" width="24.1" height="2.4"/>
	<rect x="52.6" y="54.1" fill="#B9C3CC" width="24.1" height="2.4"/>
	<polygon fill="#999787" points="62.5,57.8 61.4,56.7 60.2,57.8 59,59 60.2,60 63.9,63.6 65.1,62.5 66.3,61.4 	"/>
	<polygon fill="#222221" points="66.6,60 65.5,61.1 64.7,62 63.8,62.8 62.7,63.9 77.1,78.3 79,76.3 81,74.4 	"/>
	<path fill="#1669AA" d="M62.9,40.8c-5.4-5.3-14-5.4-19.4,0c-5.4,5.4-5.4,14,0,19.4c5.4,5.4,14,5.4,19.4,0
		C68.3,54.9,68.3,46.2,62.9,40.8 M59.6,56.9c-3.5,3.5-9.2,3.5-12.7,0c-3.5-3.5-3.5-9.2,0-12.7c3.5-3.5,9.2-3.5,12.7,0
		C63.1,47.7,63.1,53.4,59.6,56.9"/>
	<path opacity="0.3" fill="#009CDF" d="M59.6,44.2c-3.5-3.5-9.2-3.5-12.7,0c-3.5,3.5-3.5,9.2,0,12.7c3.5,3.5,9.2,3.5,12.7,0
		C63.1,53.4,63.1,47.7,59.6,44.2"/>
	<rect x="0.5" y="0.5" fill="none" width="99" height="99"/>
</svg>
