
<svg xmlns="http://www.w3.org/2000/svg" viewBox="0 0 100 100">
	<path fill="#4dccd1" d="M50,0.5C22.7,0.5,0.5,22.7,0.5,50c0,27.3,22.2,49.5,49.5,49.5c27.3,0,49.5-22.2,49.5-49.5
		C99.5,22.7,77.3,0.5,50,0.5"/>
	<path fill="#F1CD5C" d="M39.7,16.1c-4.6,0.1-8.2,4.1-8.1,8.9L33,79.2c0.1,4.8,4,8.7,8.5,8.6c4.6-0.1,8.2-4.1,8.1-8.9l-1.4-54.2
		C48.1,19.8,44.3,16,39.7,16.1"/>
	<path fill="#D6805B" d="M40.6,32.8c-2.4-0.6-4.5-0.7-4.5-0.7s1.8,1.1,4.3,1.8c0.1,0,0.2,0,0.2,0.1c2.4,0.6,4.5,0.6,4.5,0.6
		s-1.8-1.1-4.3-1.8C40.8,32.9,40.7,32.9,40.6,32.8"/>
	<path fill="#D6805B" d="M40.6,42.1c-2.4-0.6-4.5-0.7-4.5-0.7s1.8,1.1,4.3,1.8c0.1,0,0.2,0,0.2,0.1c2.4,0.6,4.5,0.6,4.5,0.6
		s-1.8-1.1-4.3-1.8C40.8,42.1,40.7,42.1,40.6,42.1"/>
	<path fill="#D6805B" d="M40.6,51.3c-2.4-0.6-4.5-0.7-4.5-0.7s1.8,1.1,4.3,1.8c0.1,0,0.2,0,0.2,0.1c2.4,0.6,4.5,0.6,4.5,0.6
		s-1.8-1.1-4.3-1.8C40.8,51.4,40.7,51.4,40.6,51.3"/>
	<path fill="#D6805B" d="M40.6,24.8c2.4,0.6,4.5,0.6,4.5,0.6s-1.8-1.1-4.3-1.8c-0.1,0-0.1,0-0.2-0.1c-2.4-0.6-4.5-0.7-4.5-0.7
		s1.8,1.1,4.3,1.8C40.5,24.7,40.6,24.7,40.6,24.8"/>
	<path fill="#009866" d="M69.3,29.6c0,0-1.8-1-3.2-1.4c0.8-0.6,2.5-2.5,2.5-2.5s-1.8-0.5-3-0.6c0.8-0.6,2-2.2,2-2.2s-0.6-0.2-2-0.1
		c-0.3-1.1-1.4-3.4-1.4-3.4s-1.7,1.9-2.4,2.9c-1.3-0.3-2-0.3-2-0.3s0.7,1.9,1.3,2.6c-1.3-0.1-3.1-0.1-3.1-0.1s1.1,2.3,1.7,3
		c-1.5,0.1-3.5,0.6-3.5,0.6c1.6,1.6,3.2,2.7,4.4,3.2L56.2,62l1.7,0.2l1.7,0.2l4.4-30.7C65.4,31.4,67.3,30.8,69.3,29.6z"/>
	<path fill="#009866" d="M73.7,36.6c0,0-1.6-1.2-2.9-1.9c0.9-0.4,2.9-2.1,2.9-2.1s-1.7-0.7-2.9-1.1c0.9-0.4,2.4-1.9,2.4-1.9
		s-0.6-0.3-1.9-0.4c-0.1-1.2-0.8-3.6-0.8-3.6s-2,1.6-2.8,2.6c-1.2-0.5-1.9-0.6-1.9-0.6s0.4,2,0.8,2.8c-1.2-0.3-3-0.6-3-0.6
		s0.7,2.4,1.2,3.2c-1.5-0.1-3.5,0.1-3.5,0.1c1.3,1.8,2.7,3.1,3.8,3.8l-4.1,16.5l3.7-0.9L68.2,38C69.5,37.9,71.5,37.6,73.7,36.6z"/>
	<path fill="#009866" d="M58.8,36c1.2-0.5,2.8-1.4,4.4-2.8c0,0-1.9-0.7-3.4-0.9c0.7-0.7,2-2.9,2-2.9s-1.8-0.2-3.1-0.1
		c0.7-0.7,1.5-2.5,1.5-2.5s-0.7-0.1-2,0.2c-0.5-1.1-2.1-3.1-2.1-3.1s-1.4,2.2-1.8,3.3c-1.3-0.1-2,0-2,0s1,1.8,1.8,2.4
		c-1.3,0.1-3.1,0.4-3.1,0.4s1.5,2.1,2.2,2.7c-1.5,0.4-3.3,1.2-3.3,1.2c2.1,1.5,4.2,2.3,5.4,2.6l-0.1,14.5c0,0.5,3.3,0.1,3.3,0.1
		C57.8,50.2,58.5,40.4,58.8,36z"/>
	<path fill="#C73747" d="M56,43.1c-1.3,0.7-3.2,1-4.5,1c-1.2,0-3.3-0.2-4.6-1.1c0.3-0.2,0.4-1,0.4-1.2c0.2-1.3,0-2.8,0-2.8h8.1
		c0,0-0.1,1.7,0.1,2.8C55.5,42,55.7,42.6,56,43.1"/>
	<path fill="#F1EEDF" d="M60.9,54.9v27.4c0,0.8-1.5,2.8-9.6,2.8h0c-8.1,0-9.5-2-9.5-2.8V54.9c0-5.4,3.7-9.2,5.1-11.9
		c1.1,0.7,3.4,1.1,4.6,1.1c1.2,0,3.3-0.3,4.4-1.1C57.4,46,60.9,49.4,60.9,54.9"/>
	<path fill="#F1EEDF" d="M56.7,38.6c0,1.1-1.2,2-2.7,2h-5.3c-1.5,0-2.7-0.9-2.7-2c0-1.1,1.2-2,2.7-2H54
		C55.5,36.6,56.7,37.5,56.7,38.6"/>
	<polygon fill="#009866" points="29.9,42.7 29.6,31.9 28.8,31.9 28,31.9 28.1,37.6 26,31.4 25.2,31.6 24.4,31.9 25.9,36.2 
		23.4,32.3 22.7,32.7 22,33.2 24.4,37.1 21.2,33.8 20.6,34.4 20,35 24.6,39.7 19.6,36.9 19.2,37.7 18.7,38.4 28.2,43.7 	"/>
	<path fill="#ff9966" d="M34.8,44.8c-2.2-5.2-4.1-4.2-6.7-3.3c-2.6,1-4.6,1.5-4,7.3c0.7,7.3,12.4,25.5,12.4,25.5
		S37.6,51.3,34.8,44.8"/>
	<path fill="#6A5A53" d="M68.9,48.9c0,0-0.1-0.5-0.1-1.3c0-0.8,0.1-1.9,0.4-3c0.1-0.3,0.2-0.5,0.3-0.8c0.2-0.3,0.3-0.5,0.5-0.8
		c0.2-0.2,0.3-0.5,0.5-0.6c0.2-0.2,0.4-0.4,0.6-0.5c0.2-0.1,0.4-0.3,0.5-0.4c0.2-0.1,0.3-0.2,0.5-0.2c0.3-0.1,0.4-0.2,0.4-0.2
		l0.6,2.1c0,0-0.1,0-0.3,0.1c-0.1,0-0.2,0-0.3,0.1c-0.1,0-0.3,0.1-0.4,0.2c-0.2,0-0.3,0.2-0.5,0.2c-0.2,0.1-0.3,0.2-0.5,0.3
		c-0.2,0.1-0.3,0.3-0.5,0.5c-0.2,0.2-0.3,0.4-0.4,0.6c-0.5,0.8-0.9,1.8-1.1,2.6C69,48.4,68.9,48.9,68.9,48.9"/>
	<path fill="#ff3333" d="M77.8,47.5c-2.5-6.4-8.8-0.1-8.8-0.1s-6.3-6.3-8.8,0.1c-2.9,7.3,4.3,16.5,8.8,12
		C73.6,64,80.7,54.8,77.8,47.5"/>
	<path fill="#CCB864" d="M68.6,57.2L63.7,53l-4.9,4.2L53.8,53l-4.9,4.2l-5-4.2l-4.9,4.2L34,53L29,57.2l-5-4.2v39.2
		c7.5,4.6,16.4,7.3,25.9,7.3c10.6,0,20.5-3.4,28.5-9.1V57.2L73.6,53L68.6,57.2z"/>
</svg>
