<svg xmlns="http://www.w3.org/2000/svg" viewBox="0 0 100 100">
	<path fill="#97519b" d="M50,0.5C22.7,0.5,0.5,22.7,0.5,50c0,27.3,22.2,49.5,49.5,49.5c27.3,0,49.5-22.2,49.5-49.5
		C99.5,22.7,77.3,0.5,50,0.5L50,0.5z"/>
	<polygon fill="#222221" points="81.2,34.2 80.1,34.2 80.1,28 75.4,23.2 76.2,22.5 81.2,27.5 	"/>
	<rect x="78.5" y="30.8" fill="#222221" width="4.5" height="10.7"/>
	<polygon fill="#222221" points="19.9,34.2 18.8,34.2 18.8,27.5 23.8,22.5 24.6,23.2 19.9,28 	"/>
	<rect x="17" y="30.8" fill="#222221" width="4.5" height="10.7"/>
	<path fill="#61B0B1" d="M74.5,17H50H25.5c-0.9,0-1.7,0.8-1.7,1.7v50.9H50h26.2V18.7C76.2,17.8,75.4,17,74.5,17z"/>
	<path fill="#FFFFFF" d="M50,69.6H23.8v4.7c0,0.9,0.8,1.7,1.7,1.7H50h24.5c0.9,0,1.7-0.8,1.7-1.7v-4.7H50z"/>
	<polygon fill="#FFFFFF" points="50,19.9 27.6,19.9 27.6,25.1 50,25.1 72.4,25.1 72.4,19.9 	"/>
	<path fill="#64696D" d="M70.7,28H50H29.3c-0.9,0-1.7,0.8-1.7,1.7v24.5c0,0.9,0.8,1.7,1.7,1.7H50h20.7c0.9,0,1.7-0.8,1.7-1.7V29.7
		C72.4,28.8,71.6,28,70.7,28z"/>
	<polygon fill="#414140" points="50,60.2 40.7,60.2 40.7,65.1 50,65.1 59.3,65.1 59.3,60.2 	"/>
	<path fill="#FFFFFF" d="M66.9,62.6c0,1.4-1.1,2.5-2.5,2.5c-1.4,0-2.5-1.1-2.5-2.5c0-1.4,1.1-2.5,2.5-2.5
		C65.8,60.2,66.9,61.2,66.9,62.6z"/>
	<path fill="#FFFFFF" d="M66.9,62.6c0,1.4,1.1,2.5,2.5,2.5c1.4,0,2.5-1.1,2.5-2.5c0-1.4-1.1-2.5-2.5-2.5
		C68,60.2,66.9,61.2,66.9,62.6z"/>
	<path fill="#FFFFFF" d="M33.1,62.6c0,1.4,1.1,2.5,2.5,2.5c1.4,0,2.5-1.1,2.5-2.5c0-1.4-1.1-2.5-2.5-2.5
		C34.2,60.2,33.1,61.2,33.1,62.6z"/>
	<path fill="#FFFFFF" d="M33.1,62.6c0,1.4-1.1,2.5-2.5,2.5c-1.4,0-2.5-1.1-2.5-2.5c0-1.4,1.1-2.5,2.5-2.5
		C32,60.2,33.1,61.2,33.1,62.6z"/>
	<rect x="62.2" y="76" fill="#222221" width="10.7" height="7"/>
	<rect x="27.1" y="76" fill="#222221" width="10.7" height="7"/>
</svg>
