
<svg xmlns="http://www.w3.org/2000/svg" viewBox="0 0 100 100">
	<circle fill="#A5DBDB" cx="50" cy="50" r="49.5"/>
		<path fill="#FFFFFF" d="M71.4,71.5h-4.9c-1.9,0-3.5-1.6-3.5-3.5V52.1c0-1.9,1.6-3.5,3.5-3.5h4.6c0,0,0.1,0,0.1,0c0,0,0,0,0-0.1
			c0,0-1.2-5.1-4.5-10c-4.3-6.4-9.9-9.7-16.6-9.7c-16.2,0-21,19.5-21,19.7c0,0,0,0.1,0,0.1c0,0,0,0,0.1,0h4.7c1.9,0,3.5,1.6,3.5,3.5
			V68c0,1.9-1.6,3.5-3.5,3.5H29c-1.9,0-3.5-1.6-3.5-3.5v-2.6h-3.2c-1.2,0-2,0-2.4-1c-0.3-0.7-1.1-1.6-1.8-1.8c-1-0.4-1-1.5-1-2.4
			c0-0.5,0-1.6,0-2.6c0-1,0-2,0-2.4c0-1.5,0.6-2.1,1.1-2.3c0.6-0.3,0.9-0.9,1-1.1V51c0-11.2,10.6-32,31-32c20.5,0,31.2,20.9,31.2,32
			v0.8c0,0.2,0.3,0.7,0.8,0.9c1.1,0.3,1.1,1.5,1.1,2.4v5.4c0,0.9,0,2.1-1.2,2.5c-0.6,0.2-1.6,1-1.9,1.6c-0.5,0.9-1.5,0.9-2.1,0.9
			h-3.2V68C74.9,69.9,73.4,71.5,71.4,71.5z M66.6,51.6c-0.3,0-0.5,0.2-0.5,0.5V68c0,0.3,0.2,0.5,0.5,0.5h4.9c0.3,0,0.5-0.2,0.5-0.5
			V54.4c0-1.4,0-2.8,1.5-2.8c0.1,0,1.4,0,1.5,1.6l0,9.2h3c0.6-0.8,1.4-1.5,2.3-2v-5.4c-1.2-0.7-2-2-2-3.3V51c0-10.1-9.7-29-28.2-29
			c-18.4,0-28,18.9-28,29v0.9c0,1.2-0.8,2.6-2,3.5c0,0.4,0,1.3,0,2.3c0,1.1,0,2.1,0,2.6c0,0,0,0,0,0c0.8,0.5,1.6,1.3,2.1,2.1
			c0,0,0,0,0.1,0h3.1c0-1.2,0-2.4,0-4l0-5.2c0.1-1.7,1.2-1.8,1.5-1.8c1.5,0,1.5,1.4,1.5,2.7V68c0,0.3,0.2,0.5,0.5,0.5h4.9
			c0.3,0,0.5-0.2,0.5-0.5V52.1c0-0.3-0.2-0.5-0.5-0.5h-4.7c-1,0-1.9-0.4-2.5-1.1s-0.8-1.7-0.5-2.7c0.1-0.2,5.4-22,23.9-22
			c18.6,0,24,21.8,24.1,22c0.2,1,0,1.9-0.5,2.7s-1.5,1.1-2.5,1.1H66.6z"/>
</svg>
