
<svg xmlns="http://www.w3.org/2000/svg" viewBox="0 0 100 100">
	<path fill="#ed7e53" d="M50,0.5C22.7,0.5,0.5,22.7,0.5,50S22.7,99.5,50,99.5c27.3,0,49.5-22.2,49.5-49.5S77.3,0.5,50,0.5"/>
	<path fill="#414140" d="M50,47.2H28v15.7c6.6,6.6,16,7.5,22,7.5c6,0,15.4-0.9,22-7.5V47.2H50z"/>
	<polygon fill="#222221" points="50,22.2 8.6,42.2 50,62.2 91.4,42.2 	"/>
	<polygon fill="#3D9E82" points="69.3,73.1 65,84.3 69.3,84.3 73.6,84.3 	"/>
	<path fill="#3D9E82" d="M69.3,69.2c-1.7,0-3.1,1.4-3.1,3.1c0,1.7,1.4,3.1,3.1,3.1s3.1-1.4,3.1-3.1C72.4,70.5,71,69.2,69.3,69.2"/>
	<polygon fill="#3D9E82" points="70,69.8 68.7,69.8 68.7,53.2 48.9,42.2 50.3,41.6 70,52.5 	"/>
</svg>
