
<svg xmlns="http://www.w3.org/2000/svg" viewBox="0 0 100 100">
	<path fill="#f25150" d="M50,0.5C22.7,0.5,0.5,22.7,0.5,50c0,27.3,22.2,49.5,49.5,49.5c27.3,0,49.5-22.2,49.5-49.5
		C99.5,22.7,77.3,0.5,50,0.5"/>
	<path fill="#F3D8B8" d="M84.5,35.8c0,0.3-0.4,1.1-0.8,2.1c0.3-1.6,0.7-3.4,0.6-4c-0.1-8.3-6.7-13.7-13.2-13.7
		c-6.6,0-13.1,5.4-13.2,13.7c0,0.7,0.3,2.6,0.7,4.2c-0.4-1.1-0.8-2-0.8-2.3c0,0-3.1-0.9-2.2,3.2c0.6,3.1,3.1,4.8,3.1,4.8
		c0.6-0.1,0.9-0.3,1.1-0.8c0.9,3.7,2.6,9.1,6.6,11.7l-0.5,11.2l10.9-1.6L76,54.6c3.8-2.5,5.6-7.7,6.5-11.4c0.2,0.3,0.5,0.5,0.9,0.5
		c0,0,2.6-1.7,3.3-4.8C87.6,34.9,84.5,35.8,84.5,35.8z M71.1,56.1L71.1,56.1C71.1,56.1,71.1,56.1,71.1,56.1L71.1,56.1z"/>
	<path fill="#414140" d="M96.5,66.9c-0.3-0.6-0.6-1.1-0.9-1.6c-0.7-1-1.5-1.7-2.5-2.1c-2.7-1-14.3-4.4-14.3-4.4l-7.6-0.5l-7.6,0.5
		c0,0-11.6,3.4-14.3,4.4c-1,0.4-1.8,1.1-2.5,2.1c-6,8.1-2.7,32.7-2.7,32.7l4.7,1.4c0.5,0,0.9,0,1.4,0C71.4,99.5,89.6,85.9,96.5,66.9
		z"/>
	<polygon fill="#F1EFE2" points="78.7,58.9 77.3,53.6 71.1,58.4 64.9,53.6 63.5,58.9 63.5,59 63.5,59 68,74.2 70.4,61.8 69.5,60.8 
		71.1,58.5 72.7,60.8 71.8,61.8 74.2,74.2 78.7,59 78.7,59 	"/>
	<path fill="#222221" d="M84.1,23.3c-3.2-3.2-8.8-6.3-13-6.1c-1.8,0.1-4.2,0.7-5.3,1.8c0,0-4.8,0.6-7,3.1c-1.9,2.1-3.1,5.3-2.1,13.6
		c0,0,1.5,1.1,1.9,3c0,0.2,0.3-0.1,0.5-0.2c0-0.9,0-3.6,0.1-4.2c0.6-4.2,1.3-6.7,6.7-9.9c0,0,2.1,0.6,3.9,1.2
		c0.8,0.3,3.1,1.1,3.5,1.2c3.6,1.4,7.6,1.9,9.5,7c0.2,0.4,0.3,4,0.3,4.8c0.1,0.1,0.2,0.2,0.4,0.3c0.3-2.8,1.7-3.2,1.7-3.2
		C85.6,31.6,85.3,24.5,84.1,23.3"/>
	<path fill="#222221" d="M58.6,38.8c0.2-0.1,0.3-0.1,0.4-0.2c0-0.9-0.4-3.7-0.3-4.3"/>
	<path fill="#ffb933" d="M86.1,27L86.1,27c-0.6-5-3.4-9.4-7.5-11.8l0.8-1.4c-2.5-1.5-5.3-2.4-8.4-2.4s-5.9,0.9-8.4,2.4l0.8,1.3
		c-3.6,1.9-6.9,5.5-7.4,11.9l-1.8,1.2l0.6,5.2c0,0,8.4,2.5,16.3,2.5s16.2-2.5,16.2-2.5l0.7-5.2L86.1,27z"/>
	<path fill="#453833" d="M23.5,60c-1.6,0.3-2.7,3.5-2.1,5.7c0.5,1.7,2.6,3.7,5,3.7c1.9,0,4-1,5.2-2.5c0.3-0.3,0.5-0.7,0.7-1.1
		c0.8,1.8,2.6,3.6,4.8,3.6c2.7,0,4.4-1.9,4.9-3.7c0.7-2.4-0.3-4.8-2.3-5.8H23.5z"/>
	<path fill="#8C674C" d="M43.4,46.8C43.4,46.8,43.4,46.8,43.4,46.8c0-0.5,0-1,0-1.5c-0.1-7.9-5.5-13.4-11.8-13.4
		c-6.3,0-11.7,5.4-11.8,13.4c0,0.5,0,1,0.1,1.5c0,0,0,0-0.1,0c0,0-2.9-0.9-2.1,3.1c0.6,3,3,3.7,3,3.7c0.1,0,0.2,0,0.3,0
		c1.2,5.2,3.1,9.4,6.2,11.4l-1,10.8h10.8L36,64.9c3.1-2,4.9-6.2,6.1-11.3c0.1,0,0.2,0,0.3,0c0,0,2.4-0.7,3-3.7
		C46.3,45.9,43.4,46.8,43.4,46.8z"/>
	<path fill="#F1EFE2" d="M50,99.5c2.4,0,4.7-0.2,7-0.5c-0.2-7.2-1-15.4-3.9-20.5c-0.6-1-1.5-1.7-2.4-2.1c-2-0.8-6.4-1.9-9.7-2.9
		l-1.8-0.6c-0.2-0.1-0.3-0.1-0.5-0.2c0,0,0,0,0,0l-1-0.3l-0.1-0.7L37,67.9l-3.5,2l-1.9,5.3l-1.9-5.3l-3.5-2l-0.7,3.8l-0.1,0.7
		l-1,0.3c0,0,0,0,0,0c-0.2,0.1-0.3,0.1-0.5,0.2l-1.8,0.6c-3.3,1-7.7,2.1-9.7,2.9c-0.9,0.4-1.8,1-2.4,2.1c-0.1,0.2-0.2,0.4-0.3,0.6
		C18.9,91.4,33.5,99.5,50,99.5z"/>
	<path fill="#453833" d="M31.6,28.7v-1.5c0,0-8.9,3.9-11,6.3c-2.2,2.5-3,4.9-1.8,13.2c2.5-0.1,8.8,0,12.8-9.9v0.8
		c0,0,3.9,4.7,11.7,6.1C44.5,34.4,33.8,28.7,31.6,28.7"/>
	<path fill="#F1EFE2" d="M45.7,24.3c0-3.7-3-6.7-6.7-6.7c-0.7,0-1.4,0.1-2.1,0.4c-1.1-2.1-3.3-3.6-5.9-3.6c-2.6,0-4.8,1.5-5.9,3.6
		c-0.7-0.2-1.4-0.4-2.1-0.4c-3.7,0-6.7,3-6.7,6.7c0,2.3,1.2,4.3,2.9,5.5c-0.6,4.8-1,10.3-1,10.3h25.3c0,0,0-6.1-0.9-10.2
		C44.4,28.9,45.7,26.7,45.7,24.3"/>
	<path fill="#D67F4B" d="M74.5,21.7l0.9,0.5l3.9-6.6c-0.3-0.2-0.5-0.4-0.8-0.5L74.5,21.7z"/>
	<path fill="#D67F4B" d="M63.3,15.1c-0.3,0.2-0.6,0.3-0.9,0.5l4,6.7l0.9-0.5L63.3,15.1z"/>
</svg>
