
<svg xmlns="http://www.w3.org/2000/svg" viewBox="0 0 100 100">
	<path fill="#EDC45B" d="M50,0.5C22.7,0.5,0.5,22.7,0.5,50S22.7,99.5,50,99.5c27.3,0,49.5-22.2,49.5-49.5S77.3,0.5,50,0.5"/>
	<path fill="#FFFFFF" d="M79.7,50c0,16.4-13.3,29.7-29.7,29.7S20.3,66.4,20.3,50c0-16.4,13.3-29.7,29.7-29.7S79.7,33.6,79.7,50"/>
	<path fill="#414140" d="M73.1,48.9l-6.3-6.7L66,32.8l5.7-3c-4.5-4.8-10.5-8.1-17.4-9.1l0.6,7.1l0.1,0l-7.6,3.8l-10.1-1.8L34.1,25
		c-0.2,0.2-0.5,0.3-0.7,0.5l3.2,4.6l-5.4,9l-6.7,3.4l-2.7-1.3c-0.9,2.8-1.4,5.8-1.4,8.9c0,1.6,0.1,3.3,0.4,4.8l3.1-0.8l7.6,6.7
		l2.1,9l-2.7,2.7c0.2,0.2,0.4,0.4,0.7,0.6l2.8-2.9l12.4-0.8l8.3,3.9L53,79.5c7.3-0.7,13.8-4.1,18.6-9.2l-3.8-3.1l0.7-9.7l4.7-7.8
		l6.4,0.4c0-0.1,0-0.1,0-0.2c0-0.2,0-0.5,0-0.7L73.1,48.9L73.1,48.9z M56,28.2l9.2,4.5l0.7,9l-9.6,3.1l0,0l-7.3-3.4l-0.9-9.4
		L56,28.2z M31.6,59.8l-7.3-6.4L25,43.1l6.8-3.4l7.1,6.6l0.9,8.5L31.6,59.8z M40.7,54.6l-0.9-8.5l8.9-3.8l7.2,3.4l1.5,9.6L48.9,60
		L40.7,54.6z M66.9,67.2l-11.5,5.4l-7.9-3.7l1.7-8l8.8-5l0,0l9.7,2.3L66.9,67.2z"/>
</svg>
