
<svg xmlns="http://www.w3.org/2000/svg" viewBox="0 0 100 100">
	<path fill="#5872B3" d="M50,0.5C22.7,0.5,0.5,22.7,0.5,50S22.7,99.5,50,99.5c27.3,0,49.5-22.2,49.5-49.5S77.3,0.5,50,0.5"/>
	<path fill="#C42644" d="M50,34c-12.5-21-41.4-1.2-27.8,21.4c5.5,9.1,15,16.6,27.8,26c12.7-9.4,22.3-16.9,27.8-26
		C91.4,32.8,62.5,12.9,50,34"/>
	<path fill="#FFFFFF" d="M63.6,51.2l-5-6.5l-3.7,13.8l-4.6-21L50,38.1l-6.3,15.2l-4.3-10.1l-5.1,7.9h-14c0.2,0.6,0.5,1.1,0.8,1.7
		h14.2l3.9-6l4.7,10.8l6-14.5l0.3,1.2l4.7,21.4l4.7-17.3l3.4,4.4h16.3c0.3-0.6,0.5-1.2,0.8-1.7H63.6z"/>
</svg>
