
<svg xmlns="http://www.w3.org/2000/svg" viewBox="0 0 100 100">
	<circle fill="#A5DBDB" cx="50" cy="50" r="49.5"/>
	<path fill="#FFFFFF" d="M69.6,18H30.4c-2.6,0-6.6,4.1-6.6,6.6v50.8c0,2.6,4.1,6.6,6.6,6.6h39.1c2.6,0,6.6-4.1,6.6-6.6V24.6
		C76.2,22,72.1,18,69.6,18z M73.3,74.4c0,2-2.7,4.7-4.7,4.7H31.4c-2,0-4.7-2.7-4.7-4.7V25.6c0-2,2.7-4.7,4.7-4.7h37.1
		c2,0,4.7,2.7,4.7,4.7V74.4z"/>
	<path fill="#FFFFFF" d="M66.5,28.3H43.4c-0.5,0-0.9,0.5-0.9,1c0,0.6,0.4,1,0.9,1h23.1c0.5,0,0.9-0.4,0.9-1
		C67.5,28.7,67.1,28.3,66.5,28.3z"/>
	<path fill="#FFFFFF" d="M66.5,36.3H33.4c-0.5,0-0.9,0.5-0.9,1c0,0.6,0.4,1,0.9,1h33.1c0.5,0,0.9-0.4,0.9-1
		C67.5,36.7,67.1,36.3,66.5,36.3z"/>
	<path fill="#FFFFFF" d="M66.5,44.3H33.4c-0.5,0-0.9,0.5-0.9,1c0,0.6,0.4,1,0.9,1h33.1c0.5,0,0.9-0.4,0.9-1
		C67.5,44.7,67.1,44.3,66.5,44.3z"/>
	<path fill="#FFFFFF" d="M66.5,52.3H33.4c-0.5,0-0.9,0.5-0.9,1c0,0.6,0.4,1,0.9,1h33.1c0.5,0,0.9-0.4,0.9-1
		C67.5,52.7,67.1,52.3,66.5,52.3z"/>
	<path fill="#FFFFFF" d="M66.5,60.3H33.4c-0.5,0-0.9,0.5-0.9,1c0,0.6,0.4,1,0.9,1h33.1c0.5,0,0.9-0.4,0.9-1
		C67.5,60.7,67.1,60.3,66.5,60.3z"/>
	<path fill="#FFFFFF" d="M66.5,68.3H33.4c-0.5,0-0.9,0.5-0.9,1c0,0.6,0.4,1,0.9,1h33.1c0.5,0,0.9-0.4,0.9-1
		C67.5,68.7,67.1,68.3,66.5,68.3z"/>
</svg>
