
<svg xmlns="http://www.w3.org/2000/svg" viewBox="0 0 100 100">
	<path fill="#26a8d4" d="M50,0.5C22.7,0.5,0.5,22.7,0.5,50S22.7,99.5,50,99.5c27.3,0,49.5-22.2,49.5-49.5S77.3,0.5,50,0.5"/>
	<polygon fill="#5b3794" points="70.6,18.8 62.1,16.2 54.4,18.4 50.8,18 50,18 49.2,18 45.6,18.4 37.9,16.2 29.4,18.8 14.4,33.8 
		23.2,42.6 29.4,36.4 29.4,86.4 48.2,86.4 50,86.4 70.6,86.4 70.6,36.4 76.8,42.6 85.6,33.8 	"/>
	<polygon fill="#7A2E82" points="58.6,11.2 41.4,11.2 47.7,18.9 49.9,25.3 52.3,18.9 	"/>
	<polygon fill="#FFFFFF" points="62.1,16.2 56.5,24.6 52.5,18.9 58.6,11.2 	"/>
	<polygon fill="#FFFFFF" points="37.9,16.2 43.5,24.6 47.5,18.9 41.4,11.2 	"/>
	<path fill="#FFFFFF" d="M50,78c-0.6,0-1,0.5-1,1c0,0.6,0.5,1,1,1c0.6,0,1-0.5,1-1C51,78.5,50.6,78,50,78"/>
	<path fill="#FFFFFF" d="M50,44.2c-0.6,0-1,0.4-1,1c0,0.6,0.5,1,1,1c0.6,0,1-0.5,1-1C51,44.7,50.6,44.2,50,44.2"/>
	<path fill="#FFFFFF" d="M50,66.8c-0.6,0-1,0.5-1,1c0,0.6,0.5,1,1,1c0.6,0,1-0.4,1-1C51,67.2,50.6,66.8,50,66.8"/>
	<path fill="#FFFFFF" d="M50,55.5c-0.6,0-1,0.5-1,1c0,0.6,0.5,1,1,1c0.6,0,1-0.4,1-1C51,56,50.6,55.5,50,55.5"/>
	<path fill="#FFFFFF" d="M50,33c-0.6,0-1,0.5-1,1c0,0.6,0.5,1,1,1c0.6,0,1-0.4,1-1C51,33.4,50.6,33,50,33"/>
</svg>
