
<svg xmlns="http://www.w3.org/2000/svg" viewBox="0 0 100 100">
	<path fill="#27a574" d="M50,0.5C22.7,0.5,0.5,22.7,0.5,50c0,27.3,22.2,49.5,49.5,49.5c27.3,0,49.5-22.2,49.5-49.5
		C99.5,22.7,77.3,0.5,50,0.5"/>
	<path fill="#ffb933" d="M89.7,58.4c0,7.6-9.2,13.8-20.6,13.8c-11.4,0-20.6-6.2-20.6-13.8c0-7.6,9.2-13.8,20.6-13.8
		C80.5,44.6,89.7,50.8,89.7,58.4"/>
	<polygon fill="#ffb933" points="83,67.5 85.1,76.1 77.1,69.8 	"/>
	<path fill="#4A3280" d="M62.8,60.9c0-1.3,0.8-2.2,2-2.2c1.2,0,2,0.9,2,2.2c0,1.2-0.8,2.2-2,2.2C63.6,63.1,62.7,62.2,62.8,60.9"/>
	<path fill="#4A3280" d="M69.6,60.9c0-1.3,0.9-2.2,2.1-2.2c1.2,0,2,0.9,2,2.2c0,1.2-0.8,2.2-2.1,2.2C70.4,63.1,69.6,62.2,69.6,60.9"
		/>
	<path fill="#4A3280" d="M76.5,60.9c0-1.3,0.8-2.2,2.1-2.2c1.2,0,2,0.9,2,2.2c0,1.2-0.8,2.2-2.1,2.2C77.3,63.1,76.5,62.2,76.5,60.9"
		/>
	<path fill="#FFFFFF" d="M67.9,43.1C67.9,54.1,56,63,41.4,63c-14.7,0-26.6-8.9-26.6-19.9c0-11,11.9-19.9,26.6-19.9
		C56,23.2,67.9,32.1,67.9,43.1"/>
	<polygon fill="#FFFFFF" points="22.2,53.9 19.2,66.7 27.1,59.9 	"/>
	<path fill="#71247E" d="M39.1,48.1l-0.1-0.9c-0.2-1.9,0.4-3.9,2.1-5.9c1.5-1.8,2.4-3.1,2.4-4.7c0-1.7-1.1-2.9-3.2-2.9
		c-1.2,0-2.6,0.4-3.5,1.1l-0.8-2.2c1.1-0.8,3.1-1.4,4.9-1.4c3.9,0,5.7,2.4,5.7,5c0,2.3-1.3,4-2.9,6c-1.5,1.8-2.1,3.3-1.9,5l0,0.9
		H39.1z M38.4,52.9c0-1.3,0.9-2.2,2.1-2.2c1.2,0,2,0.9,2,2.2c0,1.2-0.8,2.1-2.1,2.1C39.2,55,38.4,54.1,38.4,52.9"/>
</svg>
