
<svg xmlns="http://www.w3.org/2000/svg" viewBox="0 0 100 100">
	<circle fill="#A5DBDB" cx="50" cy="50" r="49.5"/>
	<path fill="#FFFFFF" d="M70.3,42.9V67c0,1.9-1.4,3.3-3.3,3.3H33c-1.9,0-3.3-1.5-3.3-3.3V33.1c0-1.9,1.4-3.3,3.3-3.3h27.2l2.8-3.7
		H32.1c-2.3,0-6.1,3.8-6.1,6.1v35.8c0,2.4,3.7,6.1,6.1,6.1h35.8c2.3,0,6.1-3.8,6.1-6.1V38L70.3,42.9z"/>
	<path fill="#FFFFFF" d="M49.8,59.5c-0.5,0-1.1-0.2-1.5-0.5l-10-7.5c-1.1-0.8-1.3-2.4-0.5-3.5c0.8-1.1,2.4-1.3,3.5-0.5l8,6L72.1,23
		c0.8-1.1,2.4-1.3,3.5-0.5c1.1,0.8,1.3,2.4,0.5,3.5L51.8,58.5c-0.4,0.5-1,0.9-1.6,1C50,59.5,49.9,59.5,49.8,59.5z"/>
</svg>
