
<svg xmlns="http://www.w3.org/2000/svg" viewBox="0 0 100 100">
	<circle fill="#A5DBDB" cx="50" cy="50" r="49.5"/>
	<path fill="#FFFFFF" d="M62.5,81H36.8c-1,0-1.9-0.4-2.4-1.2s-0.7-1.7-0.4-2.7l0.2-0.7c0.5-1.6,1-2.8,2.7-2.9H19
		c-1.9,0-3.5-1.6-3.5-3.5V28.5c0-1.9,1.6-3.5,3.5-3.5h62c1.9,0,3.5,1.6,3.5,3.5V70c0,1.9-1.6,3.5-3.5,3.5H62.7
		c1.6,0.2,2.2,1.4,2.6,3.1l0.2,0.7c0.2,1,0.1,1.9-0.5,2.7C64.4,80.6,63.5,81,62.5,81z M36.8,78l25.6,0c0,0,0.1,0,0.1,0
		c0,0,0,0,0-0.1l-0.2-0.7c-0.1-0.4-0.6-1.8-1-1.8h-5c-2,0-3.5-0.3-3.5-2s1.5-3,3.5-3h24.2c0.6,0,1-0.4,1-1V29c0-0.6-0.4-1-1-1h-61
		c-0.6,0-1,0.4-1,1v40.5c0,0.6,0.4,1,1,1h23.9c1,0,2,0.4,2.7,1.1c0.5,0.6,0.8,1.3,0.8,2c-0.1,1.6-1.6,1.9-3.6,1.9h-5
		c-0.4,0-1,1.4-1.2,1.9L36.8,78z"/>
		<path fill="#FFFFFF" d="M44.6,59.6c-0.2,0-0.3,0-0.5-0.1c-0.3-0.2-0.5-0.5-0.5-0.9l0.1-17.1c0-0.4,0.2-0.7,0.5-0.9s0.7-0.2,1,0
			l14.7,8.5c0.3,0.2,0.5,0.5,0.5,0.9s-0.2,0.7-0.5,0.9l-14.8,8.6C45,59.5,44.8,59.6,44.6,59.6z M45.7,43.2l0,13.6L57.4,50L45.7,43.2
			z"/>
		<path fill="#FFFFFF" d="M77,66.6H23c-0.6,0-1-0.4-1-1v-33c0-0.6,0.4-1,1-1h54c0.6,0,1,0.4,1,1v33C78,66.1,77.6,66.6,77,66.6z
			 M24,64.6h52v-31H24V64.6z"/>
</svg>
